<?xml version="1.0" encoding="utf-8"?>
<!-- Generator: Adobe Illustrator 22.1.0, SVG Export Plug-In . SVG Version: 6.00 Build 0)  -->
<svg version="1.1" id="Capa_1" xmlns="http://www.w3.org/2000/svg" xmlns:xlink="http://www.w3.org/1999/xlink" x="0px" y="0px"
	 viewBox="0 0 300 300" style="enable-background:new 0 0 300 300;" xml:space="preserve">
<style type="text/css">
	.st0{fill:#231F20;}
	.st1{fill:#498056;}
	.st2{fill:#FFFFFF;}
</style>
<g>
	<g>
		<path class="st0" d="M114.3,196.3H55.6c-11.6,0-21.1-9.5-21.1-21.1V57.7c0-11.6,9.5-21.1,21.1-21.1h58.7
			c11.6,0,21.1,9.5,21.1,21.1v117.5C135.4,186.8,126,196.3,114.3,196.3z M55.6,44.1c-7.5,0-13.6,6.1-13.6,13.6v117.5
			c0,7.5,6.1,13.6,13.6,13.6h58.7c7.5,0,13.6-6.1,13.6-13.6V57.7c0-7.5-6.1-13.6-13.6-13.6H55.6z"/>
	</g>
	<g>
		<path class="st0" d="M131.7,167.8H38.3c-2.1,0-3.8-1.7-3.8-3.8V57.7c0-2.1,1.7-3.8,3.8-3.8h93.4c2.1,0,3.8,1.7,3.8,3.8V164
			C135.4,166.1,133.8,167.8,131.7,167.8z M42,160.3h85.9V61.4H42V160.3z"/>
	</g>
	<g>
		<path class="st0" d="M93.8,181.3H76.1c-2.1,0-3.8-1.7-3.8-3.8s1.7-3.8,3.8-3.8h17.7c2.1,0,3.8,1.7,3.8,3.8
			C97.6,179.6,95.9,181.3,93.8,181.3z"/>
	</g>
	<g>
		<path class="st0" d="M244.4,263.4h-58.7c-11.6,0-21.1-9.5-21.1-21.1V124.8c0-11.6,9.5-21.1,21.1-21.1h58.7
			c11.6,0,21.1,9.5,21.1,21.1v117.5C265.5,254,256,263.4,244.4,263.4z M185.7,111.2c-7.5,0-13.6,6.1-13.6,13.6v117.5
			c0,7.5,6.1,13.6,13.6,13.6h58.7c7.5,0,13.6-6.1,13.6-13.6V124.8c0-7.5-6.1-13.6-13.6-13.6C244.4,111.2,185.7,111.2,185.7,111.2z"
			/>
	</g>
	<g>
		<rect x="168.3" y="124.8" class="st1" width="93.4" height="106.4"/>
		<path class="st0" d="M261.7,234.9h-93.4c-2.1,0-3.8-1.7-3.8-3.8V124.8c0-2.1,1.7-3.8,3.8-3.8h93.4c2.1,0,3.8,1.7,3.8,3.8v106.4
			C265.5,233.3,263.8,234.9,261.7,234.9z M172.1,227.4H258v-98.8h-85.9V227.4z"/>
	</g>
	<g>
		<path class="st0" d="M223.9,248.4h-17.7c-2.1,0-3.8-1.7-3.8-3.8s1.7-3.8,3.8-3.8h17.7c2.1,0,3.8,1.7,3.8,3.8
			S225.9,248.4,223.9,248.4z"/>
	</g>
	<g>
		<g>
			<rect x="57.4" y="91.8" class="st1" width="55.2" height="38"/>
			<path class="st0" d="M112.6,133.6H57.4c-2.1,0-3.8-1.7-3.8-3.8v-38c0-2.1,1.7-3.8,3.8-3.8h55.2c2.1,0,3.8,1.7,3.8,3.8v38
				C116.3,131.9,114.6,133.6,112.6,133.6z M61.2,126.1h47.7V95.6H61.2V126.1z"/>
		</g>
		<g>
			<polygon class="st1" points="57.4,91.8 85,116.6 112.6,91.8 			"/>
			<path class="st0" d="M85,120.3c-0.9,0-1.8-0.3-2.5-1L54.9,94.6c-1.2-1-1.6-2.7-1-4.1c0.6-1.5,1.9-2.4,3.5-2.4h55.2
				c1.6,0,2.9,1,3.5,2.4c0.6,1.5,0.2,3.1-1,4.1l-27.6,24.7C86.8,120,85.9,120.3,85,120.3z M67.2,95.6L85,111.5l17.8-15.9H67.2z"/>
		</g>
	</g>
	<g>
		<g>
			<path class="st0" d="M195.1,91c-2.1,0-3.8-1.7-3.8-3.8v-18c0-4.2-3.4-7.7-7.7-7.7h-13.3c-2.1,0-3.8-1.7-3.8-3.8s1.7-3.8,3.8-3.8
				h13.3c8.4,0,15.2,6.8,15.2,15.2v18.1C198.8,89.4,197.2,91,195.1,91z"/>
		</g>
		<g>
			<polygon class="st2" points="178.5,67.2 155.4,57.7 178.5,49.4 			"/>
			<path class="st0" d="M178.5,71c-0.5,0-1-0.1-1.4-0.3L154,61.2c-1.4-0.6-2.4-2-2.3-3.6c0-1.6,1-2.9,2.5-3.4l23.1-8.3
				c1.2-0.4,2.4-0.2,3.4,0.5s1.6,1.8,1.6,3.1v17.8c0,1.3-0.6,2.4-1.7,3.1C179.9,70.7,179.2,71,178.5,71z M165.8,57.9l8.9,3.7v-6.9
				L165.8,57.9z"/>
		</g>
		<g>
			<path class="st0" d="M129.5,242.5h-13.3c-8.4,0-15.2-6.8-15.2-15.2v-18.1c0-2.1,1.7-3.8,3.8-3.8c2.1,0,3.8,1.7,3.8,3.8v18.1
				c0,4.2,3.4,7.7,7.7,7.7h13.3c2.1,0,3.8,1.7,3.8,3.8C133.3,240.8,131.6,242.5,129.5,242.5z"/>
		</g>
		<g>
			<polygon class="st2" points="121.3,229.3 144.4,238.8 121.3,247.1 			"/>
			<path class="st0" d="M121.3,250.9c-0.8,0-1.5-0.2-2.2-0.7c-1-0.7-1.6-1.8-1.6-3.1v-17.8c0-1.3,0.6-2.4,1.7-3.1
				c1-0.7,2.4-0.8,3.5-0.4l23.1,9.5c1.4,0.6,2.4,2,2.3,3.6c0,1.6-1,2.9-2.5,3.4l-23.1,8.3C122.2,250.8,121.8,250.9,121.3,250.9z
				 M125.1,234.9v6.9l8.9-3.2L125.1,234.9z"/>
		</g>
	</g>
	<g>
		<path class="st0" d="M208.2,199.8c-1,0-1.9-0.4-2.6-1L191,184.9c-1.5-1.4-1.6-3.8-0.1-5.3c1.4-1.5,3.8-1.6,5.3-0.1l11.4,10.9
			l30.5-42.8c1.2-1.7,3.5-2.1,5.2-0.9c1.7,1.2,2.1,3.5,0.9,5.2l-33,46.3c-0.6,0.9-1.6,1.5-2.7,1.6
			C208.4,199.8,208.3,199.8,208.2,199.8z"/>
	</g>
</g>
</svg>
