<?xml version="1.0" encoding="utf-8"?>
<!-- Generator: Adobe Illustrator 22.1.0, SVG Export Plug-In . SVG Version: 6.00 Build 0)  -->
<svg version="1.1" id="Capa_1" xmlns="http://www.w3.org/2000/svg" xmlns:xlink="http://www.w3.org/1999/xlink" x="0px" y="0px"
	 viewBox="0 0 300 300" style="enable-background:new 0 0 300 300;" xml:space="preserve">
<style type="text/css">
	.st0{fill:#97E4FF;}
	.st1{fill:#231F20;}
	.st2{fill:#FFFFFF;}
</style>
<g>
	<g>
		<g>
			
				<rect x="22.4" y="83.6" transform="matrix(0.9462 -0.3237 0.3237 0.9462 -41.1156 36.8496)" class="st0" width="135.7" height="116.9"/>
			<path class="st1" d="M44.9,223.1c-0.6,0-1.1-0.1-1.7-0.4c-0.9-0.4-1.6-1.2-1.9-2.2L3.5,109.9c-0.7-2,0.4-4.1,2.4-4.8l128.4-43.9
				c2-0.7,4.1,0.4,4.8,2.4l37.8,110.6c0.3,1,0.3,2-0.2,2.9c-0.4,0.9-1.2,1.6-2.2,1.9L46.2,222.9C45.8,223,45.4,223.1,44.9,223.1z
				 M11.9,111l35.4,103.4L168.5,173L133.1,69.6L11.9,111z"/>
		</g>
		<g>
			
				<rect x="47" y="196.4" transform="matrix(0.9462 -0.3237 0.3237 0.9462 -63.1005 48.7032)" class="st2" width="135.7" height="35.3"/>
			<path class="st1" d="M56.4,256.5c-1.6,0-3.1-1-3.6-2.6l-11.4-33.4c-0.3-1-0.3-2,0.2-2.9c0.4-0.9,1.2-1.6,2.2-1.9l128.4-43.9
				c1-0.3,2-0.3,2.9,0.2c0.9,0.4,1.6,1.2,1.9,2.2l11.4,33.4c0.7,2-0.4,4.1-2.4,4.8L57.6,256.3C57.2,256.4,56.8,256.5,56.4,256.5z
				 M49.8,221.6l9,26.2l121.2-41.5l-9-26.2L49.8,221.6z"/>
		</g>
		<g>
			<polygon class="st2" points="53.6,181.2 64.8,146.1 80.6,154.8 93.4,112.8 144.4,150.1 			"/>
			<path class="st1" d="M53.6,185c-1,0-1.9-0.4-2.7-1.1c-1-1-1.4-2.5-1-3.9L61.1,145c0.3-1.1,1.2-2,2.2-2.4c1.1-0.4,2.2-0.3,3.2,0.2
				l11.7,6.5l11.4-37.6c0.4-1.2,1.3-2.1,2.4-2.5c1.2-0.4,2.4-0.2,3.4,0.5l51,37.3c1.1,0.8,1.7,2.2,1.5,3.6c-0.2,1.4-1.2,2.6-2.5,3
				l-90.8,31.1C54.4,184.9,54,185,53.6,185z M67,151.7l-7.5,23.5l76.8-26.3L95.4,119l-11.2,36.9c-0.3,1.1-1.1,2-2.2,2.4
				c-1.1,0.4-2.3,0.4-3.3-0.2L67,151.7z"/>
		</g>
	</g>
	<g>
		<g>
			<rect x="95" y="47.3" class="st0" width="135.7" height="116.9"/>
			<path class="st1" d="M230.7,168H95c-2.1,0-3.8-1.7-3.8-3.8V47.3c0-2.1,1.7-3.8,3.8-3.8h135.7c2.1,0,3.8,1.7,3.8,3.8v116.9
				C234.5,166.3,232.8,168,230.7,168z M98.8,160.4h128.1V51.1H98.8V160.4z"/>
		</g>
		<g>
			<rect x="95" y="164.2" class="st2" width="135.7" height="35.3"/>
			<path class="st1" d="M230.7,203.3H95c-2.1,0-3.8-1.7-3.8-3.8v-35.3c0-2.1,1.7-3.8,3.8-3.8h135.7c2.1,0,3.8,1.7,3.8,3.8v35.3
				C234.5,201.6,232.8,203.3,230.7,203.3z M98.8,195.7h128.1V168H98.8V195.7z"/>
		</g>
		<g>
			<polygon class="st2" points="115.6,131 137.5,101.4 149.6,114.8 175.3,79.2 211.5,131 			"/>
			<path class="st1" d="M211.5,134.8h-95.9c-1.4,0-2.7-0.8-3.4-2.1c-0.6-1.3-0.5-2.8,0.3-4l21.9-29.6c0.7-0.9,1.7-1.5,2.9-1.5
				c1.1-0.1,2.2,0.4,3,1.2l9,9.9l23-31.8c0.7-1,1.9-1.6,3.1-1.6c0,0,0,0,0,0c1.2,0,2.4,0.6,3.1,1.6l36.2,51.8
				c0.8,1.2,0.9,2.7,0.3,3.9C214.2,134,212.9,134.8,211.5,134.8z M123.1,127.2h81.1l-29-41.5L152.7,117c-0.7,0.9-1.7,1.5-2.9,1.6
				c-1.1,0.1-2.3-0.4-3-1.2l-9-9.9L123.1,127.2z"/>
		</g>
	</g>
	<g>
		<path class="st2" d="M292.9,205.2l-46.2-29.8V188H217c-11.2,0-20.3,9.1-20.3,20.3v44.4h34.3V229c0-3.7,3-6.7,6.7-6.7h8.9V235
			L292.9,205.2z"/>
		<path class="st1" d="M231.1,256.5h-34.3c-2.1,0-3.8-1.7-3.8-3.8v-44.4c0-13.3,10.8-24.1,24.1-24.1h25.9v-8.8c0-1.4,0.8-2.7,2-3.3
			c1.2-0.7,2.7-0.6,3.9,0.1L295,202c1.1,0.7,1.7,1.9,1.7,3.2c0,1.3-0.7,2.5-1.7,3.2l-46.2,29.8c-1.2,0.8-2.7,0.8-3.9,0.1
			c-1.2-0.7-2-1.9-2-3.3v-8.8h-5.1c-1.6,0-2.9,1.3-2.9,2.9v23.7C234.9,254.8,233.2,256.5,231.1,256.5z M200.5,248.9h26.7V229
			c0-5.8,4.7-10.5,10.5-10.5h8.9c2.1,0,3.8,1.7,3.8,3.8v5.7l35.4-22.8l-35.4-22.8v5.7c0,2.1-1.7,3.8-3.8,3.8H217
			c-9.1,0-16.5,7.4-16.5,16.5V248.9z"/>
	</g>
</g>
</svg>
