<svg width="67" height="143" viewBox="0 0 67 143" fill="none" xmlns="http://www.w3.org/2000/svg">
<g clip-path="url(#clip0)">
<path d="M37.7612 24.7954C37.7612 24.7954 36.4501 28.8624 35.9256 30.3055C35.4012 31.7486 33.8278 35.6844 34.2211 37.2587C34.4834 38.0459 37.7612 40.8009 39.4657 39.2266C40.6458 35.422 42.8747 31.6174 42.8747 31.6174C42.8747 31.6174 41.0391 24.9266 37.7612 24.7954Z" fill="#F4907D"/>
<path d="M38.6791 94.5899C38.6791 94.5899 38.4169 100.1 38.2857 102.33C38.1546 104.561 35.5323 107.578 33.4345 109.021C31.3366 110.464 30.8122 112.039 30.9433 113.744C31.2055 115.45 32.91 116.106 35.5323 116.63C37.6302 117.024 39.3347 115.056 41.6947 112.695C44.0548 110.333 46.1527 109.546 46.2838 106.528C46.4149 105.217 45.7593 104.429 45.4971 100.756C45.2349 97.4762 45.366 93.6716 45.366 93.6716L38.6791 94.5899Z" fill="#161616"/>
<path d="M38.2858 102.33L42.0881 103.511L42.2192 102.199L38.2858 101.15V102.33Z" fill="#303030"/>
<path d="M37.3679 104.692L41.0392 106.266L41.5636 105.085L37.8924 103.642L37.3679 104.692Z" fill="#303030"/>
<path d="M36.4501 106.135L35.6635 107.053L39.3347 108.496L40.2525 107.578L36.4501 106.135Z" fill="#303030"/>
<path d="M34.7456 108.103L33.6967 108.89L37.6301 110.464L38.4168 109.546L34.7456 108.103Z" fill="#303030"/>
<path d="M55.5929 99.5752C55.5929 99.5752 55.4618 106.135 55.4618 107.972C55.4618 109.808 55.3307 112.957 54.8062 113.744C53.8884 115.187 53.2329 116.63 51.9217 118.598C51.2661 119.517 51.0039 120.566 50.8728 121.484C50.7417 122.534 51.3973 123.452 52.3151 123.715C53.6262 124.239 55.7241 124.764 56.773 124.633C58.6086 124.371 59.1331 124.371 60.3131 122.665C63.4599 118.336 63.9843 115.318 63.1976 108.89C62.4109 102.986 63.4599 97.2137 63.4599 97.2137L55.5929 99.5752Z" fill="#161616"/>
<path d="M55.4618 106.791V107.972L59.7886 108.628V107.447L55.4618 106.791Z" fill="#303030"/>
<path d="M55.4618 109.677V110.727L59.7886 111.645V110.464L55.4618 109.677Z" fill="#303030"/>
<path d="M55.1996 112.563L54.8063 113.744L58.8709 114.662L59.2642 113.35L55.1996 112.563Z" fill="#303030"/>
<path d="M53.8885 115.187L53.2329 116.368L57.1664 117.286L57.9531 116.105L53.8885 115.187Z" fill="#303030"/>
<path d="M40.7769 51.8211C40.7769 51.8211 39.9903 61.0046 38.9413 65.4651C37.8924 70.0569 35.139 78.0596 36.0568 79.634C36.9746 81.0771 36.9746 81.733 36.319 83.1762C35.6634 84.7505 35.2701 85.0129 35.9257 86.8495C36.5813 88.6862 34.8768 89.0798 35.9257 91.7037C36.319 92.622 34.6145 96.9514 37.6302 98.5257C40.7769 100.1 42.6126 100.625 44.3171 100.1C46.9394 99.3129 47.595 97.8697 47.7261 96.689C47.9883 91.4413 48.2505 81.6018 49.1683 77.1413C49.5617 75.4358 53.364 58.5119 53.364 58.5119L40.7769 51.8211Z" fill="#232323"/>
<path d="M65.5577 86.5871C64.2466 84.7505 65.5577 81.0771 65.2955 78.7156C65.0333 76.3541 64.2466 71.2376 63.7221 66.9082C63.1976 62.7101 61.8865 56.6752 62.5421 55.7569L48.2505 54.4449C48.2505 54.4449 48.5127 64.022 49.1683 69.6633C49.5616 72.8119 51.3973 80.4211 52.0528 86.3248C52.5773 90.7853 51.0039 92.8844 52.3151 94.8523C53.2329 96.1642 52.0528 98.6569 51.9217 99.9688C51.7906 101.805 52.3151 102.986 53.2329 103.511C55.4618 104.692 62.8043 105.61 65.0333 103.38C65.9511 102.461 66.8689 101.543 66.0822 99.1816C65.6888 97.6073 65.6888 95.1147 66.3444 93.6716C67.5245 91.8349 66.8689 88.4238 65.5577 86.5871Z" fill="#232323"/>
<path d="M45.1037 16.9239C45.1037 16.9239 42.8747 16.9239 41.0391 18.8918C39.2035 20.8597 36.319 26.7633 36.319 26.7633C36.319 26.7633 40.3835 27.6817 41.8258 29.1248C43.2681 30.6991 47.8571 18.2358 47.726 17.711C47.726 17.1863 45.1037 16.9239 45.1037 16.9239Z" fill="#161616"/>
<path d="M62.0177 54.7074L40.777 52.6083V54.3138C40.777 54.3138 44.4482 57.856 51.3973 58.2496C58.3465 58.512 60.7065 58.2496 62.0177 57.5936C62.0177 56.5441 62.0177 55.6257 62.0177 54.7074Z" fill="#161616"/>
<path d="M46.1527 55.4945V57.9872C46.1527 57.9872 47.2016 58.5119 48.5128 58.7743C49.8239 59.0367 50.6106 58.7743 50.6106 58.7743V56.4129L46.1527 55.4945Z" fill="white"/>
<path d="M46.6771 55.8881V57.7248C46.6771 57.7248 47.4638 58.1183 48.3816 58.3807C49.2994 58.5119 49.955 58.3807 49.955 58.3807V56.6752L46.6771 55.8881Z" fill="#161616"/>
<path d="M56.9042 18.4982C56.9042 18.4982 59.002 19.2853 60.4443 19.9413C61.8866 20.5972 64.64 24.2706 64.5089 27.8128C64.2467 31.355 63.0666 39.3578 62.411 42.5064C61.7555 45.655 62.0177 48.2789 62.8044 49.5908C63.5911 50.9027 64.1155 52.2147 63.1977 53.789C62.6733 54.7073 64.5089 55.6257 61.8866 56.9376C60.5754 57.5936 50.6106 57.4624 46.8083 56.2816C41.6948 54.5761 39.0725 52.3459 39.5969 51.1651C39.9903 49.8532 41.4326 43.6871 41.4326 41.0633C41.4326 38.5706 40.3836 31.8798 41.0392 28.6C41.6948 25.3202 43.6615 18.7605 45.7594 18.1046C47.7261 17.5798 54.413 17.5798 56.9042 18.4982Z" fill="#303030"/>
<path d="M48.6439 18.7606C48.6439 18.7606 46.9394 24.1395 48.3817 24.7954C52.3151 26.6321 55.9864 20.9908 56.9042 18.6294C55.593 15.6119 54.9375 10.4954 54.9375 10.4954L48.6439 18.7606Z" fill="#F4907D"/>
<path d="M53.364 3.67338C51.1351 1.83668 44.186 1.18072 42.2192 6.822C41.8259 8.13393 42.0881 10.3642 42.2192 11.5449C42.7437 16.3991 46.546 20.8596 48.775 19.8101C50.3484 19.1541 53.7574 16.5303 54.6752 13.3816C55.8552 9.97063 56.2486 6.03485 53.364 3.67338Z" fill="#FFAB95"/>
<path d="M53.7574 23.2211C51.9218 20.4661 53.4952 18.6294 54.413 16.0055C54.9374 14.3 55.1997 12.201 55.0686 10.3643L54.6752 10.6266C54.6752 12.3321 54.5441 13.9065 54.1508 15.4808C53.7574 16.7927 52.8396 18.4982 52.5774 19.9413C52.3151 21.3844 52.7085 22.434 53.4952 23.4835C53.7574 23.3523 53.7574 23.3523 53.7574 23.2211Z" fill="#161616"/>
<path d="M53.1018 9.05229C53.1018 9.05229 53.8885 8.9211 54.2818 10.1018C54.6752 11.1514 53.6263 12.7257 53.6263 12.7257C53.6263 12.7257 55.1997 11.6761 55.0685 9.97064C55.0685 9.05229 54.1507 8.00275 53.1018 9.05229Z" fill="#F4907D"/>
<path d="M65.2955 32.1422C65.0333 29.3872 58.0841 30.6991 58.0841 30.6991L55.4618 38.7019C54.0196 37.3899 51.6595 35.2908 51.9217 34.5037C52.4462 32.011 52.1839 29.256 52.4462 27.9441C52.5773 27.0257 52.3151 26.6321 51.7906 27.1569C51.9217 25.845 51.2661 25.5826 50.8728 26.3697C51.0039 25.3202 50.2172 25.189 49.6927 26.1074C49.2994 25.0578 48.6438 25.5826 48.3816 26.6321C47.8571 29.256 47.9882 30.0431 47.8571 31.2239C47.8571 31.7486 47.4638 33.1918 47.4638 33.1918C47.4638 33.1918 46.546 31.7486 45.4971 31.3551C44.9726 31.2239 43.7926 31.2239 44.4481 32.2734C44.5792 32.5358 44.8415 32.4046 45.2348 33.1918C46.2837 34.5037 46.546 35.6844 46.9393 36.2092C47.4638 36.9963 48.2505 37.3899 49.0372 38.7019C49.8239 40.0138 51.135 42.6376 52.3151 44.6055C53.8884 46.967 55.9863 47.0982 56.1174 47.0982C57.4286 47.3606 57.6908 47.0982 58.4775 46.0486C62.1487 41.4569 65.5577 34.8973 65.2955 32.1422Z" fill="#FFAB95"/>
<path d="M65.4266 36.3404C66.0822 32.7982 67.9178 27.1569 65.2955 22.3028C63.9844 19.8101 59.9198 19.2853 59.7887 19.8101C58.6086 22.3028 57.9531 24.533 57.1664 27.4193C56.9041 28.7312 56.3797 31.2239 55.9863 33.0606C59.3953 33.0606 62.6732 33.8477 65.4266 36.3404Z" fill="#161616"/>
<path d="M53.1018 10.233C52.8395 10.4954 52.7084 11.1513 53.1018 11.2825C53.364 11.4137 53.8885 11.0202 53.8885 10.6266C53.8885 10.233 53.4951 9.97061 53.1018 10.233Z" fill="#161616"/>
<path d="M53.2329 10.7578C53.2329 10.7578 52.3151 10.233 52.184 9.57704C52.0529 8.92108 52.184 8.65869 52.184 8.65869L52.4462 8.78988C52.4462 8.78988 52.4462 9.44585 52.7085 9.70823C52.9707 10.1018 53.4952 10.4954 53.4952 10.4954L53.2329 10.7578Z" fill="#161616"/>
<path d="M41.957 7.21558C41.957 7.21558 37.7613 9.97062 36.8435 10.7578C35.9257 11.5449 40.9081 15.2183 44.4482 14.1688C47.8572 13.1192 52.184 9.57704 52.184 9.57704L41.957 7.21558Z" fill="#161616"/>
<path d="M41.957 7.2156C41.957 7.2156 47.7261 10.7578 51.3973 9.83945C55.0686 8.78991 55.9864 7.87156 55.9864 7.87156C55.9864 7.87156 55.7242 0.26239 49.0373 0.26239C42.3504 0.26239 41.957 7.2156 41.957 7.2156Z" fill="#303030"/>
<path d="M49.2994 0.524771C49.2994 0.787156 48.906 1.04954 48.2505 1.04954C47.726 1.04954 47.2015 0.787156 47.2015 0.524771C47.2015 0.262385 47.5949 0 48.2505 0C48.906 0 49.2994 0.262385 49.2994 0.524771Z" fill="#161616"/>
<path d="M59.9198 67.3019C59.3953 67.3019 58.8708 67.0395 58.8708 66.7771V96.1643C58.8708 96.4267 59.2642 96.689 59.9198 96.689C60.4442 96.689 60.9687 96.4267 60.9687 96.1643V66.6459C60.9687 67.0395 60.5753 67.3019 59.9198 67.3019Z" fill="#C4BEBB"/>
<path d="M59.002 56.5441V69.401C59.002 69.1386 59.3953 68.8762 60.0509 68.8762C60.5753 68.8762 61.0998 69.1386 61.0998 69.401V56.5441H59.002Z" fill="#515151"/>
<path d="M59.9198 68.8762C59.3953 68.8762 58.8708 69.1385 58.8708 69.4009C58.8708 69.6633 59.2642 69.9257 59.9198 69.9257C60.4442 69.9257 60.9687 69.6633 60.9687 69.4009C60.9687 69.1385 60.5753 68.8762 59.9198 68.8762Z" fill="#515151"/>
<path d="M59.9198 56.0193C59.3953 56.0193 58.8708 56.2817 58.8708 56.5441C58.8708 56.8064 59.2642 57.0688 59.9198 57.0688C60.4442 57.0688 60.9687 56.8064 60.9687 56.5441C60.9687 56.2817 60.5753 56.0193 59.9198 56.0193Z" fill="#666666"/>
<path d="M66.8688 64.4156L60.4442 68.089L59.5264 66.3835L65.951 62.7101L66.8688 64.4156Z" fill="#515151"/>
<path d="M65.8199 63.1037C65.8199 63.4973 66.0822 64.022 66.4755 64.2844C66.8689 64.4156 67.1311 64.2844 67.1311 63.7597C67.1311 63.3661 66.8689 62.8413 66.4755 62.5789C66.0822 62.4477 65.8199 62.7101 65.8199 63.1037Z" fill="#515151"/>
<path d="M42.8748 30.3055C42.3503 30.4367 41.5636 30.9615 40.908 31.0927C41.0391 30.3055 41.4325 28.4688 41.8258 26.6321C42.2192 24.9266 41.9569 23.3523 41.1703 24.0083C41.1703 23.2211 40.5147 22.8275 40.2524 23.4835C40.2524 22.6963 39.2035 22.9587 39.0724 23.4835C38.2857 22.8275 38.2857 23.4835 37.7613 25.9762C37.499 27.4193 37.2368 29.256 37.1057 30.6991C36.5812 31.8798 35.4012 33.7165 35.0078 34.3725C34.2211 35.8156 33.9589 37.1275 34.2211 38.0459C34.7456 39.7514 34.7456 40.0138 35.5323 41.1945C35.9256 41.7193 36.4501 41.9817 37.2368 41.3257C37.6301 41.0633 39.3346 40.0138 39.5969 39.2266C40.1213 37.3899 39.728 33.5853 39.9902 33.3229C40.6458 33.0606 41.4325 32.7982 41.957 32.1422C42.7436 31.2239 43.0059 31.4862 43.6614 30.8303C44.0548 30.6991 44.0548 30.1743 42.8748 30.3055Z" fill="#FFAB95"/>
<path d="M10.2269 50.9028C10.2269 50.9028 21.2406 46.8358 21.5029 44.7367C21.7651 42.6376 21.7651 40.5386 22.4207 40.9321C23.0762 41.3257 22.6829 43.556 23.3385 43.6872C23.9941 43.8184 25.5674 42.6376 27.6653 42.1129C30.1565 41.5881 31.0743 43.6872 29.2387 45.5239C27.4031 47.4918 25.4363 47.3606 23.7318 48.5413C22.0273 49.722 17.5694 54.3138 17.5694 54.3138L10.2269 50.9028Z" fill="#FFC3B1"/>
<path d="M11.0137 43.4248C11.0137 43.4248 5.11353 40.145 3.40903 44.8679C1.70453 49.4597 3.01568 52.6083 3.67126 53.789C4.19572 55.101 12.1938 50.1156 12.1938 50.1156L11.0137 43.4248Z" fill="#DB3F33"/>
<path d="M5.11353 86.9808C5.11353 86.9808 5.7691 86.5872 6.29356 86.1936C7.08026 85.6688 8.39141 86.5872 7.60472 87.112C6.94914 87.6367 6.5558 87.8991 6.5558 87.8991L5.11353 86.9808Z" fill="#DDDDDD"/>
<path d="M13.636 123.977C12.5871 123.321 7.60472 126.339 7.60472 126.339L1.04895 128.569V133.292C1.04895 133.292 3.67126 136.703 7.08026 134.341C9.17811 132.898 12.7182 130.799 13.8983 128.438C14.9472 126.076 14.5538 124.633 13.636 123.977Z" fill="#303030"/>
<path d="M29.2387 131.717C28.1898 131.061 23.2074 134.079 23.2074 134.079L16.2583 136.44L16.7828 141.688C16.7828 141.688 19.274 144.312 22.683 142.082C24.7808 140.639 28.3209 138.539 29.501 136.178C30.5499 133.817 30.1565 132.373 29.2387 131.717Z" fill="#303030"/>
<path d="M4.58903 73.3367C4.58903 73.3367 1.8356 78.8468 1.31114 85.5376C1.04891 88.5551 2.75341 105.479 2.75341 105.479C2.75341 105.479 1.96672 107.709 1.44226 111.907C0.655565 117.286 0.131104 130.668 0.131104 130.274C0.131104 130.274 1.8356 132.636 4.19568 132.636C7.08022 132.636 9.17807 129.225 9.17807 129.225C9.17807 129.225 12.3248 110.595 12.456 105.873C12.5871 102.855 12.1937 92.2285 12.1937 92.2285C12.1937 92.2285 15.2094 106.397 14.9471 109.939C14.6849 113.482 15.3405 134.735 15.6027 136.309C16.2583 138.408 17.9628 139.064 19.7984 139.458C22.1585 139.983 25.3053 135.522 25.3053 135.522C25.3053 135.522 25.1742 111.383 25.3053 107.578C25.5675 101.15 23.0763 81.2083 23.0763 81.2083L4.58903 73.3367Z" fill="#2A78B3"/>
<path d="M15.6027 28.8624C13.636 27.5504 10.0958 27.944 8.39134 31.355C7.47354 33.1917 8.78469 38.177 8.91581 41.7192C9.04692 44.6055 8.12911 46.1798 8.12911 46.1798C8.12911 46.1798 8.12911 46.1798 10.6203 47.2293C13.1115 48.2789 15.6027 47.2293 15.6027 47.2293L15.4716 42.9C15.4716 42.9 18.0939 42.5064 18.4872 42.1128C19.5362 41.0633 20.1917 38.0459 19.6673 34.2413C19.0117 28.3376 16.3894 29.3871 15.6027 28.8624Z" fill="#FFC3B1"/>
<path d="M21.5029 72.6808C20.9784 68.6138 21.3718 62.7101 21.5029 60.4799C21.634 56.0193 20.8473 52.3459 19.9295 50.2468C19.405 49.0661 18.225 48.1477 17.1761 47.4918C17.1761 47.4918 15.4716 48.1477 14.0293 48.1477C12.4559 48.1477 10.3581 47.7542 7.86687 46.5734C5.50679 45.3927 8.1291 43.4248 8.1291 43.4248C6.94906 43.1624 6.4246 43.4248 5.63791 44.212C3.27783 46.4422 1.70444 49.7221 2.49114 57.856C2.62225 59.5615 3.14671 64.4156 3.14671 69.401C3.14671 72.9432 2.09779 77.6661 1.96667 80.9459C2.75337 84.0945 12.587 86.0624 16.6516 85.0129C17.9628 84.6193 21.8962 84.0945 23.2074 81.6019C22.9452 79.1092 22.0273 75.9606 21.5029 72.6808Z" fill="#F3605C"/>
<path d="M7.99803 46.7046C10.3581 47.8854 12.5871 48.4101 14.1605 48.2789C15.7338 48.2789 17.3072 47.623 17.3072 47.623C16.5205 47.0982 15.865 46.7046 15.865 46.7046C15.865 46.7046 11.5381 47.2294 8.6536 44.9991C8.78472 44.4743 8.78472 44.4743 8.91583 43.6872C8.6536 43.556 8.39137 43.556 8.12914 43.4248C8.12914 43.4248 5.50683 45.3927 7.99803 46.7046Z" fill="#DB3F33"/>
<path d="M36.8435 59.6927C33.3033 61.267 27.6654 63.1037 27.6654 63.1037C27.6654 63.1037 21.3718 50.9028 19.274 50.6404C17.8317 50.5092 17.045 53.1331 17.1761 56.4129C17.3072 58.9055 19.7984 63.3661 22.4208 66.6459C22.4208 66.6459 24.9119 70.5817 25.9609 70.4505C27.0098 70.3193 32.5166 67.4331 34.2211 66.2523C35.7945 65.2028 36.7123 64.4156 38.2857 63.3661C37.8924 62.5789 37.3679 60.2175 36.8435 59.6927Z" fill="#FFC3B1"/>
<path d="M27.1409 59.8239C25.3053 55.8881 21.8963 50.1156 18.6184 49.0661C17.1762 48.5413 15.4717 52.3459 15.9961 56.0193C16.2583 58.3808 17.7006 61.923 19.274 64.5468C22.1585 64.4156 25.6987 62.4477 27.1409 59.8239Z" fill="#DB3F33"/>
<path d="M36.8434 59.6927C36.8434 59.6927 37.8923 58.1184 38.2857 56.9376C38.679 56.0193 38.9412 54.8386 38.9412 54.8386C38.9412 54.8386 39.3346 54.7074 39.5968 55.2321C39.859 55.7569 39.7279 56.9376 39.9902 57.3312C40.5146 58.2496 43.268 57.7248 44.4481 57.5936C46.8082 57.2 48.5127 60.3486 45.2348 61.6606C41.9569 62.9725 38.2857 63.4973 38.2857 63.4973L36.8434 59.6927Z" fill="#FFC3B1"/>
<path d="M18.0939 28.4688C18.0939 28.4688 15.6027 23.7459 11.1448 25.4514C9.17807 26.2385 6.16241 27.8129 5.37572 32.011C4.72014 36.078 6.0313 38.5707 7.47357 40.5385C8.26026 41.5881 8.52249 42.5064 8.91584 43.8184C9.4403 43.9496 10.4892 44.3431 10.8826 44.6055C12.1937 43.0312 14.4227 40.2762 15.7338 39.489C17.7006 38.1771 20.5851 37.5211 20.7162 33.323C20.7162 32.7982 20.8473 31.4863 19.4051 30.6991C20.0607 30.5679 20.3229 30.8303 21.1096 30.4367C20.454 28.0752 18.0939 28.4688 18.0939 28.4688Z" fill="#303030"/>
</g>
<defs>
<clipPath id="clip0">
<rect width="67" height="143" fill="white"/>
</clipPath>
</defs>
</svg>
