<?xml version="1.0" encoding="utf-8"?>
<!-- Generator: Adobe Illustrator 22.1.0, SVG Export Plug-In . SVG Version: 6.00 Build 0)  -->
<svg version="1.1" id="Capa_1" xmlns="http://www.w3.org/2000/svg" xmlns:xlink="http://www.w3.org/1999/xlink" x="0px" y="0px"
	 viewBox="0 0 488.2 446.1" style="enable-background:new 0 0 488.2 446.1;" xml:space="preserve">
<style type="text/css">
	.st0{fill:#EBEBEB;}
	.st1{fill:#FAFAFA;}
	.st2{fill:#263238;}
	.st3{fill:#E0E0E0;}
	.st4{fill:#FFFFFF;}
	.st5{fill:#498056;}
	.st6{opacity:0.3;}
	.st7{fill:#455A64;}
	.st8{fill:#FFBE9D;}
	.st9{fill:#EB996E;}
	.st10{opacity:0.6;}
</style>
<title>faqs</title>
<g id="Character">
	<path class="st0" d="M130.4,323.1c2.6-1.6,5.5-2.8,8.4-3.7l1.7-8.3l14.1-0.2l2,8.3c3,0.7,5.9,1.9,8.5,3.4l7.1-4.7l10.1,9.8
		l-4.4,7.3c1.6,2.6,2.8,5.5,3.6,8.4l8.3,1.7l0.2,14.1l-8.3,2c-0.7,3-1.9,5.9-3.4,8.5l4.7,7.1l-9.8,10.1l-7.3-4.4
		c-2.6,1.6-5.5,2.8-8.4,3.7l-1.7,8.3l-14.1,0.2l-2-8.3c-3-0.7-5.9-1.9-8.5-3.4l-7.1,4.7l-10.1-9.7l4.4-7.3c-1.6-2.6-2.8-5.5-3.6-8.4
		l-8.3-1.7l-0.2-14.1l8.3-2c0.7-3,1.9-5.9,3.4-8.5l-4.7-7.1l9.8-10.1L130.4,323.1L130.4,323.1z M137.9,341.8
		c-5.8,6-5.6,15.6,0.4,21.4c6,5.8,15.6,5.6,21.4-0.4c5.8-6,5.6-15.5-0.4-21.3C153.3,335.7,143.7,335.8,137.9,341.8
		C137.9,341.8,137.9,341.8,137.9,341.8z"/>
	<rect x="298.7" y="0.3" class="st1" width="156" height="73.2"/>
	<path class="st2" d="M454.7,73.5c0,0,0-0.4,0-1.3s0-2.1,0-3.8c0-3.3,0-8.3,0-14.6c0-12.7-0.1-31-0.1-53.5l0.2,0.2l-156,0.1l0,0
		l0.3-0.3c0,25.8,0,50.6,0,73.2l-0.2-0.2l112,0.1l32.3,0.1h8.6h2.2L454.7,73.5l-0.7-0.1h-2.2h-8.6l-32.3,0.1l-112.1,0.1h-0.2v-0.2
		c0-22.7,0-47.5,0-73.2V0h0.3l156,0.1h0.2v0.2c0,22.6-0.1,41-0.1,53.6c0,6.3,0,11.2,0,14.6c0,1.7,0,2.9,0,3.8S454.7,73.5,454.7,73.5
		z"/>
	<path class="st2" d="M454.9,22.4c0,0.1-35,0.3-78.1,0.3s-78.1-0.1-78.1-0.3s35-0.3,78.1-0.3S454.9,22.2,454.9,22.4z"/>
	<path class="st2" d="M314.1,8c-1.3,1.5-2.7,3-4.2,4.2c-1.4,1.4-2.9,2.7-4.6,3.9c1.3-1.5,2.7-3,4.2-4.2
		C310.9,10.4,312.5,9.1,314.1,8z"/>
	<path class="st2" d="M313.8,16.5c-1.5-1.3-3-2.7-4.2-4.2c-1.4-1.4-2.7-2.9-3.9-4.6c1.5,1.3,3,2.7,4.2,4.2
		C311.3,13.3,312.6,14.8,313.8,16.5z"/>
	<path class="st2" d="M329.6,16.3c0-0.2-0.1-0.4,0-0.7c0-0.5,0-1.1-0.1-1.7c0-1.5-0.1-3.6-0.1-6.1l0.2,0.2h-8.5l0.3-0.3l0,0V10
		c0,0.8,0,1.5,0,2.2c0,1.4,0,2.8,0,4l-0.2-0.2c2.5,0,4.6,0.1,6.1,0.1l1.7,0.1C329.2,16.2,329.4,16.2,329.6,16.3
		c-0.7,0-1.5,0.1-2.2,0.1c-1.5,0-3.6,0.1-6.2,0.1H321v-0.2c0-1.2,0-2.6,0-4c0-0.7,0-1.4,0-2.2V7.8l0,0l0.3-0.3h8.5h0.2v0.2
		c0,2.6-0.1,4.7-0.1,6.2C329.8,14.8,329.7,15.5,329.6,16.3z"/>
	<path class="st2" d="M345.4,15.5c-1.5,0.3-3,0.3-4.5,0.3c-1.5,0.1-3,0-4.5-0.3C339.3,15.2,342.4,15.2,345.4,15.5z"/>
	<rect x="306.2" y="226.4" class="st1" width="181.7" height="127.6"/>
	<path class="st2" d="M487.9,354c0,0,0-0.8,0-2.3s0-3.8,0-6.7c0-5.9,0-14.6-0.1-25.7c0-22.2-0.1-54.1-0.1-92.8l0.2,0.2l-181.7,0.1
		l0,0l0.3-0.3c0,45.6,0,88.9,0,127.6l-0.2-0.2l131,0.1l37.3,0.1h9.9L487.9,354l-0.8-0.1h-2.5h-9.9l-37.3,0.1l-131.2,0.1H306V354
		c0-38.6,0-81.9,0-127.6v-0.3h0.3l181.7,0.1h0.2v0.2c0,38.8-0.1,70.7-0.1,92.9c0,11.1,0,19.8-0.1,25.6c0,2.9,0,5.2,0,6.7
		C487.9,353.2,487.9,354,487.9,354z"/>
	<path class="st2" d="M488.2,252.2c0,0.1-40.7,0.3-91,0.3s-91-0.1-91-0.3s40.7-0.3,91-0.3S488.2,252,488.2,252.2z"/>
	<path class="st2" d="M324.1,235.4c-1.5,1.8-3.2,3.4-5,4.9c-1.7,1.6-3.4,3.2-5.3,4.5C317,241.5,320.4,238.3,324.1,235.4L324.1,235.4
		z"/>
	<path class="st2" d="M323.7,245.3c-1.8-1.5-3.4-3.2-4.9-5c-1.6-1.7-3.2-3.4-4.5-5.3c1.8,1.5,3.4,3.2,4.9,5
		C320.8,241.6,322.3,243.4,323.7,245.3z"/>
	<path class="st2" d="M342.2,245.1c0-0.3,0-0.5,0-0.8l-0.1-2c0-1.7-0.1-4.2-0.1-7.1l0.2,0.2h-9.9l0.3-0.3l0,0v2.6c0,0.9,0,1.7,0,2.6
		c0,1.6,0,3.2,0,4.7l-0.2-0.2c2.9,0,5.3,0.1,7.1,0.1l2,0.1C341.7,245,341.9,245,342.2,245.1c-0.2,0-0.4,0-0.6,0l-2,0.1
		c-1.7,0-4.2,0.1-7.2,0.1h-0.2V245c0-1.4,0-3,0-4.7c0-0.8,0-1.7,0-2.6v-2.6l0,0l0.3-0.3h9.9h0.2v0.2c0,3-0.1,5.5-0.1,7.2
		c0,0.8,0,1.4,0,2C342.3,244.6,342.2,244.9,342.2,245.1z"/>
	<path class="st2" d="M360.6,244.2c-3.5,0.3-7.1,0.3-10.6,0C353.5,243.9,357.1,243.9,360.6,244.2z"/>
	<rect x="401.8" y="267.1" class="st3" width="65" height="65"/>
	<rect x="0.3" y="36.9" class="st4" width="376" height="289.1"/>
	<path class="st2" d="M376.2,326c0-1.8-0.1-114.4-0.2-289.1l0.2,0.2H0.3l0,0l0.3-0.3c0,104.1,0,202.6,0,289l-0.2-0.2L376.2,326
		L0.3,326.2H0v-0.2c0-86.4,0-184.9,0-289v-0.3h0.3h376h0.2v0.2C376.3,211.5,376.2,324.2,376.2,326z"/>
	<path class="st3" d="M269,301.6l1-1.3l0.5-0.7c0.2-0.3,0.4-0.6,0.5-1c0.5-0.8,0.9-1.6,1.2-2.5c0.2-0.5,0.4-1,0.6-1.5
		s0.3-1.1,0.5-1.8c0.2-0.7,0.3-1.3,0.4-2c0.1-0.7,0.2-1.4,0.3-2.2c0.3-3.5,0.1-7-0.5-10.5c-1.2-7.9-4.5-17.1-9.7-27.2
		c-5.9-11.4-12.9-22.2-20.8-32.3c-9.5-12.3-19.9-23.9-31-34.8c-12.7-12.5-26.3-24.1-40.6-34.7c-7.6-5.6-15.6-11-24-16.1
		c-8.6-5.2-17.5-9.9-26.7-14c-9.4-4.1-19.2-7.6-29.7-9.3c-5.2-0.9-10.6-1.1-15.8-0.4c-2.6,0.4-5.2,1.1-7.7,2.2
		c-4.9,2.2-8.7,6.4-10.4,11.6c-0.8,2.5-1.2,5.2-1.3,7.9c-0.1,5.3,0.7,10.6,2.2,15.7c2.8,10.2,7.5,19.6,12.6,28.4
		c5.1,8.7,10.8,17,16.9,24.9c6,7.8,12.3,15.1,18.7,22c12.2,13,25.2,25.2,39.1,36.4c12,9.8,24.7,18.8,38,26.8
		c10.9,6.7,22.5,12.4,34.4,17c10.6,3.9,20.2,6.2,28.1,6.5c3.5,0.2,7,0,10.5-0.7c0.7-0.1,1.4-0.3,2.1-0.5c0.7-0.2,1.3-0.4,1.9-0.6
		l1.7-0.7c0.5-0.3,1-0.5,1.5-0.8c0.8-0.4,1.6-0.9,2.3-1.5c0.3-0.2,0.6-0.4,0.9-0.6l0.6-0.6C268.5,302,268.9,301.6,269,301.6
		c-0.1,0-0.4,0.4-1.2,1.2l-0.6,0.6c-0.2,0.2-0.6,0.4-0.9,0.7c-0.7,0.6-1.5,1.1-2.3,1.5c-0.5,0.2-0.9,0.5-1.5,0.8l-1.7,0.7
		c-0.6,0.3-1.3,0.5-1.9,0.6c-0.7,0.2-1.4,0.4-2.1,0.6c-3.5,0.7-7,1-10.6,0.8c-8-0.3-17.6-2.5-28.2-6.4c-12-4.6-23.5-10.2-34.5-16.9
		c-13.3-8-26.1-16.9-38.2-26.8c-13.9-11.2-27-23.4-39.2-36.4c-6.4-6.9-12.7-14.2-18.8-22.1c-6.2-8-11.9-16.3-17-25
		c-5.1-8.9-9.8-18.3-12.7-28.6c-1.5-5.2-2.3-10.5-2.2-15.9c0.1-2.7,0.6-5.4,1.4-8c0.9-2.6,2.3-5,4.1-7.1c1.9-2,4.1-3.7,6.6-4.8
		c2.5-1.1,5.1-1.9,7.8-2.3c5.3-0.7,10.7-0.5,16,0.4c10.5,1.7,20.4,5.3,29.8,9.4c9.2,4.1,18.1,8.8,26.7,14c8.4,5.1,16.4,10.5,24,16.1
		c14.4,10.6,27.9,22.2,40.7,34.8c11.1,10.9,21.5,22.5,30.9,34.9c7.9,10.1,14.8,21,20.7,32.4c5.1,10.1,8.4,19.4,9.6,27.3
		c0.6,3.5,0.7,7,0.4,10.6c-0.1,0.7-0.2,1.5-0.3,2.2c-0.1,0.7-0.2,1.3-0.4,2c-0.2,0.6-0.3,1.2-0.5,1.8s-0.4,1.1-0.6,1.5
		c-0.3,0.9-0.8,1.7-1.3,2.5c-0.2,0.3-0.4,0.7-0.6,0.9s-0.4,0.5-0.6,0.7C269.3,301.2,269,301.6,269,301.6z"/>
	<path class="st3" d="M307.4,209c0,0-0.1-0.6-0.1-1.6c0-0.3,0-0.6-0.1-0.9s-0.1-0.7-0.2-1.1c-0.2-0.9-0.4-1.8-0.7-2.7
		c-0.2-0.5-0.4-1-0.6-1.6l-0.8-1.6c-0.3-0.6-0.6-1.2-1-1.8c-0.4-0.6-0.8-1.2-1.2-1.8c-2.1-2.8-4.6-5.3-7.4-7.5
		c-6.1-5.1-14.8-9.8-25.3-13.9c-12-4.5-24.4-8-37-10.3c-15.3-2.9-30.7-4.6-46.2-5.3c-17.8-0.9-35.6-0.5-53.4,1.2
		c-9.4,0.9-18.9,2.2-28.6,4c-9.9,1.8-19.6,4.2-29.2,7.3c-9.7,3.2-19.4,7.1-28.3,12.8c-4.5,2.8-8.6,6.2-12.1,10.2
		c-1.7,2-3.1,4.3-4.2,6.7c-1,2.5-1.6,5.1-1.7,7.8c0.1,2.7,0.6,5.3,1.6,7.8c1.1,2.4,2.5,4.7,4.2,6.8c3.5,4,7.6,7.5,12.1,10.2
		c8.9,5.7,18.6,9.6,28.3,12.8c9.6,3.1,19.3,5.5,29.2,7.3c9.7,1.8,19.2,3.1,28.6,4c17.8,1.6,35.6,2,53.4,1.1
		c15.5-0.7,31-2.5,46.3-5.3c12.6-2.3,25-5.7,37-10.3c10.5-4.1,19.2-8.8,25.3-13.9c2.7-2.2,5.2-4.7,7.3-7.5c0.4-0.6,0.9-1.2,1.2-1.8
		c0.4-0.6,0.7-1.1,1-1.8l0.8-1.6c0.2-0.5,0.4-1.1,0.6-1.6c0.3-0.9,0.6-1.8,0.7-2.7c0.1-0.4,0.2-0.8,0.2-1.1s0-0.6,0.1-0.9
		C307.3,209.5,307.4,209,307.4,209c0,0,0,0.5-0.1,1.6c0,0.3,0,0.6,0,0.9s-0.1,0.7-0.2,1.1c-0.1,0.9-0.4,1.8-0.7,2.7
		c-0.2,0.5-0.3,1-0.6,1.6l-0.8,1.7c-0.3,0.6-0.6,1.2-1,1.8c-0.4,0.6-0.8,1.3-1.2,1.9c-2.1,2.8-4.6,5.4-7.4,7.6
		c-6.1,5.1-14.8,9.9-25.4,14c-12,4.6-24.4,8.1-37,10.4c-15.3,2.9-30.8,4.7-46.3,5.4c-17.8,0.9-35.7,0.5-53.5-1.1
		c-9.4-0.9-19-2.2-28.7-4c-9.9-1.8-19.7-4.3-29.3-7.3c-9.7-3.2-19.5-7.1-28.5-12.9c-4.6-2.8-8.7-6.3-12.2-10.4
		c-1.7-2.1-3.2-4.4-4.3-6.9c-1.1-2.5-1.6-5.3-1.7-8c0.1-2.7,0.7-5.5,1.7-8c1.1-2.5,2.6-4.8,4.3-6.9c3.5-4.1,7.6-7.6,12.2-10.4
		c9-5.7,18.8-9.7,28.5-12.9c9.6-3.1,19.4-5.5,29.3-7.3c9.7-1.8,19.3-3.1,28.7-4c17.8-1.6,35.6-2,53.5-1.1c15.5,0.7,31,2.6,46.3,5.5
		c12.6,2.3,25,5.8,37,10.4c10.5,4.1,19.2,8.9,25.4,14c2.8,2.2,5.2,4.8,7.4,7.6c0.4,0.6,0.9,1.2,1.2,1.9c0.4,0.6,0.7,1.2,1,1.8
		l0.8,1.7c0.2,0.5,0.4,1.1,0.6,1.6c0.3,0.9,0.5,1.8,0.7,2.7c0.1,0.4,0.2,0.7,0.2,1.1s0,0.6,0,0.9C307.4,208.4,307.4,209,307.4,209z"
		/>
	<path class="st3" d="M256.5,93.6c0,0-0.5-0.3-1.4-0.9l-0.8-0.5c-0.3-0.2-0.6-0.3-1-0.5c-0.8-0.4-1.7-0.8-2.5-1.1
		c-0.5-0.2-1-0.3-1.6-0.5l-1.8-0.4c-0.7-0.1-1.3-0.2-2-0.3c-0.7-0.1-1.5-0.1-2.2-0.2c-3.5,0-7,0.4-10.5,1.2
		c-7.8,1.7-16.8,5.7-26.5,11.5c-10.9,6.7-21.2,14.4-30.8,22.9c-11.6,10.3-22.5,21.4-32.6,33.3c-11.6,13.5-22.2,27.9-31.8,42.9
		c-5,7.9-9.9,16.3-14.4,25.1c-4.6,8.9-8.7,18.1-12.1,27.6c-3.4,9.6-6.3,19.7-7.2,30.2c-0.6,5.3-0.3,10.6,0.7,15.8
		c0.6,2.6,1.5,5.1,2.7,7.5c1.3,2.3,3.1,4.4,5.1,6.1c2.1,1.6,4.6,2.8,7.2,3.5c2.6,0.6,5.3,0.9,7.9,0.8c5.3-0.3,10.5-1.4,15.5-3.2
		c10-3.5,19-8.8,27.5-14.5c8.3-5.7,16.2-11.9,23.7-18.6c7.4-6.5,14.2-13.3,20.7-20.2c12.2-13,23.4-26.9,33.6-41.5
		c9-12.7,17-26,24.1-39.8c5.9-11.4,10.8-23.3,14.5-35.5c3.2-10.8,4.8-20.6,4.5-28.5c0-3.5-0.5-7-1.4-10.4c-0.2-0.8-0.5-1.4-0.7-2.1
		c-0.2-0.6-0.5-1.3-0.8-1.9l-0.8-1.7c-0.3-0.5-0.6-1-0.9-1.4c-0.5-0.8-1-1.5-1.7-2.2c-0.3-0.3-0.5-0.6-0.7-0.8l-0.7-0.6
		C256.9,93.9,256.5,93.6,256.5,93.6c0,0,0.4,0.3,1.2,1.1l0.7,0.6c0.2,0.2,0.5,0.5,0.7,0.8c0.6,0.7,1.2,1.4,1.7,2.2
		c0.3,0.4,0.6,0.9,0.9,1.4s0.5,1.1,0.8,1.7c0.3,0.6,0.6,1.2,0.8,1.9c0.2,0.7,0.5,1.3,0.7,2.1c0.9,3.4,1.5,6.9,1.5,10.5
		c0.3,8-1.3,17.8-4.5,28.6c-3.7,12.3-8.6,24.2-14.5,35.6c-7.1,13.9-15.1,27.2-24.1,39.9c-10.2,14.6-21.5,28.5-33.6,41.6
		c-6.4,6.9-13.3,13.7-20.7,20.2c-7.5,6.7-15.4,13-23.7,18.7c-8.5,5.7-17.6,11-27.6,14.6c-5,1.9-10.3,3-15.7,3.3
		c-2.7,0.1-5.4-0.2-8.1-0.8c-5.4-1.3-10-4.9-12.7-9.8c-1.3-2.4-2.2-5-2.8-7.6c-1-5.3-1.3-10.7-0.7-16c1-10.6,3.8-20.7,7.3-30.4
		c3.4-9.5,7.5-18.7,12.2-27.6c4.5-8.8,9.4-17.1,14.4-25.1c9.6-15,20.3-29.4,31.9-42.9c10.1-11.8,21-23,32.6-33.3
		c9.6-8.6,19.9-16.2,30.9-22.9c9.7-5.8,18.8-9.7,26.6-11.4c3.4-0.8,7-1.2,10.5-1.2c0.7,0,1.5,0.1,2.2,0.2c0.7,0,1.3,0.1,2,0.3
		l1.8,0.4c0.6,0.2,1.1,0.4,1.6,0.5c0.9,0.3,1.7,0.7,2.5,1.1c0.4,0.2,0.7,0.3,1,0.5l0.8,0.5L256.5,93.6z"/>
	<circle class="st3" cx="23.7" cy="270.1" r="5.2"/>
	<path class="st3" d="M319.1,106.2c0,2.9-2.3,5.2-5.2,5.2s-5.2-2.3-5.2-5.2c0-2.9,2.3-5.2,5.2-5.2c0,0,0,0,0,0
		C316.8,101,319.1,103.3,319.1,106.2z"/>
	<circle class="st3" cx="58.7" cy="283.4" r="1.3"/>
	<path class="st3" d="M88.1,138.5c0,0.7-0.6,1.3-1.3,1.3s-1.3-0.6-1.3-1.3s0.6-1.3,1.3-1.3c0,0,0,0,0,0
		C87.5,137.2,88.1,137.8,88.1,138.5z"/>
	<path class="st3" d="M293.2,209c0,0.7-0.6,1.3-1.3,1.3c-0.7,0-1.3-0.6-1.3-1.3c0-0.7,0.6-1.3,1.3-1.3c0,0,0,0,0,0
		C292.6,207.7,293.2,208.3,293.2,209C293.2,209,293.2,209,293.2,209z"/>
	<path class="st3" d="M311.4,147.7c0,0.7-0.6,1.3-1.3,1.3c-0.7,0-1.3-0.6-1.3-1.3s0.6-1.3,1.3-1.3c0,0,0,0,0,0
		C310.8,146.4,311.4,146.9,311.4,147.7z"/>
	<ellipse class="st5" cx="174.5" cy="192.9" rx="82.4" ry="83"/>
	<g class="st6">
		<path d="M144,229.9c0.4-3.6,3.2-7.3,1.6-10.5c-1.8-3.6-7.1-3-10.8-4.7c-5.2-2.3-6.8-8.7-10.2-13.3c-3-4.1-10.1-8.5-15.5-7.3
			c-3.9,0.9-5.3,3.2-5.7,6.1l-0.5-0.1c-1.4-0.2-3.2-0.2-3.9-1.4c-0.9-1.4,0-3.5-1-4.8c-0.6-0.6-1.3-1.1-2-1.5
			c-0.7-0.5-1.3-1.4-0.9-2.2s1.3-0.8,1.7-1.4c0.4-0.5,0.4-1.1,0-1.6c-1.5-1.8-3.1,1.8-4,2.7c-0.2,0.2-0.4,0.4-0.7,0.6l0,0
			c0,0.2,0,0.3,0,0.5c0,0.5,0,1,0,1.5s0,1,0,1.5s0,0.8,0,1.2s0,0.8,0,1.2c0.9,0.3,1.7,0.8,2.5,1.3c1.6,0.9,3.4,2.1,3.5,4
			c0,0.3,0,0.6,0.2,0.9c0.2,0.2,0.5,0.4,0.8,0.4c1.4,0.3,2.8,0.5,4.2,0.6c0,1.7,0.1,3.4,0.1,5c0,2.4-0.8,4.8-0.6,7.1
			c0.4,3.3,2.7,6.1,4.7,8.8c7.7,10.3,11.8,22.1,16.3,34.1l0,0c0.8,0.7,2,1.6,2.9,2.2c0.7,0.5,1.3,0.9,2,1.4s1.3,0.9,2,1.3
			c0.5,0.3,0.6,0.4,1.1,0.7c-0.1-0.1,0.1,0.1,0,0c-1.8-4-1.8-9.5,2.1-11.5c0.8-0.3,1.5-0.7,2.2-1.2c1.7-1.6,0.3-5,2-6.7
			c1-0.9,2.5-0.9,3.7-1.4c2.2-1,2.9-3.8,2.7-6.2S143.7,232.3,144,229.9z"/>
	</g>
	<g class="st6">
		<path d="M97.2,169.2c1.5-1.3,4.2-1.5,5.4,0.2c0.8,1.2,0.7,2.8,0.4,4.2c-0.3,1.9-0.6,3.9-0.9,5.8c-0.1,0.6-0.1,1.2,0.1,1.7
			c0.6,1.2,2.6,1,3.4-0.1c0.7-1.2,0.8-2.6,0.5-3.9c-0.4-1.3-0.4-2.7,0-4c1.3-3.1,5.9-2.6,8.6-4.6c1.7-1.3,2.4-3.4,3.4-5.2
			s2.7-3.7,4.7-3.6c0.7,0,1.4,0.3,2.1,0.3c1.5-0.2,2.6-1.6,2.4-3.2c-0.1-0.5-0.3-1-0.6-1.4c-0.3-0.3-0.6-0.6-0.9-0.9
			c-0.3-0.7,0-1.6,0.7-2c0.7-0.4,1.4-0.7,2.2-0.7l5.3-0.8c1.9-0.3,4.4-1.3,4.2-3.2c-0.2-1.7-2.5-2.4-2.9-4.1c0-0.4-0.1-0.8-0.2-1.2
			c-0.5-1.1-2.1-0.6-3.2-0.1c-0.5-1.3-1.9-2-3.2-1.6c-0.2,0.1-0.4,0.2-0.6,0.3c-1,0.9-1.2,2.4-1.5,3.7c-0.9,3.1-3.3,5.5-5.7,7.7
			c-0.7,0.8-1.7,1.4-2.8,1.6c-1.1,0-2.2-1.1-1.7-2.1c0.3-0.6,1.3-1,1.2-1.8c-0.1-0.9-1.7-0.9-2-1.7c0.6-2.6,3.6-3.6,5.9-5
			c2.8-1.7,4.9-4.3,6-7.4c0.2-0.5,0.3-1,0.1-1.5c-0.3-0.6-1.2-0.8-2-0.8c-1.8,0-3.9,0.2-4.6,1.8c-0.3,0.9-0.1,1.9-0.3,2.8
			c-0.6,2.7-4.3,3-6.6,4.6c-0.8,0.7-1.6,1.4-2.6,2c-1.1,0.4-2.3,0.6-3.5,0.6c-0.2,0-0.7,0-0.9,0c-0.7,1-1.3,1.9-2,2.9
			s-1.3,2.2-2,3.2c-2.9,5.1-5.2,10.4-7,16c-0.6,2-1.2,4.1-1.7,6.1s-0.8,3.9-1.2,6c0.7-1.7,1.2-3.4,1.5-5.2
			C95.1,172.6,95.7,170.5,97.2,169.2z"/>
	</g>
	<g class="st6">
		<path d="M166.5,131.9c0.8-1,0.6-2.5,1.1-3.7c0.8-2,3.4-2.7,4.4-4.6c0.3-0.7,0.4-1.7,1-2.2s1.2-0.6,1.8-1c1.2-0.9,0.7-3-0.6-3.9
			c-3.2-2.1-9.2,0.3-12,2.3c-3.6,2.6-7.1,5.7-11.9,5.4c-1.3-0.1-2.7-0.4-3.9,0s-2,2.3-0.9,3.1c0.6,0.4,1.4,0.3,2.1,0.6
			c1.2,0.6,1.4,2.4,0.8,3.6s-1.7,2.1-2.4,3.3c-0.7,1.1-1,2.5-0.9,3.8c0,0.9,0.4,1.8,1.1,2.4c1.5,1.2,3.8,0.2,5-1.2s2.1-3.3,3.8-4.2
			c0.8-0.4,1.7-0.8,2.7-0.9l6.2-1.5C164.8,133.1,165.7,132.6,166.5,131.9z"/>
	</g>
	<g class="st6">
		<path d="M256.9,192.3c0-1.2,0-2.4-0.1-3.5s-0.1-2.4-0.2-3.5c-0.1-0.9-0.2-1.9-0.3-2.8s-0.3-2.1-0.4-3.1c-0.4-2.8-1.1-5.6-1.8-8.3
			c-0.3-1.1-0.8-2.2-1.2-3.3s-0.7-2.1-1.1-3.2l0,0c-0.4-0.8-0.9-1.6-1.3-2.3c-4.6-7.2-11.2-12.9-16.3-19.9c-1.6-2.2-2.9-4.1-5.8-4.6
			c-4.3-0.7-6.5,1.8-9.5-2.3c-0.8-1.1-2.3-2.1-3.5-1.5c0.3,0.9,0.6,1.8,0.9,2.6c0.1,0.2,0.1,0.4,0.1,0.6c-0.1,0.6-1,0.8-1.5,0.4
			c-0.5-0.4-0.9-0.9-1.1-1.5c-1.4-1.8-4.1-2.2-5.9-0.7c-0.1,0.1-0.2,0.1-0.3,0.2c-0.1-0.8-0.6-1.6-1.4-1.9c-0.2,1.5-1.7,2.6-3.2,2.4
			c-0.1,0-0.2,0-0.3-0.1c-0.2-0.8,1.2-0.9,1.7-1.6s-0.1-1.5-0.7-2.1c-1.6-1.4-3.6-2.1-5.7-2.2c-1.3,0-2.7,0.2-3.9-0.4
			c-0.7-0.4-1.1-1.1-1.8-1.4c-1.4-0.8-3.3-0.1-4.7,0.7c-2,1.1-4,2.5-4.8,4.7s0.9,5.1,3.1,4.8c0.6-0.2,1.2-0.2,1.7-0.2
			c0.8,0.4,1.3,1.1,1.2,2c-0.1,0.8,0.1,1.7,0.4,2.4c0.4,0.7,1.6,1.1,2,0.4c1.1-1,0.9-2.7,0.7-4.2s-0.6-3.1,0.3-4.3s3.4-0.8,3.2,0.6
			c-0.1,0.9-1.1,1.5-1,2.4s1.1,1.4,2,1.3c0.9-0.2,1.8-0.2,2.6-0.1c0.9,0.2,1.6,1.3,0.9,2c-1.1,1.2-3.9-0.9-4.4,0.6
			c-0.2,0.4,0,0.8,0,1.2c-0.1,1.3-1.7,1.8-3,1.9c-1.3,0.3-2.6,0.2-3.8-0.3c-1.2-0.5-2-2.1-1.3-3.2c-0.7-0.4-1.6-0.1-2,0.6
			c0,0,0,0.1,0,0.1c-0.3,0.8-0.3,1.6-0.1,2.4c-1.4-0.3-2.6,0.9-3.3,2s-1.5,2.5-2.8,2.9s-3.2-0.1-3.9,1.1c-0.9,1.6,1.7,3.6,0.8,5.1
			c-0.5,0.9-1.8,0.9-2.8,1.1c-2.6,0.7-3.5,4.6-1.8,6.6s5.4,1.9,7.2,0c1.3-1.4,1.9-3.2,2.8-4.9s2.8-3.1,4.6-2.6
			c0.7,0.2,1.3,0.6,1.8,1.1l2.6,2.2c0.6,0.5,1.2,1.1,1.1,1.8c-0.1,0.6-0.5,1-0.7,1.6c-0.6,1.6,1.7,3.1,3.2,2.2s1.6-3.1,0.6-4.4
			c-1.4-1.9-4.4-2.8-4.3-5.1c1.6-1.3,4,0.1,4.9,1.9s0.9,3.9,1.7,5.8s2.9,3.5,4.7,2.6c-0.5-1.6-0.9-3.2-1.4-4.8
			c1.1-0.9,2.5,1.6,3.8,1.2c0.8-0.3,0.9-1.5,0.6-2.3c-0.5-0.7-0.9-1.5-1.2-2.4c-0.3-1.6,1.5-3,3.1-2.8c1.6,0.4,2.8,1.7,3,3.4
			c0.1,0.6,0.2,1.3,0.4,1.9c0.6,1.2,2.1,1.6,3.4,2.1s2.6,1.8,2.1,3.1c-0.2,0.6-0.8,1.1-0.6,1.7s0.9,0.7,0.9,1.3
			c0,0.4-0.4,0.6-0.7,0.8c-0.9,0.4-1.8,0.5-2.6,0.9c-0.9,0.3-1.5,1.2-1.5,2.1c0.1,1.3,1.6,1.9,2.4,3s0.6,2.4,1.1,3.6
			c0.5,1,1.2,2,2,2.9c2.2,2.9,2.7,6.7,3.7,10.2c0.5,1.6,1.3,3.3,2.9,3.6c0.9,0.1,1.8-0.1,2.6-0.5c2.3-0.9,4.8-1.9,6.4-3.8
			s2.2-5,0.5-6.9c-0.2-0.3-0.5-0.4-0.8-0.5c-0.4,0-0.9,0.2-1.2,0.4c-1.3,0.5-2.7,0.2-3.6-0.8c-0.9-0.9-1.7-2-2.2-3.2
			c-0.6-1.3-1.3-2.6-1.9-3.9c0.9-0.6,2-0.5,2.8,0.3c0.7,0.7,1.4,1.5,1.9,2.4c1.9,2.4,5.1,3.5,8.2,3.9c0.8,0,1.6,0.2,2.3,0.5
			c2.3,1.1,3,4.5,5.4,5.2c0.7,0.1,1.4,0.3,2.1,0.5c0.9,0.6,1.5,1.5,1.7,2.6c0.4,2,0.9,3.9,1.5,5.8c0.8,1.8,2.4,3.5,4.4,3.5
			c1.2,0,2.4-0.5,3.3-1.4c0.1-1.8,0.2-3.7,0.2-5.5C257,193.1,257,192.7,256.9,192.3z"/>
	</g>
	<g class="st6">
		<path d="M223.6,226.5c-1.2,0.2-1.5,1-2.1,1.9c-0.9,1.2-2.1,2.4-2.9,3.5c-1.3,2-0.1,5.1-1.9,6.7c-0.4,0.3-0.8,0.6-1.1,0.9
			c-0.7,0.9-0.5,2.2,0.4,2.9c0.9,0.6,2.1,0.6,3.1,0.1c0.9-0.6,1.6-1.5,1.9-2.6c0.1-0.8,0.5-1.5,1-2.1c1-0.9,2.6-0.2,3.9-0.4
			C231.4,236.6,228.9,225.4,223.6,226.5z"/>
	</g>
	<g class="st6">
		<path d="M225.5,210.9c3.2-2.8,4.6-9.2,0.5-10.6c-1.5-0.6-3.3-0.1-4.8-0.7c-2-0.8-2.9-3-3.6-5c-1.9-5.2-3.8-10.5-5.6-15.7
			c-1.1-3.2-2.9-6.8-6.2-7.3c-1.9-0.3-3.7,0.6-5.6,1c-6.4,1.2-17.3-14.4-22.2-3.9c-0.7-2.9-5.3-1.8-6.8,0.8s-1.8,5.9-4.1,7.6
			c-1.8,1.3-4.4,1.4-5.9,3.1c-1,1.2-1.2,2.9-1.3,4.4c-0.2,3-0.5,6-0.7,9c-0.2,2.4-0.4,5,0.8,7.1s4.3,3.3,6.1,1.6
			c0.7-0.9,1.3-1.8,1.8-2.8c1.1-1.5,3-2.1,4.8-1.7c1.4,0.5,2.7,1.4,3.7,2.6c8.4,9,11.4,21.9,11.8,34.2c-0.1,2.3,0.2,4.5,0.9,6.7
			c1,2.4,3,4.4,3.6,7c0.5,2,0,4.1,0.9,6c1.6,3.4,6.8,3.5,9.6,1.1s3.8-6.4,4.4-10s0.9-7.6,3-10.7c1.3-1.9,3.2-3.5,4.1-5.6
			c1.2-3,0.3-6.5,1.5-9.6C217.7,215.5,222.2,213.8,225.5,210.9z"/>
	</g>
	<path class="st2" d="M256.9,193c0,0,0-0.5-0.1-1.3s0-2.2-0.2-3.9c-0.3-5-1.1-10-2.3-14.9c-0.9-3.5-2-7-3.4-10.4
		c-1.6-4-3.5-7.9-5.7-11.7c-5.4-9.1-12.4-17.1-20.8-23.6c-10.2-7.8-22-13.2-34.6-15.6c-7-1.3-14.2-1.7-21.3-1.2
		c-3.7,0.3-7.4,0.8-11,1.6c-3.7,0.8-7.4,1.9-11,3.2c-15.3,5.7-28.6,15.8-38.1,29c-2.5,3.4-4.8,7-6.7,10.8c-1,1.9-1.9,3.9-2.7,5.8
		s-1.6,4-2.2,6.1c-1.4,4.2-2.4,8.4-3.1,12.8c-0.7,4.4-1,8.8-1.1,13.3c0,4.4,0.4,8.9,1.1,13.3c0.7,4.3,1.7,8.6,3.1,12.7
		c0.7,2.1,1.5,4.1,2.2,6.1s1.7,4,2.7,5.8c1.9,3.8,4.2,7.4,6.7,10.9c9.6,13.2,22.8,23.3,38.1,29c3.6,1.3,7.3,2.4,11,3.2
		c3.6,0.8,7.3,1.3,11.1,1.6c7.1,0.5,14.3,0.1,21.3-1.2c12.6-2.4,24.5-7.7,34.6-15.6c8.4-6.5,15.4-14.5,20.8-23.6
		c2.2-3.7,4.1-7.6,5.7-11.7c1.3-3.4,2.5-6.9,3.4-10.4c1.2-4.9,2-9.9,2.3-14.9c0.1-1.7,0.1-3.1,0.2-3.9S256.8,193,256.9,193
		c0,0,0,0.4,0,1.3s0,2.2-0.1,3.9c-0.3,5.1-1,10.1-2.2,15c-0.9,3.5-2,7-3.3,10.4c-1.6,4.1-3.5,8-5.7,11.7
		c-5.4,9.2-12.5,17.2-20.9,23.7c-16,12.4-36,18.4-56.2,16.9c-3.7-0.3-7.4-0.8-11.1-1.6c-3.8-0.8-7.5-1.9-11.1-3.2
		c-15.4-5.7-28.8-15.8-38.4-29.1c-2.5-3.5-4.8-7.1-6.7-10.9c-1-1.9-1.9-3.9-2.8-5.9s-1.6-4.1-2.3-6.1c-1.4-4.2-2.4-8.5-3.2-12.8
		c-1.4-8.8-1.4-17.9,0-26.7c0.7-4.4,1.7-8.7,3.1-12.8c0.7-2.1,1.5-4.1,2.3-6.1s1.7-4,2.8-5.9c1.9-3.8,4.2-7.5,6.7-10.9
		c9.6-13.3,23-23.4,38.4-29.1c3.6-1.3,7.3-2.4,11.1-3.2c10.7-2.3,21.7-2.4,32.5-0.3c12.7,2.4,24.6,7.8,34.8,15.7
		c8.4,6.5,15.5,14.6,20.9,23.7c2.2,3.7,4.1,7.7,5.7,11.7c3.2,8.1,5.1,16.7,5.6,25.4c0.1,1.7,0.1,3.1,0.1,3.9S256.9,193,256.9,193z"
		/>
	<path class="st2" d="M177.7,276.1c-0.1,0-0.3-36.8-0.3-82.3s0.1-82.3,0.3-82.3s0.3,36.8,0.3,82.3S177.8,276.1,177.7,276.1z"/>
	<path class="st2" d="M182.4,275.6l0.4-0.3l1.2-0.8c1.1-0.7,2.6-1.8,4.6-3.3c5.5-4.3,10.4-9.3,14.7-14.8c6.4-8.1,11.5-17.2,15-26.9
		c4.2-11.9,6.4-24.5,6.6-37.2c0.3-13.4-1.1-26.3-4.2-37.6c-2.7-10-7.4-19.3-13.8-27.4c-2.5-3.1-5.3-5.9-8.5-8.3
		c-2.4-1.8-5-3.4-7.6-4.7c-1.7-0.8-3.5-1.5-5.2-2.1l-1.4-0.5l-0.5-0.2l0.5,0.1l1.4,0.4c1.8,0.6,3.6,1.3,5.3,2.1
		c2.7,1.3,5.3,2.8,7.7,4.6c3.2,2.4,6.1,5.2,8.6,8.3c6.5,8.1,11.3,17.5,14,27.5c3.2,11.3,4.5,24.2,4.3,37.7
		c-0.2,12.7-2.5,25.3-6.7,37.3c-3.6,9.8-8.7,18.9-15.2,27c-4.3,5.5-9.3,10.4-14.9,14.7c-2,1.5-3.6,2.6-4.7,3.3l-1.2,0.8
		C182.6,275.5,182.4,275.6,182.4,275.6z"/>
	<path class="st2" d="M174.8,275.9l-0.4-0.3l-1.3-0.8c-1.1-0.7-2.7-1.8-4.8-3.3c-9.6-7.3-17.8-16.2-24.4-26.4
		c-3.1-4.8-5.6-9.8-7.6-15.1c-2.2-5.8-3.9-11.9-5-18c-1.2-6.6-1.9-13.3-2-20c-0.3-13.8,1.1-26.9,4.4-38.4c1.6-5.4,3.7-10.6,6.4-15.6
		c2.3-4.3,5.2-8.4,8.6-11.9c5-5.1,10.9-9.2,17.5-12c1.8-0.8,3.6-1.4,5.4-2l1.4-0.4c0.2-0.1,0.3-0.1,0.5-0.1c0,0-0.2,0.1-0.5,0.2
		l-1.4,0.5c-1.2,0.4-3.1,1.1-5.4,2.1c-6.5,2.9-12.4,7-17.3,12.1c-3.4,3.6-6.2,7.5-8.5,11.9c-2.6,5-4.8,10.2-6.3,15.6
		c-3.3,11.3-4.7,24.5-4.4,38.1c0.2,6.7,0.8,13.3,2,19.9c1.1,6.1,2.8,12.1,4.9,17.9c1.9,5.3,4.4,10.3,7.5,15.1
		c6.4,10.1,14.6,19.1,24.1,26.5c2,1.5,3.6,2.7,4.7,3.4l1.2,0.9C174.7,275.8,174.8,275.9,174.8,275.9z"/>
	<path class="st2" d="M257,191.6c0,0.1-36.7,0.3-81.9,0.3s-81.9-0.1-81.9-0.3s36.7-0.3,81.9-0.3S257,191.4,257,191.6z"/>
	<path class="st2" d="M244.3,149.3c0,0.1-31.3,0.3-69.9,0.3s-69.9-0.1-69.9-0.3s31.3-0.3,69.9-0.3S244.3,149.1,244.3,149.3z"/>
	<path class="st2" d="M245.2,234.6c0,0.1-32,0.3-71.5,0.3s-71.5-0.1-71.5-0.3s32-0.3,71.5-0.3S245.2,234.5,245.2,234.6z"/>
	<path class="st4" d="M225.3,222.5h-103c-14.6,0-26.4-11.8-26.5-26.4c0,0,0-0.1,0-0.1l0,0c0-14.6,11.8-26.4,26.4-26.4h103
		c14.6,0,26.4,11.8,26.5,26.4c0,0,0,0,0,0l0,0C251.7,210.6,239.9,222.4,225.3,222.5C225.3,222.5,225.3,222.5,225.3,222.5z"/>
	<path class="st2" d="M225.3,222.5c0,0,0.3,0,1-0.1c0.9,0,1.9-0.1,2.8-0.3c3.6-0.5,7-1.8,10.1-3.7c1-0.7,2-1.4,3-2.2l1.5-1.4
		c0.5-0.4,0.9-1,1.4-1.5c4.4-5,6.7-11.6,6.5-18.3c-0.3-8.5-4.7-16.4-11.9-21c-1-0.6-2-1.2-3-1.7c-1.1-0.5-2.1-1-3.3-1.3
		c-2.3-0.7-4.7-1.1-7.1-1.2c-9.9-0.1-20.5,0-31.6,0h-72.4c-14.5,0-26.2,11.8-26.2,26.3c0,1.6,0.2,3.3,0.5,4.9c0.6,2.9,1.6,5.6,3,8.1
		c2.9,4.9,7.2,8.8,12.4,11c2.5,1,5.2,1.7,7.9,2c2.7,0.2,5.4,0.1,8,0.1h15.3h27.5l39.9,0.1h10.8h2.8h1c0,0-0.3,0-1,0h-2.8h-10.8
		l-39.9,0.1h-27.5h-15.3c-2.6,0-5.3,0.1-8-0.1c-2.8-0.3-5.4-0.9-8-2c-5.3-2.3-9.8-6.2-12.7-11.2c-1.5-2.6-2.5-5.4-3.1-8.3
		c-0.6-3-0.6-6-0.2-9c2-13,13.2-22.6,26.3-22.6h72.4c11.1,0,21.7,0,31.6,0.1c2.5,0.1,4.9,0.5,7.2,1.3c1.1,0.4,2.2,0.8,3.3,1.3
		c1.1,0.5,2.1,1.1,3.1,1.7c7.2,4.7,11.7,12.7,12,21.3c0.1,3.6-0.5,7.2-1.8,10.6c-1.1,2.9-2.8,5.6-4.9,8c-0.5,0.5-0.9,1.1-1.4,1.5
		l-1.5,1.4c-1,0.8-2,1.5-3.1,2.2c-3.1,1.9-6.6,3.2-10.2,3.6c-0.9,0.1-1.9,0.2-2.8,0.2L225.3,222.5z"/>
	<path class="st2" d="M157.7,183.2l-8.1,22.9h-7.8l-4.3-12.4l-4.4,12.4h-7.8l-8.1-22.9h7.6l4.7,13.8l4.9-13.8h6.8l4.7,14l4.9-14
		H157.7z"/>
	<path class="st2" d="M197.3,183.2l-8.1,22.9h-7.8l-4.3-12.4l-4.5,12.4h-7.8l-8.1-22.9h7.6l4.7,13.8l4.9-13.8h6.8l4.7,14l4.9-14
		H197.3z"/>
	<path class="st2" d="M236.9,183.2l-8.1,22.9H221l-4.3-12.4l-4.5,12.4h-7.8l-8.1-22.9h7.6l4.7,13.8l4.9-13.8h6.8l4.7,14l4.9-14
		H236.9z"/>
	<path class="st2" d="M131.4,247l-35.7,10.3c-1,0.3-1.6,1.4-1.3,2.4c0.1,0.3,0.3,0.6,0.5,0.9l24.4,23.5c0.8,0.7,2,0.7,2.7,0
		c0.2-0.2,0.4-0.5,0.4-0.7l11.3-33.9c0.3-1-0.3-2.1-1.3-2.4C132.2,246.9,131.8,246.9,131.4,247z"/>
	<polygon class="st2" points="81.9,285.6 107.1,262.3 117.1,272 92.1,296 	"/>
	<path class="st2" d="M376.2,63.5c0,0.2-83.7,0.3-187,0.3s-187-0.1-187-0.3s83.7-0.3,187-0.3S376.2,63.4,376.2,63.5z"/>
	<path class="st2" d="M20.9,47.2c-1.8,2-3.7,3.9-5.7,5.6c-1.9,1.9-3.9,3.6-6.1,5.2c1.8-2,3.7-3.9,5.7-5.6
		C16.7,50.6,18.7,48.9,20.9,47.2z"/>
	<path class="st2" d="M20.4,58.6c-2-1.8-3.9-3.7-5.6-5.7c-1.9-1.9-3.6-4-5.2-6.1c2,1.8,3.9,3.7,5.6,5.7C17,54.4,18.8,56.5,20.4,58.6
		z"/>
	<path class="st2" d="M41.6,58.4c0,0,0-0.3,0-0.9s0-1.4-0.1-2.3c0-2-0.1-4.8-0.1-8.1l0.2,0.2H30.3c-0.1,0,0.5-0.5,0.3-0.3l0,0v3
		c0,1,0,2,0,2.9c0,1.9,0,3.7,0,5.4L30.4,58c3.4,0,6.2,0.1,8.2,0.1l2.3,0.1c0.3,0,0.6,0,0.9,0c-0.3,0-0.5,0-0.8,0l-2.3,0.1
		c-2,0-4.8,0.1-8.3,0.1h-0.2v-0.2c0-1.7,0-3.5,0-5.4c0-1,0-1.9,0-2.9V47l0,0l0.3-0.3h11.3H42V47c0,3.5-0.1,6.3-0.1,8.3
		c0,0.9,0,1.7,0,2.3C41.8,57.8,41.7,58.1,41.6,58.4z"/>
	<path class="st2" d="M62.8,57.3c-2,0.3-4.1,0.3-6.1,0.3c-2,0.1-4.1,0-6.1-0.3c2-0.3,4.1-0.3,6.1-0.3C58.8,57,60.8,57.1,62.8,57.3z"
		/>
	<path class="st2" d="M134.8,78h2.3v9.8h-2.3V78z"/>
	<path class="st2" d="M147,83.5v4.3h-2.2v-4c0-1.2-0.6-1.8-1.5-1.8s-1.8,0.7-1.8,2v3.7h-2.2v-7.5h2.1v0.9c0.6-0.7,1.6-1,2.5-1
		C145.6,80.2,147,81.2,147,83.5z"/>
	<path class="st2" d="M153.8,87.4c-0.5,0.3-1.2,0.5-1.8,0.5c-1.4,0.2-2.6-0.8-2.8-2.1c0-0.2,0-0.4,0-0.6v-3.1H148v-1.7h1.2v-1.8h2.2
		v1.8h1.9v1.7h-1.9v3.1c-0.1,0.5,0.3,0.9,0.7,1c0.1,0,0.1,0,0.2,0c0.3,0,0.6-0.1,0.9-0.3L153.8,87.4z"/>
	<path class="st2" d="M162.1,84.7h-5.7c0.2,1,1.2,1.6,2.2,1.5c0.7,0,1.4-0.2,1.9-0.7l1.2,1.3c-0.8,0.8-2,1.3-3.1,1.2
		c-2.6,0-4.3-1.6-4.3-3.9c0-2.1,1.7-3.9,3.8-3.9c0.1,0,0.1,0,0.2,0c2.1-0.1,3.8,1.5,3.9,3.5c0,0.1,0,0.2,0,0.4
		C162.2,84.2,162.2,84.5,162.1,84.7z M156.4,83.4h3.7c-0.2-1-1.2-1.7-2.2-1.5C157.2,82,156.6,82.6,156.4,83.4z"/>
	<path class="st2" d="M168.3,80.2v2c-0.2,0-0.3,0-0.5,0c-1-0.1-1.9,0.7-2,1.7c0,0.1,0,0.3,0,0.4v3.6h-2.2v-7.6h2.1v1
		C166.4,80.5,167.3,80.1,168.3,80.2z"/>
	<path class="st2" d="M177.4,83.5v4.3h-2.2v-4c0-1.2-0.6-1.8-1.5-1.8s-1.8,0.7-1.8,2v3.7h-2.2v-7.5h2.1v0.9c0.6-0.7,1.6-1,2.5-1
		C176,80.2,177.4,81.2,177.4,83.5z"/>
	<path class="st2" d="M186.8,84.7H181c0.2,1,1.2,1.6,2.2,1.5c0.7,0,1.4-0.2,1.9-0.7l1.2,1.3c-0.8,0.8-1.9,1.3-3.1,1.2
		c-2.6,0-4.3-1.6-4.3-3.9c0-2.1,1.7-3.9,3.8-3.9c0.1,0,0.1,0,0.2,0c2.1-0.1,3.8,1.5,3.9,3.5c0,0.1,0,0.3,0,0.4
		C186.8,84.2,186.8,84.5,186.8,84.7z M181,83.4h3.7c-0.2-1-1.1-1.7-2.2-1.5C181.8,82,181.1,82.6,181,83.4z"/>
	<path class="st2" d="M193.1,87.4c-0.5,0.3-1.2,0.5-1.8,0.5c-1.4,0.2-2.6-0.8-2.8-2.1c0-0.2,0-0.4,0-0.6v-3.1h-1.2v-1.7h1.2v-1.8
		h2.2v1.8h1.9v1.7h-1.9v3.1c-0.1,0.5,0.3,0.9,0.7,1c0.1,0,0.1,0,0.2,0c0.3,0,0.6-0.1,0.9-0.3L193.1,87.4z"/>
	<path class="st2" d="M198.6,78h4.1c3.1,0,5.3,2,5.3,4.9s-2.1,4.9-5.3,4.9h-4.1V78z M202.7,86.6c2.4,0,4-1.5,4-3.7s-1.6-3.7-4-3.7
		H200v7.4H202.7z"/>
	<path class="st2" d="M215.9,83.3v4.5h-1.3v-1c-0.6,0.8-1.5,1.2-2.4,1.1c-1.7,0-2.8-0.9-2.8-2.2s0.8-2.2,3-2.2h2.1v-0.3
		c0-1.1-0.7-1.8-2-1.8c-0.9,0-1.7,0.3-2.4,0.8l-0.6-1c0.9-0.7,2-1,3.1-1C214.7,80.3,215.9,81.3,215.9,83.3z M214.5,85.5v-1h-2.1
		c-1.3,0-1.7,0.5-1.7,1.2s0.6,1.2,1.6,1.2C213.3,87,214.2,86.4,214.5,85.5z"/>
	<path class="st2" d="M224.8,80.4l-3.6,8.2c-0.7,1.6-1.5,2.1-2.6,2.1c-0.7,0-1.4-0.2-1.9-0.7l0.6-1c0.4,0.4,0.8,0.5,1.3,0.6
		c0.6,0,1.1-0.3,1.4-1.2l0.2-0.5l-3.3-7.4h1.4l2.6,6l2.6-6L224.8,80.4z"/>
	<path class="st7" d="M304,169.9c0,0-12.6,3.4-15,12.9c-3.7,15-15.1,59.3-15.1,59.3l-12,9.7l7.7,12.7c0,0,13.4-4.4,19-11.6
		s11.3-34.1,11.3-34.1L304,169.9z"/>
	<path class="st2" d="M327,102.6c3-3.4,10.5-3.1,12.4-0.9c2.7-1.4,6.1-0.4,7.6,2.3l8,1.6c1.4,0.2,2.7,0.7,3.9,1.5
		c1.2,0.9,1.5,2.5,0.8,3.7c2.8,0.7,4,4.8,2,6.9c1.1,1.2,1.1,3.1-0.1,4.2c-0.1,0.1-0.1,0.1-0.2,0.2c2.3,2.6,4.1,5.6,5.4,8.8
		c0.7,1.3,0.8,2.8,0.5,4.2c-0.5,1.4-2.2,2.3-3.4,1.5c0.8,1.1,0.9,2.6,0.3,3.8c1.4,0,1.8,2.1,0.9,3.1s-2.4,1.1-3.8,1.1
		s-2.8,0-3.9,0.8c0,0.3,0.2,0.6,0.5,0.9c2.4,1.7,3,5.1,1.4,7.6c-0.1,0.2-0.3,0.4-0.4,0.6c-0.8,1.1-2.7,2.2-3.9,2.9
		c-3,1.7-4.9,1.4-8.3,2c1,2.2-4.5,7.2-10.9,2.6c-11.3,3.5-23,5.4-34.9,5.6c-1.9,0-4.1-0.1-5-1.8c-1.6,0.3-3.2-0.2-4.3-1.3
		c-1.1-1.1-2-2.5-2.6-3.9c-3.3-0.9-5.8-3.8-6-7.2c-2.3-1.7-3.7-4.3-4-7.1c-3.1-1-4.8-4.4-3.7-7.5c0-0.1,0.1-0.3,0.2-0.4
		c0.6-3.9,1.8-7.7,3.6-11.2c-2.2-0.4-3-3.3-2.2-5.3s2.8-3.4,4.6-4.6c-1.6,0.5-3-1.5-2.7-3.1s1.8-2.8,3.2-3.7
		c2.1-1.3,4.3-2.4,6.6-3.1c0.7-2.8,4.2-6.2,6.9-7.5C305.7,94.4,313.1,93,327,102.6"/>
	<path class="st8" d="M337.5,119.3c0.1-2.2-1.5-4.2-3.8-4.5l-22.8-6.5c-7.4-1-12.5,7.9-13.2,15.3c-0.8,8.2-1.3,18.2-0.5,24.4
		c0.6,7,5.8,12.7,12.6,14.1l-0.2,8.9l-0.3,10.4c3.5-0.5,26.1-11.3,26.1-11.3L337.5,119.3z"/>
	<path class="st2" d="M309.9,142.2c-0.9-0.3-1.8-0.5-2.8-0.6c-0.4,0-0.8-0.1-0.9-0.4c0-0.5,0.1-0.9,0.3-1.3l1.4-3.3
		c1.9-4.6,3.3-8.5,3.1-8.6s-1.9,3.6-3.8,8.3c-0.5,1.1-0.9,2.2-1.3,3.3c-0.3,0.5-0.4,1.1-0.3,1.7c0.1,0.3,0.4,0.6,0.7,0.6
		c0.2,0.1,0.5,0.1,0.7,0.1C308.1,142.3,309,142.3,309.9,142.2z"/>
	<path class="st9" d="M309.8,162.2c0,0,6.7,0.9,15-3.8c0,0-2.2,9.1-15.1,8.1L309.8,162.2z"/>
	<path class="st2" d="M315.5,123.2c0.1,0.5,1.9,0.3,3.8,0.6s3.6,0.9,3.9,0.5c0.1-0.2-0.1-0.6-0.8-1.1c-0.8-0.6-1.8-0.9-2.8-1.1
		c-1-0.2-2-0.1-3,0.3C315.8,122.6,315.4,122.9,315.5,123.2z"/>
	<path class="st2" d="M300.5,123.2c0.3,0.4,1.5,0,2.9,0s2.6,0.3,2.9-0.1c0.1-0.2,0-0.6-0.6-1c-0.7-0.5-1.5-0.7-2.3-0.7
		c-0.8,0-1.6,0.2-2.3,0.7C300.6,122.6,300.4,123,300.5,123.2z"/>
	<path class="st2" d="M292.3,129.7c0-2,0.7-3.8,2-5.3c0.7-0.8,1.6-1.4,2.2-2.2c1.4-1.8,1.1-4.4,1.7-6.6c0.7-2.9,2.9-5.3,5.7-6.3
		c2.3-0.9,4.9-0.8,7.1-2c1.6-0.9,2.8-2.4,4.4-3.2c3.2-1.5,6.9,0.1,10,1.8c0.6,2.4-0.9,4.5-2.3,6.5c-1.5,2-3.8,3.3-6.3,3.6
		c-1.9,0.2-4.2-0.2-5.5,1.2s-0.8,4-2,5.7c-1.6,2.4-5.5,1.6-7.9,3.1c-1.9,1.2-2.7,3.5-3.6,5.5s-2.6,4.2-4.8,4.1
		C292.5,133.6,292.3,131.6,292.3,129.7z"/>
	<path class="st2" d="M320.6,110.3c5.6-0.2,11.3,0.7,16.5,2.7c1.6,0.5,3.1,1.4,4.1,2.7c0.7,1.3,1,2.8,0.9,4.3
		c0,4.6-1.7,10.3-3.4,14.6l-5.7,3.5c-4.5-1-2.5-8.7-2.4-12.5c-3.2-1.4-5.3-4.5-5.4-7.9C322.6,116.1,320.9,113.4,320.6,110.3z"/>
	<path class="st8" d="M333.1,136.5c0.1-2.6,3.4-3.2,5.7-1.9c1.2,0.7,2.2,2.2,2.1,5c-0.3,7.5-7.8,5.6-7.8,5.4
		S332.9,139.6,333.1,136.5z"/>
	<path class="st9" d="M335.5,142.3c0,0,0.1,0.1,0.4,0.2c0.3,0.2,0.7,0.2,1,0.1c0.8-0.2,1.5-1.5,1.6-2.8c0-0.6-0.1-1.3-0.3-1.9
		c-0.1-0.5-0.5-0.8-0.9-1c-0.3-0.1-0.6,0-0.8,0.3c-0.1,0.2-0.1,0.4-0.1,0.4s-0.1-0.1-0.1-0.4c0-0.2,0.2-0.3,0.3-0.5
		c0.2-0.1,0.5-0.2,0.7-0.2c0.6,0.2,1.1,0.6,1.3,1.2c0.3,0.7,0.4,1.4,0.4,2.1c-0.1,1.5-0.9,2.9-2,3.1c-0.4,0.1-0.9,0-1.2-0.2
		C335.5,142.5,335.5,142.3,335.5,142.3z"/>
	<path class="st7" d="M336.4,145.4c0,0,0,0,0,0.1c0,0.1,0.1,0.2,0.1,0.3c0.2,0.3,0.5,0.6,0.9,0.8c0.6,0.2,1.2,0.4,1.9,0.4
		c0.4,0,0.8,0,1.2-0.1c0.5-0.1,0.9-0.2,1.3-0.4h-0.1c0.3,2,2.3,3.4,4.3,3c0.6-0.1,1.2-0.4,1.7-0.8h-0.1c0.2,0.3,0.6,0.6,1,0.6
		c0.4,0.1,0.8,0,1.2-0.1c0.4-0.2,0.8-0.4,1-0.8c0.2-0.4,0.3-0.8,0.4-1.2c0-0.9-0.3-1.8-0.9-2.5c-0.6-0.7-1.3-1.3-2-1.9v0.2
		c0.6-0.4,1-1.1,1.1-1.8c0.1-0.7,0.1-1.5-0.2-2.2c-0.3-0.7-0.8-1.3-1.3-1.9c-0.6-0.5-1.2-1-1.8-1.5v0.2c0.5-0.6,0.8-1.4,0.7-2.2
		c-0.1-0.8-0.4-1.6-0.9-2.2c-1-1.1-2.3-1.9-3.7-2.5l0.1,0.1c0.6-2.7-1.2-5.4-3.9-5.9c-0.5-0.1-1.1-0.1-1.6-0.1l0.1,0.1
		c0.4-2.4-1.3-4.7-3.7-5.1c-0.2,0-0.4,0-0.5-0.1l0.1,0.1c-0.1-1.3-0.7-2.5-1.8-3.2c-0.9-0.7-2-1-3.1-0.8l0.1,0.1
		c0-0.7-0.3-1.3-0.6-1.9c-0.3-0.5-0.7-1-1.2-1.3c-0.7-0.6-1.6-1-2.6-1.1h-0.3h-0.3c-0.2,0-0.3,0-0.5,0.1c-0.2,0.1-0.5,0.1-0.7,0.2
		l-0.4,0.2l-0.1,0.1c0,0,0,0,0.1,0l0.4-0.2c0.2-0.1,0.5-0.1,0.7-0.2c0.2,0,0.3-0.1,0.5-0.1h0.3h0.3c0.9,0.1,1.8,0.4,2.5,1.1
		c0.4,0.4,0.8,0.8,1.1,1.3c0.4,0.6,0.6,1.2,0.6,1.8v0.1h0.1c2.3-0.3,4.4,1.3,4.6,3.6c0,0.1,0,0.2,0,0.3v0.1h0.1c1.2,0,2.3,0.5,3,1.4
		c0.8,0.9,1.2,2.2,1,3.4v0.1h0.1c2.6-0.3,5,1.5,5.3,4.1c0.1,0.6,0,1.1-0.1,1.7v0.1h0.1c1.4,0.5,2.6,1.4,3.6,2.4
		c0.5,0.6,0.8,1.3,0.8,2.1c0.1,0.7-0.2,1.5-0.6,2l-0.1,0.1l0.1,0.1c1.3,0.8,2.3,1.9,3.1,3.2c0.3,0.7,0.4,1.4,0.2,2.1
		c-0.1,0.7-0.5,1.3-1.1,1.6l-0.1,0.1l0.1,0.1c0.7,0.5,1.4,1.1,2,1.8c0.5,0.7,0.8,1.5,0.8,2.4c0,0.8-0.4,1.6-1.2,1.9
		c-0.7,0.3-1.5,0.1-2-0.4l-0.1-0.1l-0.1,0.1c-1.1,0.8-2.5,1-3.8,0.4c-1-0.5-1.8-1.4-2-2.6v-0.1h-0.1c-0.4,0.2-0.8,0.3-1.3,0.4
		c-0.4,0.1-0.8,0.1-1.2,0.1c-0.6,0-1.2-0.1-1.8-0.3c-0.4-0.1-0.7-0.4-0.9-0.7C336.5,145.7,336.4,145.6,336.4,145.4z"/>
	<path class="st7" d="M364.7,137c0.1-0.1,0.2-0.3,0.3-0.5c0.2-0.5,0.4-1,0.4-1.5c0-0.8-0.2-1.6-0.6-2.3c-0.6-0.9-1.6-1.5-2.7-1.7
		l0.1,0.1c0.2-1.3,0-2.6-0.7-3.7c-0.4-0.6-0.9-1.1-1.5-1.5c-0.6-0.4-1.3-0.7-2-0.9c-0.4-0.1-0.7-0.3-1-0.6c-0.3-0.2-0.5-0.6-0.7-0.9
		c-0.3-0.7-0.5-1.6-0.9-2.3c-0.9-1.6-2.8-2.5-4.6-2.2l0.1,0.1c0.4-3.3-1.9-6.3-5.2-6.7c-0.5-0.1-1-0.1-1.5,0l0.1,0.1
		c0.3-2.9-1.9-5.4-4.8-5.7c-1.2-0.1-2.5,0.2-3.5,0.9h0.1c-0.8-0.7-1.7-1.2-2.6-1.6c-0.9-0.3-1.8-0.5-2.7-0.6c-1.5-0.1-3,0-4.4,0.4
		c-0.9,0.2-1.8,0.6-2.6,1.1c-0.2,0.1-0.4,0.3-0.6,0.4l-0.2,0.2c0,0,0.3-0.2,0.8-0.6c0.8-0.5,1.7-0.9,2.6-1.1
		c1.4-0.4,2.9-0.5,4.4-0.3c0.9,0.1,1.8,0.3,2.6,0.6c1,0.3,1.8,0.8,2.6,1.5h0.1h0.1c2.3-1.6,5.4-1,7,1.2c0.7,1,1,2.2,0.9,3.4v0.1h0.1
		c3.2-0.4,6.1,1.8,6.5,5c0.1,0.5,0.1,1,0,1.5v0.2h0.1c1.7-0.3,3.5,0.6,4.4,2.1c0.4,0.7,0.5,1.6,0.9,2.3c0.2,0.4,0.4,0.7,0.8,1
		c0.3,0.2,0.6,0.4,1,0.6c0.7,0.2,1.4,0.5,2,0.9c0.6,0.4,1.1,0.9,1.4,1.5c0.7,1,0.9,2.3,0.7,3.6v0.1h0.1c1.1,0.1,2,0.7,2.7,1.6
		c0.5,0.7,0.7,1.5,0.7,2.3c0,0.5-0.1,1-0.3,1.5C364.8,136.8,364.7,137,364.7,137z"/>
	<path class="st7" d="M293.3,140.2c0.1-0.2,0.1-0.4,0-0.6c-0.1-0.2-0.2-0.4-0.4-0.6c-0.3-0.2-0.6-0.4-0.9-0.4
		c-0.4-0.1-0.8-0.3-1.2-0.5c-0.4-0.3-0.7-0.7-0.9-1.2c-0.2-0.6-0.3-1.1-0.2-1.7c0-0.6,0.1-1.3,0.1-2c-0.2-1.5-0.5-3-1-4.4
		c-0.2-0.8-0.3-1.6-0.1-2.4c0.1-0.9,0.6-1.6,1.3-2.1c0.8-0.4,1.7-0.7,2.6-0.9c0.5-0.1,0.9-0.4,1.3-0.6c0.4-0.3,0.7-0.7,0.9-1.2
		c0.3-1,0.6-2,0.7-3c0.1-0.5,0.3-1,0.5-1.4c0.2-0.4,0.6-0.8,1.1-1c0.7-0.2,1.4-0.3,2.1-0.3c0.4,0,0.7-0.1,1-0.3
		c0.3-0.2,0.6-0.4,0.8-0.7c0.3-0.6,0.6-1.2,0.8-1.9c0.2-0.6,0.5-1.2,0.9-1.7c0.8-1,2-1.5,3.2-1.6c1.2-0.1,2.3,0.3,3.2,1.1l0.1,0.1
		l0-0.1c0.8-1.9,2.4-3.3,4.4-3.9c0.8-0.3,1.7-0.3,2.5-0.3c0.7,0.1,1.4,0.2,2.1,0.5c0.9,0.4,1.7,1.1,2.2,2c0.1,0.2,0.3,0.5,0.4,0.7
		l0.1,0.2v0.1c0,0,0,0,0-0.1l-0.1-0.2c-0.1-0.3-0.2-0.5-0.4-0.7c-0.5-0.9-1.3-1.6-2.2-2c-0.7-0.3-1.4-0.5-2.1-0.6
		c-0.9-0.1-1.7,0-2.5,0.2c-2,0.6-3.7,2.1-4.5,4h0.2c-0.9-0.8-2.1-1.2-3.3-1.2c-1.3,0.1-2.5,0.7-3.4,1.7c-0.4,0.5-0.8,1.1-1,1.8
		c-0.2,0.7-0.4,1.3-0.7,1.9c-0.4,0.5-1,0.9-1.7,0.9c-0.7,0-1.4,0.1-2.1,0.3c-0.5,0.2-0.9,0.6-1.2,1.1c-0.2,0.5-0.4,1-0.5,1.5
		c-0.1,1-0.4,2-0.7,2.9c-0.2,0.4-0.5,0.8-0.9,1.1c-0.4,0.3-0.8,0.5-1.3,0.6c-0.9,0.2-1.8,0.6-2.6,1c-0.4,0.2-0.8,0.6-1,1
		c-0.2,0.4-0.4,0.8-0.4,1.3c-0.1,0.8-0.1,1.7,0.2,2.5c0.5,1.4,0.8,2.9,1,4.4c0,0.7-0.1,1.3-0.1,2c0,0.6,0.1,1.2,0.2,1.8
		c0.2,0.5,0.5,0.9,0.9,1.2c0.4,0.2,0.8,0.4,1.2,0.5c0.3,0.1,0.6,0.2,0.9,0.4c0.2,0.2,0.4,0.4,0.5,0.6
		C293.2,139.9,293.3,140,293.3,140.2z"/>
	<path class="st7" d="M278.6,128.9c0,0,0,0,0.1-0.1s0.1-0.2,0.2-0.4l0.7-1.6c0.3-0.7,0.7-1.6,1.2-2.6c0.5-1.1,1.4-2.1,2.5-2.7
		c0.6-0.3,1.3-0.6,2-0.9c0.4-0.2,0.7-0.4,1-0.6c0.3-0.3,0.6-0.6,0.8-1c0.3-0.8,0.3-1.7,0.6-2.5c0.1-0.4,0.4-0.7,0.7-1
		c0.4-0.3,0.8-0.4,1.2-0.6c0.5-0.1,0.9-0.3,1.3-0.5c0.4-0.2,0.8-0.6,1-1.1c0.3-0.9,0.5-1.9,0.6-2.9c0.1-0.5,0.2-1,0.5-1.4
		c0.3-0.4,0.7-0.7,1.2-0.8c1-0.2,2,0.1,3.1-0.1c0.5-0.1,1-0.4,1.4-0.8c0.4-0.4,0.7-0.8,0.9-1.3c0.3-0.4,0.5-0.9,0.8-1.3
		c0.3-0.4,0.6-0.8,1.1-1c0.9-0.3,1.9-0.3,2.8,0c0.9,0.3,1.9,0.3,2.8,0.2c0.9-0.2,1.7-0.6,2.5-1.2c0.7-0.5,1.4-0.9,2.2-1.3
		c1.4-0.5,3-0.6,4.4-0.2c1.2,0.3,2.3,0.9,3.3,1.6c0.7,0.6,1.3,1.3,1.8,2.1c0.3,0.5,0.6,1,0.8,1.6c0.1,0.2,0.1,0.3,0.2,0.4
		s0.1,0.1,0.1,0.1c0-0.1,0-0.1,0-0.2l-0.2-0.4c-0.2-0.6-0.5-1.1-0.8-1.6c-0.5-0.8-1.1-1.5-1.8-2.2c-1-0.8-2.1-1.4-3.4-1.7
		c-1.5-0.4-3.1-0.3-4.5,0.2c-0.8,0.3-1.5,0.8-2.2,1.3c-0.7,0.5-1.5,0.9-2.4,1.1c-0.9,0.1-1.9,0.1-2.8-0.2c-0.5-0.1-1-0.2-1.5-0.2
		c-0.5,0-1,0.1-1.5,0.3c-0.5,0.2-0.9,0.6-1.2,1c-0.3,0.4-0.5,0.9-0.8,1.3c-0.2,0.5-0.5,0.9-0.9,1.3c-0.3,0.4-0.8,0.6-1.3,0.7
		c-1,0.2-2.1-0.1-3.1,0.1c-0.5,0.1-1,0.4-1.3,0.9c-0.3,0.5-0.4,1-0.5,1.5c-0.1,1-0.3,1.9-0.6,2.8c-0.2,0.4-0.5,0.8-0.9,1
		c-0.4,0.2-0.8,0.4-1.3,0.5c-0.4,0.1-0.9,0.3-1.2,0.6c-0.4,0.3-0.6,0.7-0.8,1.1c-0.3,0.8-0.3,1.7-0.6,2.5c-0.3,0.7-0.9,1.2-1.7,1.5
		c-0.7,0.3-1.4,0.6-2,0.9c-1.1,0.7-1.9,1.7-2.5,2.8c-0.5,1-0.9,1.9-1.2,2.6l-0.7,1.6l-0.2,0.4L278.6,128.9z"/>
	<path class="st7" d="M286.4,120.9c0,0,0,0-0.1,0c-0.1,0-0.3,0-0.4,0.1c-0.4,0.3-0.7,0.8-0.7,1.3c0,0.4,0.1,0.8,0.2,1.1
		c0.1,0.4,0.2,0.9,0.2,1.3c0,0.5-0.2,1-0.5,1.4c-0.3,0.5-0.6,0.9-0.9,1.4c-0.3,0.6-0.4,1.3-0.1,1.9c0.2,0.6,0.7,1.1,1,1.8
		c0.2,0.7,0.1,1.4-0.2,2.1c-0.3,0.7-0.7,1.4-1,2.1c-0.1,0.4-0.2,0.8-0.2,1.2c0,0.4,0.1,0.8,0.3,1.2c0.4,0.7,0.9,1.5,1.5,2.1
		c0.6,0.7,0.9,1.5,0.8,2.4c-0.2,0.9-0.5,1.7-0.9,2.5c-0.2,0.4-0.3,0.9-0.3,1.4c0,0.5,0.2,0.9,0.4,1.3c0.5,0.8,1,1.5,1.6,2.1
		c0.6,0.6,1,1.3,1.3,2.1c0.2,0.8,0.5,1.6,0.8,2.3c0.2,0.4,0.5,0.7,0.8,0.9c0.3,0.2,0.7,0.4,1.1,0.5c0.3,0.1,0.7,0.2,1,0.4
		c0.3,0.2,0.6,0.3,0.9,0.6c0.5,0.5,0.9,1,1.2,1.6c0.4,0.6,0.7,1.1,1,1.6c0.7,0.9,1.6,1.5,2.6,1.9c0.8,0.3,1.6,0.3,2.4,0.2
		c0.5-0.1,1-0.2,1.5-0.5c0.2-0.1,0.3-0.2,0.5-0.3c-0.6,0.3-1.3,0.6-2,0.6c-0.8,0.1-1.6,0-2.4-0.2c-1-0.3-1.9-1-2.5-1.9
		c-0.4-0.5-0.7-1-1-1.6c-0.3-0.6-0.8-1.1-1.3-1.6c-0.3-0.2-0.6-0.5-0.9-0.6c-0.3-0.1-0.7-0.3-1.1-0.4c-0.4-0.1-0.7-0.3-1-0.5
		c-0.3-0.2-0.5-0.5-0.7-0.9c-0.3-0.7-0.6-1.5-0.8-2.3c-0.3-0.8-0.8-1.5-1.4-2.2c-0.6-0.6-1.2-1.3-1.6-2c-0.2-0.4-0.3-0.8-0.3-1.2
		c0-0.4,0.1-0.9,0.2-1.3c0.4-0.8,0.7-1.7,0.9-2.6c0-0.5,0-0.9-0.2-1.4c-0.2-0.4-0.4-0.8-0.7-1.1c-0.5-0.6-1-1.3-1.4-2.1
		c-0.2-0.4-0.3-0.7-0.3-1.1c0-0.4,0.1-0.8,0.2-1.1c0.3-0.7,0.7-1.4,0.9-2.1c0.3-0.7,0.4-1.5,0.2-2.2c-0.3-0.7-0.7-1.2-1-1.8
		c-0.2-0.6-0.2-1.2,0.1-1.7c0.3-0.5,0.6-1,0.9-1.4c0.3-0.4,0.5-0.9,0.5-1.5c0-0.5-0.1-0.9-0.2-1.3c-0.1-0.3-0.2-0.7-0.2-1.1
		c0-0.5,0.2-1,0.6-1.3C286,120.9,286.2,120.9,286.4,120.9z"/>
	<path class="st2" d="M364.5,136.7c0.2,0,0.4,0,0.6-0.1c0.6-0.1,1.1-0.4,1.6-0.7c0.8-0.5,1.3-1.3,1.5-2.2c0.3-1.2,0.1-2.5-0.7-3.5
		c-0.5-0.6-1-1.1-1.5-1.5c-0.6-0.5-1.1-1.1-1.4-1.8c-0.3-0.8-0.2-1.6,0.1-2.4c0.3-0.8,0.7-1.6,1-2.5c1.1-3.9-1.1-8-5-9.1
		c-0.2-0.1-0.4-0.1-0.7-0.2l0.1,0.2c0.3-0.5,0.5-1.1,0.6-1.6c0.1-0.6,0-1.2-0.1-1.8c-0.2-0.6-0.4-1.1-0.8-1.6
		c-0.4-0.5-0.8-0.9-1.3-1.3c-1.5-1-3.2-1.7-5-1.9c-1.7-0.3-3.3-0.3-5-0.1l0.1,0.1c-0.1-2-1.3-3.7-3.1-4.6c-0.8-0.4-1.7-0.5-2.6-0.5
		c-0.8,0.1-1.7,0.3-2.4,0.7c-0.4,0.1-0.8,0.2-1.1,0.3c-0.4,0-0.8,0-1.1-0.1c-0.7-0.2-1.4-0.5-2-0.9c-0.6-0.4-1.2-0.6-1.9-0.8
		c-0.6-0.2-1.3-0.2-1.9-0.2c-1.1,0-2.2,0.3-3.1,0.9c-0.7,0.4-1.3,1-1.8,1.6c-0.3,0.4-0.6,0.8-0.8,1.3c-0.1,0.2-0.1,0.3-0.2,0.5
		c0,0,0.1-0.2,0.2-0.5c0.2-0.5,0.5-0.9,0.8-1.3c0.5-0.6,1.1-1.1,1.8-1.6c0.9-0.5,1.9-0.8,3-0.8c0.6,0,1.2,0.1,1.8,0.2
		c0.7,0.2,1.3,0.5,1.9,0.8c0.6,0.4,1.3,0.8,2,1c0.4,0.1,0.8,0.2,1.2,0.1c0.4,0,0.8-0.1,1.2-0.3c0.8-0.3,1.6-0.6,2.4-0.7
		c0.9-0.1,1.7,0.1,2.5,0.5c1.7,0.8,2.8,2.5,2.9,4.4v0.1h0.1c1.7-0.2,3.3-0.1,5,0.2c1.7,0.2,3.4,0.9,4.9,1.9c0.5,0.3,0.9,0.8,1.2,1.2
		c0.3,0.5,0.6,1,0.7,1.6c0.2,0.5,0.2,1.1,0.1,1.7c-0.1,0.6-0.3,1.1-0.6,1.5l-0.1,0.1h0.2c3.9,0.7,6.4,4.5,5.7,8.3
		c0,0.2-0.1,0.4-0.2,0.7c-0.2,0.9-0.7,1.7-1,2.5c-0.3,0.8-0.4,1.7-0.1,2.5c0.3,0.7,0.9,1.3,1.5,1.8c0.5,0.4,1.1,0.9,1.5,1.5
		c0.7,1,1,2.2,0.7,3.4c-0.2,0.9-0.7,1.7-1.5,2.2c-0.5,0.3-1,0.6-1.5,0.7C364.7,136.7,364.5,136.7,364.5,136.7z"/>
	<path class="st2" d="M283.7,115.8c0,0,0-0.1,0-0.1c0-0.1,0-0.2,0-0.4c0-0.4,0.1-0.9,0.1-1.6s0.1-1.6,0.3-2.5
		c0.2-1.1,0.5-2.2,0.9-3.2c0.5-1.3,1.3-2.4,2.3-3.3c0.6-0.5,1.2-0.9,1.9-1.2c0.8-0.3,1.5-0.5,2.3-0.7c0.8-0.2,1.6-0.6,2.3-1.1
		c0.7-0.6,1.3-1.2,1.9-1.9c0.6-0.7,1.1-1.5,1.7-2.1c0.6-0.7,1.4-1.3,2.2-1.7c1.7-0.8,3.5-1.2,5.4-1.2c1.7-0.1,3.5,0,5.2,0.1
		c2.9,0.3,5.8,1,8.5,2.2c1.8,0.8,3.5,1.9,4.9,3.3l0.7,0.6l0.5,0.5l0.3,0.3c0,0,0.1,0.1,0.1,0.1l-0.1-0.1c-0.1-0.1-0.1-0.2-0.3-0.3
		l-0.4-0.5c-0.2-0.2-0.4-0.4-0.7-0.7c-1.4-1.4-3.1-2.5-4.8-3.4c-2.7-1.2-5.6-2-8.5-2.3c-1.7-0.2-3.5-0.2-5.2-0.1
		c-1.9,0-3.8,0.5-5.5,1.2c-0.9,0.4-1.6,1-2.3,1.7c-0.6,0.7-1.2,1.4-1.8,2.2c-0.5,0.7-1.1,1.3-1.8,1.9c-0.7,0.5-1.5,0.8-2.3,1
		c-0.8,0.2-1.6,0.4-2.3,0.7c-0.7,0.3-1.4,0.7-2,1.3c-1,0.9-1.8,2.1-2.4,3.4c-0.4,1.1-0.7,2.2-0.9,3.3c-0.2,1-0.2,1.8-0.3,2.6
		s-0.1,1.2-0.1,1.6L283.7,115.8L283.7,115.8z"/>
	<path class="st9" d="M315,144.7l-5.5,2.1L309,147c0.2,1,0.6,1.9,1.1,2.7c0.5,0.7,1.2,1.2,2,1.4c0.7,0,1.4-0.1,2-0.5
		c0.9-0.6,1.5-1.6,1.7-2.7C316,146.8,315.7,145.6,315,144.7z"/>
	<path class="st2" d="M311.8,151.2c0.7,0,1.5-0.2,2.1-0.6c0.7-0.4,1.2-1.1,1.4-1.8c0.3-0.9,0.3-1.9,0-2.8c-0.1-0.2-0.2-0.5-0.3-0.7
		c0-0.1-0.1-0.2-0.2-0.3c-0.1,0,0,0-0.1,0l-1.3,0.5l-2.3,0.9c-0.7,0.3-1.4,0.5-2.2,0.7c0.6-0.4,1.3-0.7,2-1l2.2-1
		c0.4-0.2,0.9-0.4,1.4-0.6c0.2-0.1,0.4,0,0.6,0.1c0.1,0.1,0.2,0.2,0.2,0.4c0.1,0.2,0.2,0.5,0.3,0.8c0.4,1,0.4,2.1,0,3.1
		c-0.3,0.8-0.9,1.5-1.6,1.9c-0.5,0.3-1.1,0.4-1.6,0.4C312,151.3,311.8,151.2,311.8,151.2z"/>
	<path class="st3" d="M340.8,144.1c0.4,0.1,0.8,0.4,1.1,0.6c1,0.7,1.6,1.8,1.9,3c0.2,0.8,0.2,1.6,0,2.4c-0.2,0.9-0.7,1.8-1.3,2.5
		c-0.7,0.8-1.6,1.4-2.6,1.8c-1.1,0.4-2.2,0.4-3.3,0.1c-1.1-0.3-2.1-0.9-2.9-1.7c-0.7-0.8-1.2-1.7-1.4-2.8c-0.3-1.8,0.2-3.6,1.4-4.9
		c0.9-0.8,2-1.4,3.1-1.5c0.3-0.1,0.7-0.1,1,0c0.1,0,0.2,0.1,0.3,0.1c-0.4-0.1-0.8-0.1-1.3,0c-0.5,0.1-1,0.2-1.4,0.4
		c-0.6,0.3-1.1,0.7-1.6,1.1c-1.1,1.3-1.6,3.1-1.3,4.8c0.2,1,0.7,1.9,1.4,2.6c0.7,0.8,1.7,1.3,2.7,1.6c1,0.3,2.1,0.2,3.2-0.1
		c0.9-0.3,1.8-0.9,2.5-1.7c0.6-0.7,1.1-1.5,1.3-2.4c0.5-1.9-0.2-4-1.7-5.3C341.2,144.3,340.7,144.2,340.8,144.1z"/>
	<path class="st2" d="M318,134c0,0.9,0.6,1.6,1.5,1.7c0.9,0.1,1.6-0.5,1.7-1.4c0,0,0,0,0,0c0-0.9-0.6-1.6-1.5-1.7
		C318.9,132.5,318.1,133.1,318,134C318,134,318,134,318,134z"/>
	<path class="st2" d="M301.8,133.2c0,0.9,0.6,1.6,1.5,1.7c0.9,0.1,1.6-0.5,1.7-1.4c0,0,0,0,0,0c0-0.9-0.6-1.6-1.5-1.7
		C302.7,131.7,301.9,132.3,301.8,133.2C301.8,133.2,301.8,133.2,301.8,133.2z"/>
	<path class="st2" d="M299.7,129.1c0.2,0.3,1.6-0.7,3.5-0.6s3.2,1.4,3.4,1.2s-0.1-0.6-0.6-1.2c-0.7-0.7-1.7-1.2-2.7-1.3
		c-1-0.1-2,0.2-2.9,0.8C299.8,128.5,299.6,129,299.7,129.1z"/>
	<path class="st2" d="M316.1,130c0.2,0.3,1.7-0.9,3.7-0.9s3.5,1.1,3.7,0.8c0.1-0.1-0.1-0.6-0.8-1.1c-0.9-0.7-1.9-1-3-1
		c-1.1,0-2.1,0.3-2.9,1C316.1,129.4,315.9,129.9,316.1,130z"/>
	<polygon class="st8" points="258.8,387.7 269.4,413.4 288.5,405.5 277.8,373.9 	"/>
	<path class="st7" d="M267.2,411.6l6.2,13.2c0,0-18.1,17.2-16.6,21.3l41.6-17.9l-10.1-26.4L267.2,411.6z"/>
	<path class="st3" d="M285.6,417.5c0.9-0.1,1.8,0.5,2,1.4c0.1,0.9-0.5,1.8-1.4,2c-1,0.1-1.9-0.6-2.1-1.5c0-1,0.7-1.8,1.7-1.9"/>
	<g class="st10">
		<path class="st4" d="M298.5,428.3l-1.6-3.3l-39.3,18.4c0,0-1.5,1.6-0.7,2.8L298.5,428.3z"/>
	</g>
	<path class="st2" d="M272.7,424.9c0.1,0.2,1.1-0.1,2.4,0.1s2.2,0.9,2.3,0.7s-0.7-1.2-2.2-1.5S272.6,424.7,272.7,424.9z"/>
	<path class="st2" d="M269.1,428.6c0,0.2,1.1,0.2,2.1,0.8s1.6,1.4,1.9,1.3s-0.2-1.3-1.5-2S269,428.4,269.1,428.6z"/>
	<path class="st2" d="M268.9,434.9c0.2,0,0-1.2-1-2.1s-2.1-0.9-2.2-0.7s0.8,0.5,1.6,1.3S268.7,434.9,268.9,434.9z"/>
	<path class="st2" d="M271,419.8c0.2,0.1,1-0.5,2.2-1s2.2-0.4,2.3-0.7s-1.1-0.6-2.5-0.1S270.8,419.7,271,419.8z"/>
	<path class="st2" d="M257.3,401.4l-25.7-79.8c0,0,1.2-13,3.8-17.1s76.5-25.1,76.5-25.1s18.8-3.7,31,1.3s24.5,11,23,19.6
		c-0.3,1.3-0.6,2.6-1.1,3.9c-4.8,12.4-16.8,20.4-30,20.2l-9.7,0.7l-49.5,7.3c-2.1,0.3-3.5,2.2-3.2,4.3c0,0.1,0,0.2,0.1,0.4
		l13.7,53.6C286.2,390.6,268.4,398.4,257.3,401.4z"/>
	<polygon class="st8" points="234,345.9 232.2,373.6 252.8,375 257.1,341.8 	"/>
	<path class="st7" d="M232.3,369.9l-1.5,15.8c0,0-23.9,7.5-24.3,11.8l45.2,2.3l2.6-28.2L232.3,369.9z"/>
	<path class="st2" d="M231,376.8c0-0.3,0-0.5,0.1-0.8c0.2-0.7,0.5-1.4,1-2c0.2-0.2,0.4-0.4,0.6-0.6c0.3-0.2,0.7-0.3,1-0.2
		c0.2,0.1,0.4,0.2,0.4,0.4c0.1,0.2,0.1,0.4,0,0.5c-0.1,0.3-0.3,0.6-0.5,0.8c-0.4,0.5-0.7,1-1.2,1.6c-0.3,0.3-0.8,0.5-1.2,0.4
		c-0.4-0.1-0.8-0.3-1.1-0.5c-0.6-0.4-1.2-0.9-1.7-1.5c-0.2-0.3-0.4-0.5-0.6-0.8c-0.2-0.3-0.4-0.6-0.5-0.9c-0.1-0.4,0.1-0.9,0.6-1
		c0.4-0.1,0.8,0,1.1,0.3c0.4,0.4,0.8,0.8,1.1,1.2c0.4,0.6,0.8,1.3,1,2c0.1,0.3,0.2,0.5,0.2,0.8c-0.4-0.9-0.9-1.8-1.5-2.6
		c-0.3-0.4-0.7-0.8-1.1-1.1c-0.2-0.2-0.4-0.2-0.6-0.2c-0.2,0.1-0.3,0.3-0.2,0.5c0.1,0.3,0.2,0.5,0.4,0.8c0.2,0.3,0.4,0.5,0.6,0.8
		c0.5,0.5,1,1,1.6,1.4c0.3,0.2,0.6,0.4,0.9,0.4c0.3,0,0.6-0.1,0.8-0.3c0.4-0.5,0.8-1.1,1.1-1.6c0.2-0.2,0.3-0.5,0.5-0.7
		c0.1-0.2,0.1-0.4-0.1-0.5c-0.4-0.2-0.8,0.2-1.1,0.6C231.7,374.9,231.3,375.8,231,376.8z"/>
	<path class="st3" d="M244.9,384.5c0.9,0.3,1.4,1.3,1.2,2.2c-0.3,0.9-1.2,1.4-2.1,1.2c-0.9-0.3-1.5-1.3-1.2-2.3
		c0.4-0.9,1.4-1.4,2.4-1"/>
	<g class="st10">
		<path class="st4" d="M251.7,399.8l0.1-3.7l-43.4-0.9c0,0-2.1,0.8-1.9,2.2L251.7,399.8z"/>
	</g>
	<path class="st2" d="M230.1,385.4c0,0.2,1.1,0.4,2.1,1.1s1.6,1.7,1.8,1.6s-0.1-1.4-1.4-2.3S230.1,385.2,230.1,385.4z"/>
	<path class="st2" d="M225.3,387.1c-0.1,0.2,0.9,0.6,1.6,1.6s0.9,2,1.1,2s0.4-1.2-0.5-2.4S225.3,386.9,225.3,387.1z"/>
	<path class="st2" d="M222.3,392.7c0.2,0.1,0.6-1,0.1-2.3s-1.5-1.8-1.6-1.6s0.5,0.9,0.9,1.9S222.1,392.7,222.3,392.7z"/>
	<path class="st2" d="M230.8,380.1c0.1,0.2,1.1,0,2.4,0.1s2.2,0.6,2.3,0.4s-0.8-1-2.2-1.2S230.7,379.9,230.8,380.1z"/>
	<path class="st2" d="M249.3,269.5c0,0-12.3-1.5-14.3,11.9s-11,75.3-11,75.3l33.9,4.2l7.1-63.8l47-17.7
		C312,279.4,257.6,268.1,249.3,269.5z"/>
	<path class="st2" d="M301,253.5c0,0-8.4,20.7-7,23.1s20.2,12.9,20.2,12.9l47.5,20.5c0,0,5.3-7.7,5.8-19.8s-15.4-34.6-15.4-34.6
		L301,253.5z"/>
	<path class="st7" d="M314.3,278.4c0,0-0.1,0-0.2,0.1l-0.7,0.3l-2.7,1.1l-10.2,4l-35.3,13.5l0.2-0.2c-0.7,6.3-1.5,13.1-2.2,20.1
		c-1.9,16.5-3.6,31.6-4.9,43.6v0.2h-0.2l-21-2.7l-5.8-0.8l-1.5-0.2c-0.2,0-0.3,0-0.5-0.1c0.2,0,0.3,0,0.5,0l1.5,0.2l5.8,0.7l21,2.5
		l-0.2,0.2c1.3-12,3-27.2,4.8-43.6c0.8-7,1.6-13.8,2.3-20.1v-0.2l0.1-0.1l35.3-13.3l10.3-3.8l2.8-1l0.7-0.2L314.3,278.4z"/>
	<path class="st7" d="M352.6,282.1c-0.5-0.1-0.9-0.2-1.3-0.4l-3.6-1.3c-3.9-1.5-7.9-2.7-12-3.6c-4.1-0.8-8.3-1-12.5-0.4
		c-1.7,0.3-3.4,0.7-5,1.2c0.4-0.3,0.8-0.4,1.3-0.6c1.2-0.4,2.4-0.8,3.7-1c4.2-0.7,8.5-0.7,12.6,0.2c4.1,0.9,8.1,2.1,12,3.7
		c1.5,0.6,2.7,1.1,3.5,1.5C351.8,281.6,352.2,281.9,352.6,282.1z"/>
	<path class="st7" d="M346.2,270.7c-1.4-0.2-2.8-0.2-4.2-0.2c-1.3,0-2.9,0.2-4.6,0.3s-3.6,0.3-5.6,0.6c-3.4,0.4-6.6,1.5-9.6,3.1
		c-1.2,0.8-2.3,1.6-3.4,2.5c0.2-0.3,0.4-0.6,0.7-0.9c0.7-0.7,1.6-1.4,2.4-1.9c3-1.8,6.3-2.9,9.7-3.3c2-0.3,3.9-0.4,5.6-0.5
		s3.3-0.2,4.6-0.2c1,0,2.1,0.1,3.1,0.3C345.5,270.5,345.9,270.6,346.2,270.7z"/>
	<path class="st2" d="M269.9,417.2c-0.2-0.2-0.3-0.5-0.3-0.8c-0.2-0.8-0.2-1.6-0.1-2.5c0-0.3,0.1-0.6,0.2-0.8
		c0.1-0.3,0.5-0.6,0.8-0.6c0.2,0,0.4,0.1,0.6,0.2c0.1,0.2,0.2,0.4,0.2,0.6c0,0.3,0,0.7-0.1,1c-0.1,0.7-0.1,1.4-0.2,2.1
		c-0.1,0.5-0.4,0.9-0.9,1c-0.4,0.1-0.9,0.1-1.3,0c-1.1-0.2-2.2-0.7-3.2-1.3c-0.3-0.2-0.6-0.4-0.9-0.7c-0.3-0.4-0.3-0.9,0-1.2
		c0.3-0.3,0.7-0.3,1.1-0.2c0.6,0.2,1.1,0.4,1.6,0.7c0.7,0.4,1.4,0.9,1.9,1.5c0.4,0.4,0.6,0.7,0.5,0.7c-0.8-0.7-1.7-1.4-2.6-1.9
		c-0.5-0.3-1-0.5-1.5-0.6c-0.2-0.1-0.5,0-0.7,0.1c-0.1,0.2-0.1,0.4,0,0.6c0.2,0.2,0.5,0.4,0.7,0.6c0.3,0.2,0.6,0.3,0.9,0.5
		c0.7,0.3,1.4,0.6,2.1,0.7c0.3,0.1,0.7,0.1,1,0c0.3-0.1,0.5-0.3,0.5-0.6c0.1-0.6,0.2-1.4,0.3-2.1c0-0.3,0.1-0.6,0.1-0.9
		c0-0.3-0.1-0.4-0.3-0.4c-0.4,0-0.6,0.6-0.7,1.1C269.6,415,269.6,416.1,269.9,417.2z"/>
	<path class="st7" d="M353.7,182.2c0,0,0.1-7.8-0.6-8.7l-15.9-5.5l-11.5,3.4c-2.7,1.2-7.8,8.8-10.7,8.4c-3.2-0.4-3.9-9-5.2-11.4l0,0
		l-5.8,1.5c0,0-10,26.6-10.2,34.2s3.8,17.7,3.2,33.5c-0.3,8.3-1.1,15.6,4,15.9l51.1,2.1c0,0,11.7-2.7,12.5-9.6
		S353.7,182.2,353.7,182.2z"/>
	<path class="st7" d="M376.5,235.1l-8-25.3c0,0-4.8-32.1-16-36.6c-4.8-1.9-15.2-1.6-18.4,4.9s0.7,11.2,1.5,14.4s11.6,25.7,11.6,25.7
		c2,4.1,3.8,8.4,5.3,12.7l-43.2,22.9l5.5,14.3l54.1-19.7c3.7-1.3,6.5-4.3,7.6-8C376.9,238.7,377,236.9,376.5,235.1z"/>
	<path class="st8" d="M275.8,262.8L287,258l21.4-0.8l1.8-1.1l4.6,12c0,0-5.7,2.4-8.6,2.5l-17.9-1.3l-9.4,0.6L275.8,262.8z"/>
	<path class="st3" d="M216.2,218.2l61.3,3c2,0.1,3.9,1.1,4.1,3.1l4.9,45l31.6,1.3c1,0,1.8,0.9,1.8,1.9c0,1-0.9,1.8-1.9,1.8
		l-31.1-1.3l-5.9-0.2l-64-2.7l-4.9-47.5c-0.2-2.2,1.4-4.2,3.6-4.4C215.8,218.2,216,218.2,216.2,218.2z"/>
	<path class="st2" d="M216.2,218.2c-0.3,0-0.7,0-1,0c-1.7,0.3-3,1.7-3.2,3.4c-0.1,0.8,0,1.7,0.1,2.5c0.2,1.8,0.4,3.9,0.6,6.3
		c1,9.4,2.3,23,4.1,39.7v0.2h0.2l97.9,4.1l2.6,0.1c0.5,0.1,1,0,1.4-0.2c0.5-0.2,0.8-0.6,1-1.1c0.4-1,0-2-0.8-2.6
		c-0.4-0.2-0.9-0.3-1.4-0.3l-1.3-0.1l-10.3-0.4l-19.7-0.8l0.2,0.2c-1.8-16.1-3.4-31.1-4.8-44.6c0-0.9-0.4-1.7-1-2.4
		c-0.6-0.6-1.4-1-2.3-1.1c-0.8-0.1-1.6-0.2-2.5-0.2l-2.4-0.1l-9.2-0.4l-16.5-0.7l-23.4-1.1l-6.2-0.3l-1.6-0.1L216.2,218.2
		c0,0,0.2,0,0.5,0l1.6,0.1l6.2,0.4l23.4,1.3l16.4,0.9l9.2,0.5l2.4,0.1c0.8,0,1.6,0.1,2.4,0.2c0.8,0.1,1.5,0.5,2.1,1
		c0.6,0.6,0.9,1.3,0.9,2.1c1.4,13.5,3,28.5,4.8,44.6v0.2h0.2l19.7,0.8l10.3,0.4h1.3c0.4,0,0.8,0.1,1.1,0.2c0.7,0.4,1,1.3,0.6,2
		c-0.1,0.4-0.4,0.6-0.8,0.8c-0.4,0.2-0.8,0.2-1.2,0.1l-2.6-0.1L217,270l0.2,0.2l-4.2-39.8c-0.3-2.4-0.5-4.4-0.7-6.3
		c-0.1-0.8-0.2-1.7-0.1-2.5c0.2-1.7,1.5-3,3.1-3.4C215.9,218.2,216.2,218.2,216.2,218.2z"/>
	<path class="st4" d="M249.6,245c-0.1,2.1-1.9,3.8-4,3.7c-2.1-0.1-3.8-1.9-3.7-4c0.1-2.1,1.9-3.8,4-3.7c0,0,0,0,0,0
		C248,241.1,249.7,242.9,249.6,245z"/>
	<path class="st2" d="M283.9,272.5c-0.1,0-1.6-11.5-3.3-25.6s-3.1-25.6-3-25.6s1.6,11.4,3.3,25.6C282.6,261,284,272.5,283.9,272.5z"
		/>
	<path class="st2" d="M364.4,250c-0.1,0-0.1,0.1-0.2,0.1l-0.7,0.3l-2.7,1l-10.3,3.8l-35.7,13.1l-0.2,0.1l-0.1-0.2L309,254l-0.1-0.2
		l0.2-0.1l8.5-4.5l34.7-18.3l-0.1,0.3l-10.5-25.9l-2.9-7.3l-0.8-1.9l-0.2-0.5c0-0.1-0.1-0.2,0-0.2l0.1,0.2l0.2,0.5
		c0.2,0.5,0.5,1.1,0.8,1.9l3,7.2c2.6,6.2,6.3,15.1,10.7,25.8l0.1,0.2l-0.2,0.1l-34.7,18.4l-8.5,4.5l0.1-0.3
		c1.9,4.9,3.7,9.7,5.4,14.3l-0.3-0.1l35.8-12.9l10.3-3.7l2.8-1l0.7-0.2L364.4,250z"/>
	<polygon class="st7" points="335.6,161.9 319.3,169.4 315.1,178.9 314.4,169.2 309.5,165.3 306.9,169.1 311.6,182.7 319.1,183 
		337.2,168.5 337.8,168.2 	"/>
	<path class="st2" d="M306.9,169.1c0.5,0.9,1,1.9,1.3,2.9c0.8,1.8,1.7,4.3,3,6.9l0.1,0.2h-0.5c1.1-2.6,1.9-5.2,2.5-6.9
		c0.3-1,0.6-1.9,1.1-2.9c-0.1,1-0.4,2-0.7,3c-0.7,2.4-1.5,4.8-2.4,7.1l-0.2,0.5l-0.2-0.5l-0.1-0.2c-1.3-2.7-2.2-5.2-2.9-7
		C307.4,171.1,307.1,170.1,306.9,169.1z"/>
	<path class="st2" d="M337.8,168.2c-0.3,0.3-0.6,0.6-1,0.8l-2.8,2c-2.4,1.7-5.7,4-9.4,6.5l-4.4,3l-0.4,0.2v-0.4
		c-0.2-3.2-0.4-5.9-0.5-7.8c0-0.9-0.1-1.6-0.1-2.3c0-0.3,0-0.5,0-0.8c0.1,0.3,0.1,0.5,0.1,0.8c0.1,0.6,0.1,1.4,0.2,2.2
		c0.2,1.9,0.4,4.6,0.6,7.8l-0.4-0.2l4.4-3c3.7-2.5,7-4.8,9.5-6.4l2.9-1.9C337.1,168.6,337.4,168.3,337.8,168.2z"/>
	<path class="st2" d="M297.7,251.5c-0.1-0.1-0.2-0.3-0.2-0.4c-0.2-0.4-0.3-0.9-0.4-1.4c-0.3-1.7-0.4-3.5-0.5-5.2
		c-0.1-2.2,0-4.9,0.1-8s0.2-6.4,0.4-10l0.1,0.2c-2-2.2-3.6-4.7-4.6-7.4c-0.8-2.1-1.3-4.4-1.5-6.7c-0.1-2.1,0-4.3,0.4-6.4
		c0.7-3.5,1.6-7,2.7-10.4c0.7-2.3,1.3-4.6,1.8-7c0.3-1.7,0.4-2.6,0.5-2.6c0,0.2,0,0.5,0,0.7c0,0.7-0.1,1.3-0.2,2
		c-0.4,2.4-0.9,4.7-1.6,7.1c-1.1,3.4-1.9,6.9-2.6,10.4c-0.3,2.1-0.5,4.2-0.4,6.2c0.4,5.1,2.4,10,5.9,13.8l0.1,0.1v0.1
		c-0.2,3.6-0.3,7-0.5,10s-0.3,5.7-0.2,7.9c0,1.7,0.1,3.5,0.3,5.2C297.4,250.3,297.6,250.9,297.7,251.5z"/>
	<path class="st2" d="M312.5,251.3c-0.1-0.2-0.1-0.5-0.1-0.7c0-0.5-0.1-1.2-0.1-2.1c-0.1-1.8-0.2-4.5-0.3-7.8
		c-0.2-6.6-0.2-15.6,0.2-25.7s1.2-19.1,2-25.6c0.4-3.3,0.7-5.9,1-7.7c0.1-0.9,0.2-1.6,0.3-2.1c0-0.2,0.1-0.5,0.1-0.7
		c0,0.2,0,0.5,0,0.7c0,0.5-0.1,1.2-0.2,2.1c-0.2,1.9-0.5,4.5-0.8,7.7c-0.7,6.5-1.4,15.6-1.8,25.6s-0.5,19.1-0.4,25.6
		c0.1,3.2,0.1,5.9,0.1,7.8c0,0.9,0,1.6,0,2.1C312.6,250.8,312.6,251,312.5,251.3z"/>
	<path class="st2" d="M351.7,173.7c0,0.1-1.3-0.1-3.4,0.2c-5.6,0.8-10.2,4.8-11.9,10.1c-0.3,1.1-0.6,2.2-0.8,3.4
		c-0.1-0.3-0.1-0.6,0-0.9c0-0.8,0.2-1.7,0.4-2.5c1.5-5.6,6.4-9.8,12.2-10.4c0.9-0.1,1.7-0.1,2.6,0
		C351.1,173.6,351.4,173.6,351.7,173.7z"/>
	<path class="st2" d="M361.1,234.7c-2.4-2.3-5.6-3.6-8.9-3.7c0.5-0.2,1-0.3,1.5-0.2c1.2,0,2.4,0.3,3.5,0.7c1.1,0.5,2.1,1.1,3,2
		C360.9,234.2,361.2,234.7,361.1,234.7z"/>
	<path class="st2" d="M341.5,224c0,0-0.2,0.2-0.7,0.4c-0.6,0.3-1.3,0.5-2,0.7c-4.6,1.3-9.5,1.1-14-0.6c-0.7-0.2-1.4-0.5-2-0.9
		c-0.5-0.2-0.7-0.4-0.7-0.4s1,0.4,2.8,1c4.5,1.5,9.2,1.7,13.8,0.6C340.5,224.4,341.5,224,341.5,224z"/>
</g>
</svg>
