<?xml version="1.0" encoding="utf-8"?>
<!-- Generator: Adobe Illustrator 22.1.0, SVG Export Plug-In . SVG Version: 6.00 Build 0)  -->
<svg version="1.1" id="Capa_1" xmlns="http://www.w3.org/2000/svg" xmlns:xlink="http://www.w3.org/1999/xlink" x="0px" y="0px"
	 viewBox="0 0 300 300" style="enable-background:new 0 0 300 300;" xml:space="preserve">
<style type="text/css">
	.st0{fill:#231F20;}
	.st1{fill:#498056;}
</style>
<g>
	<g>
		<g>
			<path class="st0" d="M148.1,259.1c-17.1,0-34.1-4.4-48.9-12.7c-2-1.1-2.7-3.6-1.6-5.5c1.1-2,3.6-2.7,5.5-1.6
				c13.7,7.6,29.2,11.6,45,11.6c14.5,0,28.3-3.2,41.1-9.6c2-1,4.4-0.2,5.4,1.8s0.2,4.4-1.8,5.4C178.9,255.6,163.9,259.1,148.1,259.1
				z"/>
		</g>
		<g>
			<g>
				<polygon class="st0" points="170.3,240.8 189,246.1 183.6,264.8 193.8,259.1 199.2,240.5 180.5,235.2 				"/>
			</g>
		</g>
	</g>
	<g>
		<g>
			<path class="st0" d="M244.9,162.4c-2.2,0-4-1.8-4-4c0-15.9-4.1-31.6-11.9-45.4c-7.5-13.4-18.3-24.8-31.3-33
				c-1.9-1.2-2.4-3.7-1.3-5.6c1.2-1.9,3.7-2.4,5.6-1.3c14.1,8.9,25.9,21.3,34,35.8c8.4,15,12.9,32.1,12.9,49.3
				C248.9,160.6,247.1,162.4,244.9,162.4z"/>
		</g>
		<g>
			<g>
				<polygon class="st0" points="207,96.5 201.9,77.8 220.6,72.7 210.5,66.9 191.8,72 196.9,90.7 				"/>
			</g>
		</g>
	</g>
	<g>
		<g>
			<path class="st0" d="M51.9,153.1c-0.1,0-0.3,0-0.4,0c-2.2-0.2-3.9-2.2-3.6-4.4c1.6-17.1,7.6-33.5,17.4-47.6
				c9.6-13.8,22.5-25.1,37.5-32.7c2-1,4.4-0.2,5.4,1.8s0.2,4.4-1.8,5.4c-13.8,7-25.7,17.4-34.5,30.1c-9,13-14.5,28.1-16,43.8
				C55.7,151.6,53.9,153.1,51.9,153.1z"/>
		</g>
		<g>
			<g>
				<polygon class="st0" points="66.4,133.7 52,146.7 39,132.3 38.4,143.9 51.4,158.3 65.8,145.3 				"/>
			</g>
		</g>
	</g>
	<g>
		<g>
			<path class="st1" d="M176.6,55.5c0,15.7-12.7,28.4-28.4,28.4s-28.4-12.7-28.4-28.4s12.7-28.4,28.4-28.4S176.6,39.8,176.6,55.5z"
				/>
			<path class="st0" d="M148.2,88c-17.9,0-32.5-14.6-32.5-32.5S130.3,23,148.2,23s32.5,14.6,32.5,32.5C180.6,73.5,166.1,88,148.2,88
				z M148.2,31.2c-13.4,0-24.4,10.9-24.4,24.4S134.7,80,148.2,80s24.4-10.9,24.4-24.4S161.6,31.2,148.2,31.2z"/>
		</g>
		<g>
			<path class="st1" d="M177.2,122H119v-8.6c0-16.1,13-29.1,29.1-29.1l0,0c16.1,0,29.1,13,29.1,29.1L177.2,122L177.2,122z"/>
			<path class="st0" d="M177.2,126H119c-2.2,0-4-1.8-4-4v-8.6c0-18.3,14.9-33.1,33.1-33.1c18.3,0,33.1,14.9,33.1,33.1v8.6
				C181.3,124.2,179.5,126,177.2,126z M123.1,117.9h50.1v-4.5c0-13.8-11.2-25-25-25s-25,11.2-25,25L123.1,117.9L123.1,117.9z"/>
		</g>
	</g>
	<g>
		<g>
			<path class="st1" d="M273.3,206.5c0,15.7-12.7,28.4-28.4,28.4s-28.4-12.7-28.4-28.4s12.7-28.4,28.4-28.4S273.3,190.8,273.3,206.5
				z"/>
			<path class="st0" d="M244.9,238.9c-17.9,0-32.5-14.6-32.5-32.5S227,174,244.9,174s32.5,14.6,32.5,32.5S262.8,238.9,244.9,238.9z
				 M244.9,182.1c-13.4,0-24.4,10.9-24.4,24.4s10.9,24.4,24.4,24.4s24.4-10.9,24.4-24.4S258.3,182.1,244.9,182.1z"/>
		</g>
		<g>
			<path class="st1" d="M274,272.9h-58.2v-8.6c0-16.1,13-29.1,29.1-29.1l0,0c16.1,0,29.1,13,29.1,29.1V272.9z"/>
			<path class="st0" d="M274,276.9h-58.2c-2.2,0-4-1.8-4-4v-8.6c0-18.3,14.9-33.1,33.1-33.1c18.3,0,33.1,14.9,33.1,33.1v8.6
				C278,275.1,276.2,276.9,274,276.9z M219.8,268.8h50.1v-4.5c0-13.8-11.2-25-25-25s-25,11.2-25,25L219.8,268.8L219.8,268.8z"/>
		</g>
	</g>
	<g>
		<g>
			<path class="st1" d="M83.6,206.5c0,15.7-12.7,28.4-28.4,28.4s-28.4-12.7-28.4-28.4S39.4,178,55.1,178S83.6,190.8,83.6,206.5z"/>
			<path class="st0" d="M55.1,238.9c-17.9,0-32.5-14.6-32.5-32.5S37.2,174,55.1,174s32.5,14.6,32.5,32.5S73,238.9,55.1,238.9z
				 M55.1,182.1c-13.4,0-24.4,10.9-24.4,24.4s10.9,24.4,24.4,24.4c13.4,0,24.4-10.9,24.4-24.4S68.6,182.1,55.1,182.1z"/>
		</g>
		<g>
			<path class="st1" d="M84.2,272.9H26v-8.6c0-16.1,13-29.1,29.1-29.1l0,0c16.1,0,29.1,13,29.1,29.1V272.9z"/>
			<path class="st0" d="M84.2,276.9H26c-2.2,0-4-1.8-4-4v-8.6c0-18.3,14.9-33.1,33.1-33.1c18.3,0,33.1,14.9,33.1,33.1v8.6
				C88.3,275.1,86.5,276.9,84.2,276.9z M30.1,268.8h50.1v-4.5c0-13.8-11.2-25-25-25s-25,11.2-25,25L30.1,268.8L30.1,268.8z"/>
		</g>
	</g>
</g>
</svg>
