<?xml version="1.0" encoding="utf-8"?>
<!-- Generator: Adobe Illustrator 22.1.0, SVG Export Plug-In . SVG Version: 6.00 Build 0)  -->
<svg version="1.1" xmlns="http://www.w3.org/2000/svg" xmlns:xlink="http://www.w3.org/1999/xlink" x="0px" y="0px"
	 viewBox="0 0 183 211.7" style="enable-background:new 0 0 183 211.7;" xml:space="preserve">
<style type="text/css">
	.st0{fill:#BC1818;}
	.st1{fill:none;stroke:#000000;stroke-width:5;stroke-miterlimit:10;}
</style>
<g id="Capa_1">
</g>
<g id="Capa_2">
</g>
<g id="Capa_4">
</g>
<g id="Capa_3">
	<g>
		<g>
			<path class="st0" d="M89.5,211.7l-2-2.9c-10.5-15-22.9-22-31.5-25.3c-9.4-3.6-16.3-3.6-16.4-3.6l-0.1,0
				c-0.8,0-18.9-0.8-30.4-14.4c-7.6-8.9-10.4-21.2-8.4-36.4c1.8-13.7,5.9-21.9,9.9-29.9c4.2-8.5,8.3-16.4,9.4-30.7
				c1.2-14.1-15.6-35.8-15.8-36L0,27.3l6.6,1.3c0.2,0,24.9,4.9,34.3-6.3C54.5,6.3,66.5,0,83.7,0c0,0,0,0,0,0
				c20.3,0,44,9.8,56.4,23.2c10.6,11.5,34,5.5,34.2,5.4l8.7-2.3l-6.3,6.5c-0.2,0.2-16.1,16.9-15.6,37c0.3,11.5,4.4,25.7,8.1,38.3
				c3.1,10.6,5.8,19.8,5.6,25.6c-0.2,5-0.5,16.7-5.1,27c-5.7,12.7-15.9,19.4-30.4,20.1c-28,1.2-47.6,27.9-47.8,28.1L89.5,211.7z
				 M39.6,175c2,0,28.9,0.5,50,28.3c6-7.2,24.3-26.4,49.5-27.5c29.5-1.3,30.5-32.1,30.8-42.2c0.1-5-2.6-14.2-5.4-24
				c-3.8-12.9-8-27.5-8.3-39.6c-0.4-15.1,7.3-28.1,12.5-35.1c-8.7,1.1-23.6,1.3-32.3-8.1C125,14.3,102.4,5,83.7,5c0,0,0,0,0,0
				C68,5,57.4,10.6,44.8,25.5c-8.2,9.7-24.4,9.7-33.2,8.8C16.8,42,25.9,57.2,25,69c-1.3,15.2-5.7,24-10,32.5c-4,8-7.8,15.5-9.4,28.3
				c-1.8,13.7,0.7,24.7,7.3,32.5C22.6,173.9,38.7,174.9,39.6,175C39.6,175,39.6,175,39.6,175z"/>
		</g>
		<g>
			<path class="st1" d="M10.9,134.8"/>
		</g>
		<g>
			<g>
				<path class="st0" d="M89.4,62.2l-25.6,71.3h8.3c3.9,0,6.7-0.4,8.2-1.3c2.5-1.3,4.7-3.8,6.6-7.4c1.8-3.6,3.1-8.4,3.8-14.4H92
					l-1.8,27.3H50.3L76,66.3h-6.5c-2.5,0-4.2,0.1-5,0.4c-1.5,0.5-2.9,1.4-4.2,2.9c-1.3,1.4-2.4,3.3-3.3,5.7c-0.9,2.4-1.5,5.4-2,9
					h-1.2L55,62.2H89.4z"/>
				<path class="st0" d="M124.1,60.5l0.4,25.2h-1.3c-0.6-6.3-2.1-11.4-4.6-15.2s-5.1-5.8-7.9-5.8c-2.2,0-3.9,1-5.2,3
					c-1.3,2-1.9,4.4-1.9,7c0,1.7,0.2,3.2,0.7,4.5c0.6,1.7,1.6,3.5,3,5.2c1,1.2,3.3,3.4,7,6.5c5.1,4.3,8.5,8.5,10.3,12.3
					c1.8,3.9,2.6,8.3,2.6,13.3c0,6.3-1.4,11.8-4.3,16.3c-2.8,4.6-6.4,6.8-10.8,6.8c-1.4,0-2.7-0.2-3.9-0.7c-1.2-0.5-2.8-1.4-4.6-2.7
					c-1-0.7-1.9-1.1-2.5-1.1c-0.6,0-1.1,0.4-1.8,1.1c-0.6,0.7-1.1,1.9-1.5,3.4h-1.2V111h1.2c0.9,8,2.8,14.1,5.4,18.4
					c2.7,4.2,5.6,6.3,8.7,6.3c2.4,0,4.3-1.1,5.7-3.4c1.4-2.3,2.1-4.9,2.1-7.9c0-1.8-0.3-3.5-0.8-5.2s-1.4-3.3-2.5-4.8
					c-1.1-1.5-3.1-3.5-5.9-5.9c-4-3.4-6.8-6.3-8.6-8.6c-1.7-2.4-3.1-5-4-8c-0.9-2.9-1.4-6.2-1.4-9.7c0-6,1.3-11.1,3.8-15.4
					s5.8-6.4,9.6-6.4c1.4,0,2.8,0.3,4.1,0.9c1,0.4,2.2,1.3,3.7,2.5c1.4,1.2,2.5,1.8,3,1.8c0.6,0,1-0.3,1.3-0.9
					c0.3-0.6,0.6-2,0.9-4.3H124.1z"/>
			</g>
			<g>
				<path class="st0" d="M30.8,38.4l6.7-3.7l2.1,3.8L41.4,52l4.5-2.5l2.2,4.1l-7.3,4.1l-2.2-3.9l-1.8-13.4L33,42.5L30.8,38.4z"/>
				<path class="st0" d="M44.2,31.6l6.5-2.5l1.6,4.3L48.3,35l1.2,3.2l3.8-1.5l1.6,4.1l-3.8,1.5l1.5,4l4.2-1.6l1.7,4.6l-6.7,2.6
					L44.2,31.6z"/>
				<path class="st0" d="M57.8,26.8l2.4-0.6l5.8,11l-2.7-11.7l2.4-0.6l4.8,21.1l-2.4,0.6l-5.7-10.9L65,47.4L62.6,48L57.8,26.8z"/>
				<path class="st0" d="M72.7,23.8l7.9-0.7l0.4,5.3l-2.7,0.2L79.6,45L77,45.3L75.8,29l-2.7,0.2L72.7,23.8z"/>
				<path class="st0" d="M87.5,23.2l2.6,0.1l-1,21.7l-2.6-0.1L87.5,23.2z"/>
				<path class="st0" d="M97.4,23.9l2.4,0.4l1.3,12.4l1.9-11.9l2.4,0.4L102,46.5l-2.4-0.4l-1.3-12.3l-1.9,11.8L94,45.3L97.4,23.9z"
					/>
				<path class="st0" d="M112.2,26.4l6.8,1.7l-1.2,4.5l-4.2-1.1l-0.9,3.3l3.9,1l-1.1,4.3l-3.9-1l-1.1,4.2l4.4,1.1l-1.2,4.8l-6.9-1.7
					L112.2,26.4z"/>
				<path class="st0" d="M125.3,30.1l2.5,0.9l-5.5,15.5l3.8,1.3l-1.8,5.1l-6.3-2.2L125.3,30.1z"/>
				<path class="st0" d="M134.5,53.3l-2.7-1.2l-1.9,3.1l-2.4-1.1l12.1-18.4l2.6,1.2l-6.4,21.1l-2.5-1.1L134.5,53.3z M136,48.8
					l2.5-7.5l-4.2,6.7L136,48.8z"/>
			</g>
			<g>
				<path class="st0" d="M27.4,150.9l2.6-0.4c0.1,1,0.2,1.8,0.3,2.3c0.3,0.9,0.7,1.3,1.2,1.3c0.4,0,0.7-0.2,0.9-0.7
					c0.2-0.4,0.3-1,0.3-1.5c0-0.6-0.1-1.1-0.3-1.5c-0.2-0.4-0.7-0.9-1.4-1.2c-1.2-0.7-2-1.5-2.5-2.6c-0.5-1.1-0.8-2.5-0.8-4.1
					c0-1.1,0.1-2.1,0.4-3.1c0.3-1,0.7-1.7,1.2-2.3c0.5-0.6,1.2-0.8,2.2-0.8c1.1,0,2,0.5,2.6,1.5s0.9,2.6,1.1,4.9l-2.6,0.4
					c-0.1-1-0.2-1.7-0.4-2.1c-0.2-0.4-0.5-0.7-0.9-0.7c-0.3,0-0.6,0.2-0.7,0.5c-0.2,0.3-0.2,0.7-0.2,1.2c0,0.3,0.1,0.6,0.2,0.9
					c0.1,0.3,0.4,0.5,0.9,0.8c1.2,0.6,2,1.3,2.6,1.9c0.5,0.6,0.9,1.4,1.1,2.4c0.2,0.9,0.4,2,0.4,3.2c0,1.4-0.2,2.6-0.5,3.8
					c-0.3,1.2-0.7,2-1.3,2.6c-0.6,0.6-1.3,0.9-2.1,0.9c-1.5,0-2.5-0.7-3.1-2.1C27.8,154.8,27.5,153.1,27.4,150.9z"/>
				<path class="st0" d="M41.8,147.3h7.3v4.6h-4.6v3.4h4.2v4.4h-4.2v4.2h4.7v4.8h-7.4V147.3z"/>
				<path class="st0" d="M60.6,168.1v-4.4h4.2v9.1c-0.8,1.3-1.5,2.2-2.1,2.7s-1.3,0.7-2.2,0.7c-1,0-1.9-0.4-2.6-1.3
					c-0.7-0.9-1.2-2.2-1.5-3.9c-0.4-1.7-0.5-3.7-0.5-5.9c0-2.3,0.2-4.4,0.6-6.1c0.4-1.7,1-3,1.7-3.9c0.6-0.7,1.4-1,2.4-1
					c1,0,1.7,0.2,2.2,0.6c0.5,0.4,0.9,1.1,1.2,2c0.3,0.9,0.6,2,0.7,3.4l-2.6,1.1c-0.1-0.8-0.3-1.4-0.5-1.9c-0.3-0.4-0.6-0.6-1-0.6
					c-0.6,0-1.1,0.5-1.4,1.5c-0.4,1-0.5,2.6-0.5,4.8c0,2.3,0.2,4,0.5,5c0.4,1,0.9,1.5,1.5,1.5c0.3,0,0.6-0.1,0.9-0.3
					c0.3-0.2,0.6-0.6,0.9-1.1v-2H60.6z"/>
				<path class="st0" d="M77.7,157.6h2.7v12.7c0,1.3-0.1,2.5-0.2,3.6c-0.2,1.1-0.4,2.1-0.8,2.9c-0.3,0.8-0.7,1.4-1.1,1.8
					c-0.5,0.5-1.2,0.7-1.9,0.7c-0.4,0-0.9-0.1-1.4-0.2s-0.9-0.4-1.3-0.9c-0.3-0.4-0.7-1-0.9-1.8c-0.3-0.8-0.5-1.6-0.6-2.5
					c-0.2-1.4-0.3-2.6-0.3-3.6v-12.7h2.7v13c0,1.2,0.1,2.1,0.4,2.7c0.3,0.7,0.6,1,1.1,1c0.5,0,0.8-0.3,1.1-1
					c0.3-0.6,0.4-1.6,0.4-2.7V157.6z"/>
				<path class="st0" d="M87.7,179.7v-21.4h4.5c0.8,0,1.5,0.2,1.9,0.5c0.4,0.4,0.8,1,1.1,1.9c0.3,0.9,0.4,2.1,0.4,3.5
					c0,1.2-0.1,2.2-0.3,3.1c-0.2,0.9-0.5,1.6-0.9,2.1c-0.2,0.3-0.5,0.6-1,0.8c0.3,0.3,0.6,0.5,0.7,0.8c0.1,0.2,0.2,0.6,0.4,1.1
					c0.2,0.6,0.3,1,0.4,1.3l1.3,6.2h-3.1l-1.5-6.5c-0.2-0.8-0.3-1.4-0.5-1.6c-0.2-0.3-0.4-0.5-0.7-0.5h-0.2v8.7H87.7z M90.4,167h1.1
					c0.1,0,0.4-0.1,0.7-0.3c0.2-0.1,0.3-0.3,0.4-0.7c0.1-0.4,0.2-0.8,0.2-1.2c0-0.7-0.1-1.2-0.3-1.6s-0.5-0.6-1-0.6h-1.2V167z"/>
				<path class="st0" d="M102.8,158.1h2.7v21.4h-2.7V158.1z"/>
				<path class="st0" d="M113,155.4h4c0.8,0,1.4,0.3,1.9,0.8c0.5,0.5,0.9,1.3,1.2,2.3c0.3,1,0.6,2.1,0.7,3.4
					c0.1,1.3,0.2,2.7,0.2,4.1c0,2.3-0.1,4.1-0.3,5.3c-0.2,1.3-0.5,2.3-0.9,3.2c-0.4,0.9-0.8,1.4-1.2,1.7c-0.6,0.4-1.1,0.6-1.6,0.6
					h-4V155.4z M115.7,160.2v11.7h0.7c0.6,0,1-0.2,1.2-0.5c0.2-0.3,0.4-0.8,0.6-1.6c0.1-0.8,0.2-2,0.2-3.7c0-2.3-0.2-3.8-0.5-4.7
					c-0.3-0.8-0.8-1.3-1.5-1.3H115.7z"/>
				<path class="st0" d="M132.3,165.5h-3.1l-0.4,3.5H126l3.3-21.4h3l3.3,21.4h-2.8L132.3,165.5z M131.7,160.9l-1-7.7l-1,7.7H131.7z"
					/>
				<path class="st0" d="M140,139.6h4c0.8,0,1.4,0.3,1.9,0.8c0.5,0.5,0.9,1.3,1.2,2.3c0.3,1,0.6,2.1,0.7,3.4
					c0.1,1.3,0.2,2.7,0.2,4.1c0,2.3-0.1,4.1-0.3,5.3c-0.2,1.3-0.5,2.3-0.9,3.2c-0.4,0.9-0.8,1.4-1.2,1.7c-0.6,0.4-1.1,0.6-1.6,0.6
					h-4V139.6z M142.7,144.5v11.7h0.7c0.6,0,1-0.2,1.2-0.5c0.2-0.3,0.4-0.8,0.6-1.6c0.1-0.8,0.2-2,0.2-3.7c0-2.3-0.2-3.8-0.5-4.7
					c-0.3-0.8-0.8-1.3-1.5-1.3H142.7z"/>
			</g>
		</g>
	</g>
</g>
</svg>
