<svg width="204" height="70" viewBox="0 0 204 70" fill="none" xmlns="http://www.w3.org/2000/svg">
<path d="M9.89995 0H28.9V11.4L16.7 44.7H29.4V57H8.69995V45.2L20.8 12.2H9.89995V0Z" fill="#BB0E1D"/>
<path d="M32.3999 0H50.3999V12.2H39.1999V21.3H49.6999V32.9H39.1999V44.1H50.7999V57H32.3999V0Z" fill="#BB0E1D"/>
<path d="M54.3999 0H60.6999L68.8999 31.5V0H75.1999V57H68.8999L60.6999 25.7V57H54.3999V0Z" fill="#BB0E1D"/>
<path d="M78.2 0H98.7V14.1H91.8V57H85.1V14.1H78.2V0Z" fill="#BB0E1D"/>
<path d="M102 0H108.7V57H102V0Z" fill="#BB0E1D"/>
<path d="M113.6 0H119.9L128.1 31.5V0H134.4V57H128.1L119.9 25.7V57H113.6V0Z" fill="#BB0E1D"/>
<path d="M138.9 0H156.9V12.2H145.6V21.3H156.1V32.9H145.6V44.1H157.2V57H138.8V0H138.9Z" fill="#BB0E1D"/>
<path d="M160.9 0H167.6V42.9H178.1V56.9H160.9V0Z" fill="#BB0E1D"/>
<path d="M194.5 47.6H186.9L185.8 57H179L187.2 0H194.5L202.7 57H195.7L194.5 47.6ZM193.1 35.2L190.7 14.7L188.3 35.2H193.1Z" fill="#BB0E1D"/>
<path d="M6.6 69.6L0 67.3V67L5.4 60.6L0 54.3V54L6.6 51.7V53.2L1.9 54.8L6.6 60.4V60.8L1.8 66.4L6.6 67.9V69.6Z" fill="#BB0E1D"/>
<path d="M0 42.3L6.6 35V36.7L4.4 39.2V46L6.6 48.5V50.3L0 42.7V42.3ZM1.4 42.5L3.8 45.2V39.8L1.4 42.5Z" fill="#BB0E1D"/>
<path d="M0 32.4V29.3C0 28.1 0.1 27.1 0.2 26.4C0.3 25.7 0.5 25.2 0.8 24.8C1.1 24.4 1.3 24.2 1.7 24.2C2 24.2 2.3 24.4 2.5 24.7C2.7 25 2.9 25.5 3.1 26.2C3.2 25.4 3.4 24.8 3.5 24.3C3.7 23.9 3.8 23.5 4.1 23.3C4.4 23.1 4.4 23 4.7 23C5.2 23 5.7 23.5 6 24.4C6.3 25.3 6.5 26.6 6.5 28.1V32.4H0ZM0.6 30.9H2.7V30C2.7 28.9 2.7 28.1 2.6 27.6C2.5 27.1 2.4 26.7 2.2 26.4C2 26.1 1.8 25.9 1.6 25.9C1.3 25.9 1.1 26.2 0.9 26.7C0.7 27.2 0.6 28 0.6 29.1V30.9ZM3.4 30.9H6V28.9C6 27.7 6 26.9 5.9 26.4C5.8 25.9 5.7 25.4 5.5 25.1C5.3 24.8 5.1 24.6 4.8 24.6C4.5 24.6 4.3 24.8 4 25.3C3.8 25.8 3.6 26.4 3.6 27.2C3.5 27.7 3.5 28.7 3.5 30V30.9H3.4Z" fill="#BB0E1D"/>
<path d="M0 19.9V10.9H0.6V18.4H2.7V11H3.3V18.4H6V11H6.6V20H0V19.9Z" fill="#BB0E1D"/>
<path d="M0 8.1V6.6H6V0.5H6.6V8.1H0Z" fill="#BB0E1D"/>
<path d="M10.3999 67.7L11.4999 67.2C12.2999 68.2 13.1999 68.7 14.2999 68.7C14.6999 68.7 15.1999 68.6 15.5999 68.5C15.9999 68.4 16.2999 68.2 16.4999 67.9C16.6999 67.7 16.7999 67.4 16.7999 67.2C16.7999 66.9 16.5999 66.6 16.2999 66.3C15.8999 65.9 15.0999 65.4 13.9999 64.9C12.8999 64.3 12.1999 63.9 11.8999 63.7C11.3999 63.3 11.1999 62.8 11.1999 62.3C11.1999 61.9 11.2999 61.6 11.5999 61.2C11.8999 60.8 12.2999 60.6 12.7999 60.4C13.2999 60.2 13.8999 60.1 14.4999 60.1C15.0999 60.1 15.6999 60.2 16.2999 60.4C16.8999 60.6 17.3999 61 17.9999 61.5L16.8999 62.1C16.3999 61.7 15.9999 61.4 15.5999 61.2C15.1999 61.1 14.8999 61 14.3999 61C13.8999 61 13.3999 61.1 13.0999 61.3C12.7999 61.5 12.5999 61.8 12.5999 62.1C12.5999 62.3 12.6999 62.5 12.7999 62.7C12.8999 62.9 13.0999 63.1 13.4999 63.3C13.6999 63.4 14.2999 63.7 15.1999 64.2C16.3999 64.8 17.1999 65.3 17.5999 65.7C17.9999 66.1 18.1999 66.6 18.1999 67C18.1999 67.6 17.7999 68.2 17.0999 68.7C16.3999 69.2 15.4999 69.4 14.3999 69.4C13.5999 69.4 12.7999 69.3 12.1999 69C11.5999 68.9 10.8999 68.4 10.3999 67.7Z" fill="#BB0E1D"/>
<path d="M21.0999 60.5H28.7999V61.4H22.4999V64.2H28.7999V65H22.4999V68.5H28.7999V69.4H21.1999V60.5H21.0999Z" fill="#BB0E1D"/>
<path d="M44 62L43 62.7C42.3 62.2 41.4 61.8 40.5 61.6C39.6 61.3 38.7 61.2 37.9 61.2C36.9 61.2 35.9 61.4 34.9 61.7C34 62 33.2 62.5 32.7 63.1C32.2 63.7 31.9 64.3 31.9 65C31.9 65.7 32.2 66.3 32.7 66.9C33.2 67.5 34 68 34.9 68.3C35.9 68.6 36.9 68.8 38 68.8C39.4 68.8 40.5 68.5 41.5 68C42.5 67.5 43 66.8 43.2 66H39V65.1H44.8C44.8 66.5 44.2 67.6 43 68.4C41.8 69.2 40.2 69.6 38.1 69.6C35.6 69.6 33.7 69 32.2 67.9C31.1 67 30.5 66 30.5 64.9C30.5 64.1 30.8 63.3 31.5 62.5C32.2 61.7 33 61.2 34.1 60.8C35.2 60.4 36.5 60.2 37.9 60.2C39 60.2 40.1 60.3 41.1 60.6C42 60.9 43 61.4 44 62Z" fill="#BB0E1D"/>
<path d="M47.2998 60.5H48.5998V65.9C48.5998 66.5 48.5998 66.9 48.6998 67.1C48.7998 67.5 48.8998 67.7 49.1998 68C49.4998 68.3 49.7998 68.4 50.2998 68.6C50.7998 68.8 51.2998 68.8 51.7998 68.8C52.1998 68.8 52.6998 68.7 53.0998 68.6C53.4998 68.5 53.7998 68.3 54.0998 68.1C54.3998 67.9 54.5998 67.6 54.6998 67.3C54.7998 67.1 54.7998 66.6 54.7998 65.9V60.5H56.0998V65.9C56.0998 66.7 55.9998 67.3 55.6998 67.8C55.4998 68.3 54.9998 68.7 54.2998 69.1C53.5998 69.5 52.7998 69.6 51.7998 69.6C50.6998 69.6 49.7998 69.4 48.9998 69.1C48.1998 68.8 47.6998 68.3 47.4998 67.7C47.2998 67.4 47.2998 66.7 47.2998 65.8V60.5Z" fill="#BB0E1D"/>
<path d="M59.5999 60.5H62.2999C63.7999 60.5 64.7999 60.5 65.2999 60.6C66.0999 60.7 66.6999 61 67.1999 61.4C67.6999 61.8 67.8999 62.3 67.8999 62.9C67.8999 63.4 67.6999 63.8 67.3999 64.2C67.0999 64.6 66.5999 64.8 65.9999 65C65.3999 65.2 64.4999 65.3 63.3999 65.3L68.1999 69.4H66.4999L61.6999 65.3H60.8999V69.4H59.5999V60.5ZM60.8999 61.4V64.4H63.1999C64.0999 64.4 64.7999 64.3 65.1999 64.2C65.5999 64.1 65.9999 63.9 66.1999 63.7C66.3999 63.5 66.5999 63.2 66.5999 62.9C66.5999 62.6 66.4999 62.3 66.1999 62.1C65.9999 61.9 65.5999 61.7 65.1999 61.6C64.7999 61.5 64.0999 61.4 63.1999 61.4H60.8999Z" fill="#BB0E1D"/>
<path d="M70.5999 60.5H71.9999V69.4H70.6999V60.5H70.5999Z" fill="#BB0E1D"/>
<path d="M75 69.4V60.5H77.8C79.8 60.5 81.3 60.6 82.2 60.8C83.5 61.1 84.5 61.6 85.2 62.4C85.9 63.1 86.3 64 86.3 65.1C86.3 66 86 66.8 85.4 67.5C84.8 68.2 84.1 68.7 83.1 69C82.2 69.3 80.9 69.5 79.2 69.5H75V69.4ZM76.3 68.5H77.8C79.7 68.5 80.9 68.4 81.7 68.3C82.7 68.1 83.5 67.7 84.1 67.1C84.7 66.5 85 65.8 85 65C85 64.1 84.7 63.4 84.1 62.8C83.5 62.2 82.6 61.8 81.5 61.6C80.7 61.4 79.3 61.3 77.4 61.3H76.5V68.5H76.3Z" fill="#BB0E1D"/>
<path d="M94.4 60.5L100.6 69.4H99.2L97.1 66.5H91.3L89.2 69.4H87.7L94 60.5H94.4ZM94.2 62.4L91.9 65.6H96.5L94.2 62.4Z" fill="#BB0E1D"/>
<path d="M102.7 69.4V60.5H105.5C107.5 60.5 109 60.6 109.9 60.8C111.2 61.1 112.2 61.6 112.9 62.4C113.6 63.1 114 64 114 65.1C114 66 113.7 66.8 113.1 67.5C112.5 68.2 111.8 68.7 110.8 69C109.9 69.3 108.6 69.5 106.9 69.5H102.7V69.4ZM104 68.5H105.5C107.4 68.5 108.6 68.4 109.4 68.3C110.4 68.1 111.2 67.7 111.8 67.1C112.4 66.5 112.7 65.8 112.7 65C112.7 64.1 112.4 63.4 111.8 62.8C111.2 62.2 110.3 61.8 109.2 61.6C108.4 61.4 107 61.3 105.1 61.3H104V68.5Z" fill="#BB0E1D"/>
<path d="M126.9 60.5H129.6C131.1 60.5 132.2 60.5 132.7 60.6C133.5 60.7 134.1 61 134.6 61.4C135.1 61.8 135.3 62.3 135.3 62.9C135.3 63.5 135.1 64 134.6 64.4C134.1 64.8 133.5 65 132.6 65.2C132 65.3 130.9 65.3 129.2 65.3H128.2V69.4H126.9V60.5ZM128.2 61.4V64.4H130.5C131.4 64.4 132.1 64.3 132.5 64.2C132.9 64.1 133.3 63.9 133.5 63.7C133.7 63.5 133.9 63.2 133.9 62.9C133.9 62.6 133.8 62.3 133.5 62.1C133.3 61.9 132.9 61.7 132.5 61.6C132.1 61.5 131.5 61.4 130.5 61.4H128.2Z" fill="#BB0E1D"/>
<path d="M138 60.5H140.7C142.2 60.5 143.2 60.5 143.7 60.6C144.5 60.7 145.1 61 145.6 61.4C146.1 61.8 146.3 62.3 146.3 62.9C146.3 63.4 146.1 63.8 145.8 64.2C145.5 64.6 145 64.8 144.3 65C143.6 65.2 142.8 65.3 141.7 65.3L146.5 69.4H144.8L140 65.3H139.2V69.4H138V60.5ZM139.3 61.4V64.4H141.6C142.5 64.4 143.2 64.3 143.6 64.2C144 64.1 144.4 63.9 144.6 63.7C144.8 63.5 145 63.2 145 62.9C145 62.6 144.9 62.3 144.6 62.1C144.4 61.9 144 61.7 143.6 61.6C143.2 61.5 142.5 61.4 141.6 61.4H139.3Z" fill="#BB0E1D"/>
<path d="M149 60.5H150.3V69.4H149V60.5Z" fill="#BB0E1D"/>
<path d="M152.4 60.5H153.9L158.3 67.4L162.8 60.5H164.3L158.5 69.4H158.2L152.4 60.5Z" fill="#BB0E1D"/>
<path d="M169.7 60.5L175.9 69.4H174.5L172.4 66.5H166.6L164.5 69.4H163L169.3 60.5H169.7ZM169.5 62.4L167.2 65.6H171.8L169.5 62.4Z" fill="#BB0E1D"/>
<path d="M178 69.4V60.5H180.8C182.8 60.5 184.3 60.6 185.2 60.8C186.5 61.1 187.5 61.6 188.2 62.4C188.9 63.1 189.3 64 189.3 65.1C189.3 66 189 66.8 188.4 67.5C187.8 68.2 187.1 68.7 186.1 69C185.2 69.3 183.9 69.5 182.2 69.5H178V69.4ZM179.3 68.5H180.8C182.7 68.5 183.9 68.4 184.7 68.3C185.7 68.1 186.5 67.7 187.1 67.1C187.7 66.5 188 65.8 188 65C188 64.1 187.7 63.4 187.1 62.8C186.5 62.2 185.6 61.8 184.5 61.6C183.7 61.4 182.3 61.3 180.4 61.3H179.5V68.5H179.3Z" fill="#BB0E1D"/>
<path d="M197.4 60.5L203.6 69.4H202.2L200.1 66.5H194.3L192.2 69.4H190.7L197 60.5H197.4ZM197.2 62.4L194.9 65.6H199.5L197.2 62.4Z" fill="#BB0E1D"/>
</svg>
