<svg width="126" height="160" viewBox="0 0 126 160" fill="none" xmlns="http://www.w3.org/2000/svg">
<g clip-path="url(#clip0)">
<path d="M44.5 22.1L79.9 1.90002V112.9L44.5 133.3V22.1Z" fill="#353535"/>
<path d="M44.5 133.3L41.3 131.4V20.2L44.5 22.1V133.3Z" fill="#232323"/>
<path d="M79.9001 1.9L76.7 0L41.3 20.2L44.5 22.1L79.9001 1.9Z" fill="#565656"/>
<path d="M44.6001 22.1V31.3L86.8001 55.9V46.7L44.6001 22.1Z" fill="#808080"/>
<path d="M122.2 26.5L86.8001 46.7L44.6001 22.1L79.8001 1.90002L122.2 26.5Z" fill="#C5C5C5"/>
<path d="M90.1001 48.6L125.5 28.4V139.4L90.1001 159.8V48.6Z" fill="#353535"/>
<path d="M90.1 159.8L86.8 157.9V46.7L90.1 48.6V159.8Z" fill="#232323"/>
<path d="M125.5 28.4L122.2 26.5L86.8 46.7L90.1 48.6L125.5 28.4Z" fill="#565656"/>
<path d="M65.1999 41.3L46.7 30.6V25.2L65.1999 35.9V41.3Z" fill="#232323"/>
<path d="M72.7 40V42.9L84.6 49.7V46.9L72.7 40Z" fill="white"/>
<path d="M72.7 44.4V46L84.6 52.8V51.3L72.7 44.4Z" fill="white"/>
<path d="M58 34.6C58 35.2 58.4 36 58.9 36.2C59.4 36.5 59.8 36.2 59.8 35.5C59.8 34.9 59.4 34.1 58.9 33.9C58.4 33.7 58 33.9 58 34.6Z" fill="#F3605C"/>
<path d="M61.4001 36.5C61.4001 37.1 61.8001 37.9 62.3001 38.1C62.8001 38.4 63.2001 38.1 63.2001 37.4C63.2001 36.8 62.8001 36 62.3001 35.8C61.8001 35.5 61.4001 35.8 61.4001 36.5Z" fill="#358BC7"/>
<path d="M28.6001 78.8C28.6001 78.8 30.5001 80.4 32.3001 81.3C34.1001 82.2 36.4001 83 37.5001 83.9C38.6001 84.8 40.0001 86.5 41.6001 86.7C42.9001 86.9 45.0001 87.2 45.7001 86.9C46.5001 86.6 46.9001 85.1 45.4001 84.3C43.1001 83.1 43.0001 82.6 42.6001 82.2C42.1001 81.9 43.5001 81.2 44.2001 80.8C44.9001 80.4 44.7001 79.8 43.9001 80.1C43.2001 80.4 41.8001 80.1 41.0001 80.3C40.2001 80.5 39.6001 80.9 38.5001 80.2C37.5001 79.7 34.3001 77.2 32.6001 75.9C30.9001 74.5 30.5001 74.1 30.5001 74.1L28.6001 78.8Z" fill="#FFC3B1"/>
<path d="M19.5 63.1C19.5 63.1 21.3 62.7 23.1 64.5C24.5 65.9 28.6 69.7 30.2 71.8C31.1 72.9 33.5 76.7 36.7 78.4C39.1 79.7 39.2 80.5 39.1 80.9C39.1 81 39.1 84.2 36.8 84.2C34.5 84.2 30.9 80.9 29.3 80.1C27.7 79.3 25.2 77 23.6 74.8C22.7 73.6 21.3 73.2 21.3 73.2C21.3 73.2 17.3 65 17.9 64C18.4 62.9 19.5 63.1 19.5 63.1Z" fill="#2A78B3"/>
<path d="M25.7 136.3C25.7 136.3 26.8 137.5 28.3 138.9C29.7 140.2 30.1 140.6 31.3 141.8C32 142.5 31.4 143.2 30 143.1C28.8 143.1 26 142.5 24.4 141.9C23.3 141.5 21.2 140.4 20.2 139.7C19.2 139 19 138.1 19 138.1V136L25.7 136.3Z" fill="#161616"/>
<path d="M10.9001 143.3C10.9001 143.3 11.2001 145.6 11.3001 148.4C11.5001 151.3 11.1001 153.8 10.2001 154.1C9.30007 154.4 6.80007 154.4 5.40007 150.4C4.00007 146.4 4.80007 142.6 4.80007 142.6L10.9001 143.3Z" fill="#161616"/>
<path d="M5.39996 100C4.89996 91.9001 9.39996 87.6 9.39996 87.6C8.99996 84.9 21.7 88.7 21.7 88.7C21.7 88.7 24.4 103.4 25.6 111.2C26.9 120 26.3 135.7 26.3 135.7C26.3 135.7 26.1 137.6 22.9 137.6C20.4 137.6 18.3 135.5 18.3 135.5L18 117.2L14.6 104.6C14.6 104.6 14.7 117.1 13.2 122.2C11 129.8 11.7 144.3 11.7 144.3C11.7 144.3 7.39996 145.8 4.49996 144.4C1.59996 142.9 2.19996 141.3 2.19996 141.3C2.19996 141.3 1.19996 128.8 4.99996 120.4C5.29996 114 5.59996 103.7 5.39996 100Z" fill="#232323"/>
<path d="M22.5999 93.5L22.7999 95.3C22.7999 95.3 19.8999 98.5 14.1999 98.5C8.4999 98.5 5.3999 96.7 5.3999 96.7L5.7999 95L22.5999 93.5Z" fill="#161616"/>
<path d="M7.69995 107.7L7.89995 104.5C7.89995 104.5 6.89995 104.2 6.99995 103.1C7.09995 102.1 8.09995 101.7 8.79995 102.2C9.09995 102.4 9.39995 102.8 9.29995 103.6C9.19995 104.4 8.49995 104.5 8.49995 104.5C8.49995 104.5 8.29995 107.2 8.29995 107.7C8.29995 108.2 8.09995 108.2 7.69995 108.2C7.29995 108.1 7.09995 108.1 7.09995 108.1V107.6L7.69995 107.7ZM8.29995 103.9C8.79995 103.8 8.99995 102.6 8.09995 102.7C7.79995 102.7 7.59995 103.1 7.59995 103.4C7.69995 103.7 7.99995 104 8.29995 103.9Z" fill="#C4BEBB"/>
<path d="M9.99989 105L9.49989 101.9C9.49989 101.9 8.39989 101.9 8.29989 100.7C8.19989 99.7001 9.09989 99.1001 9.79989 99.4001C10.0999 99.5001 10.4999 99.8001 10.5999 100.7C10.5999 101.5 10.0999 101.8 10.0999 101.8C10.0999 101.8 10.4999 104.4 10.5999 105C10.6999 105.5 10.5999 105.6 10.0999 105.6C9.69989 105.6 9.49989 105.6 9.49989 105.6L9.39989 105H9.99989ZM9.69989 101.1C10.1999 100.9 10.0999 99.7001 9.29989 100C8.99989 100.1 8.89989 100.5 8.99989 100.8C9.09989 101.1 9.39989 101.2 9.69989 101.1Z" fill="#D6CFCC"/>
<path d="M7.5 104.6L7.7 101.4C7.7 101.4 6.7 101.1 6.8 100C6.9 99 7.9 98.6 8.6 99.1C8.9 99.3 9.2 99.7 9.1 100.5C9 101.3 8.3 101.4 8.3 101.4C8.3 101.4 8.1 104.1 8.1 104.6C8.1 105.1 7.9 105.1 7.5 105.1C7.1 105.1 6.9 105 6.9 105V104.5L7.5 104.6ZM8 100.8C8.5 100.7 8.7 99.5 7.8 99.6C7.5 99.6 7.3 100 7.3 100.3C7.5 100.6 7.7 100.8 8 100.8Z" fill="#EBE4E0"/>
<path d="M9.4 100.3C9.5 100.3 9.5 100.2 9.5 100.2V98.7C9.5 97.8 9.2 97.7 8.8 97.6H8.7C8.6 97.6 8.5 97.6 8.4 97.7C8 98.1 8 99.7 8 99.9C8 100 8.1 100 8.1 100C8.2 100 8.2 99.9 8.2 99.9C8.2 99.2 8.3 98.1 8.5 97.9H8.6H8.7C9 98 9.2 98 9.2 98.8V100.3C9.3 100.2 9.4 100.3 9.4 100.3Z" fill="#595959"/>
<path d="M9.19989 96.6C9.19989 96.6 9.19989 97.5 9.19989 97.9C9.19989 98.3 8.99989 98.5 8.69989 98.4C8.39989 98.2 8.49989 97.9 8.49989 97.3C8.49989 96.8 8.49989 96.6 8.49989 96.6H9.19989Z" fill="#EBE4E0"/>
<path d="M24.0001 92.5C23.8001 93.1 23.2001 93.4 22.8001 93.8C18.4001 97.8 10.9001 98.4 5.60012 95.6C4.80012 95.1 5.10012 93.5 5.20012 92.7C5.30012 90.8 5.60012 89 6.00012 87.4C7.30012 82 4.90012 72.3 5.00012 70.8C5.30012 68.3 10.3001 66.6 10.3001 66.6C10.3001 66.6 15.3001 64.3 19.4001 64.8C19.4001 64.8 23.8001 68.3 24.3001 73.3C24.6001 75.8 23.5001 82.8 23.5001 88.3C23.5001 89.1 24.3001 91.4 24.0001 92.5Z" fill="#358BC7"/>
<path d="M20.7999 89C20.7999 89 19.0999 91.6 18.3999 92.9C17.8999 93.9 16.9999 95.6 16.5999 96.5C16.1999 97.5 17.7999 98.9 18.6999 97.4C18.9999 96.8 20.0999 94.9 20.5999 93.7C20.9999 92.9 22.3999 89.7 22.3999 89.7L20.7999 89Z" fill="#F3605C"/>
<path d="M20.2 89.9L28 74.4L29.6 75.1L30.2 75.9L22.2999 91L20.2 89.9Z" fill="#808080"/>
<path d="M19.5 89.5L27.2 74L29.6 75.1L21.6 90.6L19.5 89.5Z" fill="#C5C5C5"/>
<path d="M15.8001 90.9C15.8001 90.9 18.2001 90.3 18.9001 90.3C19.6001 90.3 19.9001 91 19.9001 91C19.9001 91 21.2001 91.1 21.6001 91.6C22.1001 92.1 22.0001 92.3 21.8001 92.7C21.7001 93.1 22.0001 93.5 21.8001 93.8C21.6001 94.2 21.2001 94.3 21.2001 94.7C21.2001 95.1 21.3001 95.3 20.5001 95.6C20.3001 95.7 20.3001 96.2 20.2001 96.3C19.7001 96.9 18.5001 96.5 18.0001 96.3C17.3001 96 14.1001 94.3 14.1001 94.3L15.8001 90.9Z" fill="#FFC3B1"/>
<path d="M7.2 88C6.4 89.9 5.2 92 2.7 92C1.1 92 0 89.8 0 88.2C0 84.3 0.6 80 1.5 76.5C2.6 71.7 3.5 68.5 6.4 68.8C7.5 69.5 8.3 73.1 8.3 76.9L7.2 88Z" fill="#2A78B3"/>
<path d="M16.4 90.3C16.7 90.8 16.7 92.2 16 93.4C15.5 94.3 15.1 95 14.5 95.1C13.2 95.3 10.8 94.5 9.20003 94.2C7.60003 93.9 2.00003 93.5 0.700033 90.7C3.25441e-05 89 4.10003 85.9 6.20003 86C7.80003 86.1 11.7 88 14 89.2C15.2 90 16.1 89.7 16.4 90.3Z" fill="#2A78B3"/>
<path d="M19.3 68.5C19.3 68.5 19.5 70.5 19.6 72.2C19.8 73.9 19 77.5 19 77.5C19 77.5 15.9 74.4 15.3 73.6C14.6 72.9 13.7 71.1 13.7 71.1L19.3 68.5Z" fill="white"/>
<path d="M11.2998 66.1L12.0998 61.5L17.0998 65.1L17.6998 68.5C17.6998 68.5 18.0998 69.4 17.9998 70.2C15.4998 69.1 12.7998 68.5 11.2998 66.1Z" fill="#FFAB95"/>
<path d="M18.7999 75.6C18.3999 75.2 17.9 74.9 17.5 74.5L17.2 70.9L17.9 70.8C17.9 70.8 18.8 72.3 19.2 73.5C19.2 73.6 19.1 73.6 19.1 73.7C19.1 74.4 18.8999 75 18.7999 75.6Z" fill="#232323"/>
<path d="M18 69.1C18 69.1 18.6 70.5 18.2 71.6C18.1 71.7 17.2 71.9 17.2 71.9C17.2 71.9 16.5 70.9 16.2 69.7C16.6 69.6 17.1 69.5 17.4 69.7C17.6999 69.1 18 69.1 18 69.1Z" fill="#232323"/>
<path d="M11.6999 66.1C12.2999 67.6 13.5999 69 14.3999 70.2C15.3999 71.6 18.6999 75.5 18.6999 75.5C18.6999 75.5 18.9999 72.1 18.8999 70.2C18.6999 68.3 17.4999 65.7 17.4999 65.7L18.1999 65.3C18.1999 65.3 19.9999 68.9 20.2999 71.4C20.4999 73.8 19.3999 78.6 19.3999 78.6C19.3999 78.6 17.2999 76.1 15.1999 73.8C13.0999 71.5 12.4999 70.7 11.3999 68.9C11.1999 68.6 10.3999 67.2 10.3999 66.8C10.7999 66.4 11.2999 66.2 11.6999 66.1Z" fill="#2A78B3"/>
<path d="M17.2 66C17.5 67.7 17.2999 69.5 17.2999 69.5C17.2999 69.5 19.1999 69.3 19.7999 69.6C20.1999 68.9 19.3 65.9 18.2 65C18.1 64.9 17.7 65.4 17.2 66Z" fill="#EBE4E0"/>
<path d="M11.5998 64.2C11.5998 64.2 10.7998 65.5 10.7998 66.1C10.7998 67.9 13.8998 71.1 15.1998 71.6C16.5998 70.1 17.3998 69.5 17.3998 69.5C17.3998 69.5 17.1998 69.1 15.0998 67.6C12.5998 66 11.5998 64.2 11.5998 64.2Z" fill="#EBE4E0"/>
<path d="M11.6999 55.8C12.9999 54.1 16.8999 52.6 19.3999 56.4C21.9999 60.3 19.4999 66.7 17.1999 66.3C15.8999 66.1 12.9999 64.9 11.6999 62.8C10.2999 60.4 10.6999 57.1 11.6999 55.8Z" fill="#FFC3B1"/>
<path d="M20.3999 57.7C19.8999 58.6 18.9999 59.6 16.8999 59.7C15.0999 59.8 13.6999 59.3 13.6999 59.3L13.8999 61.7C13.8999 61.7 13.4999 61.7 13.2999 61.6C13.0999 60.7 12.6999 60.5 12.1999 60.9C11.6999 61.3 11.7999 63 11.7999 63C11.7999 63 9.8999 61.4 9.8999 58.7C9.8999 57 11.3999 53.4 14.3999 53C17.4999 52.6 19.6999 54.2 20.3999 55.9C20.7999 56.5 20.6999 57.3 20.3999 57.7Z" fill="#2B2B2B"/>
<path d="M21 56.1C21 56.1 24.6 58.1 23.2 59.5C21.1 61.5 14.7 61.6 12.2 58.8L21 56.1Z" fill="#232323"/>
<path d="M21.2999 56.3V54.6C21.2999 54.6 19.9999 57.1 15.6999 57.3C12.0999 57.5 9.8999 56.9 9.8999 56.9V58.5C9.8999 58.5 12.1999 59.8 16.9999 58.7C20.8999 58 21.2999 56.3 21.2999 56.3Z" fill="#3A3A3A"/>
<path d="M21.5999 50.6C21.5999 50.6 22.5999 51.2 22.5999 52.5C22.5999 53.3 21.5999 52 21.5999 52V50.6Z" fill="#232323"/>
<path d="M20.6999 55.1C20.6999 55.1 21.2999 56.7 19.6999 57.4C18.5999 57.9 18.0999 56.4 18.0999 56.4L20.6999 55.1Z" fill="white"/>
<path d="M16.2342 57.5816C20.2409 56.5303 23.0685 54.0757 22.5499 52.0991C22.0312 50.1225 18.3628 49.3723 14.3561 50.4236C10.3494 51.4749 7.52175 53.9295 8.04038 55.9061C8.55901 57.8827 12.2275 58.6329 16.2342 57.5816Z" fill="#232323"/>
<path d="M16.1485 56.9495C20.0902 55.6766 22.8177 53.1962 22.2407 51.4093C21.6637 49.6224 18.0005 49.2057 14.0589 50.4786C10.1172 51.7515 7.38966 54.2319 7.9667 56.0188C8.54373 57.8057 12.2069 58.2223 16.1485 56.9495Z" fill="#2D2D2D"/>
<path d="M9.5 69.1C9.5 69.1 8.9 67.9 8.5 67.5C8.1 67.1 8 67.7 8 67.7C8 67.7 8.3 67.8 8.7 68.5C9 69 9.2 69.3001 9.2 69.3001L9.5 69.1Z" fill="#2D2D2D"/>
<path d="M9.8999 68.8C9.8999 68.8 11.5999 71.4 10.0999 72.2C8.5999 73 7.3999 70.1 7.3999 70.1L9.8999 68.8Z" fill="#232323"/>
<path d="M10.0999 72.2001C10.0999 72.2001 10.6999 71.9001 10.8999 71.3001C11.0999 70.7001 7.7999 69.5001 7.7999 69.5001L7.3999 70.0001L10.0999 72.2001Z" fill="#232323"/>
<path d="M10.2998 68.3C10.2998 68.3 11.9998 70.9 10.4998 71.7C8.9998 72.5 7.7998 69.6 7.7998 69.6L10.2998 68.3Z" fill="#2D2D2D"/>
<path d="M10.4999 69.3001L8.5999 70.3001C8.4999 70.2001 8.4999 70.1001 8.3999 70.0001L10.3999 69.0001C10.3999 69.0001 10.3999 69.1001 10.4999 69.3001Z" fill="#444444"/>
<path d="M10.7 69.9L8.99995 70.8C8.89995 70.7 8.79995 70.6 8.69995 70.5L10.6 69.6C10.6 69.7 10.6 69.8 10.7 69.9Z" fill="#444444"/>
<path d="M10.1999 71.1001C9.79985 71.3001 9.49985 71.2001 9.09985 71.0001L10.5999 70.2001C10.6999 70.6001 10.5999 70.9001 10.1999 71.1001Z" fill="#444444"/>
<path d="M8.09985 69.5001L9.99985 68.5001C9.99985 68.5001 10.0999 68.6001 10.0999 68.7001L8.09985 69.7001C8.19985 69.6001 8.09985 69.5001 8.09985 69.5001Z" fill="#444444"/>
<path d="M10.2 68.7001C10.2 68.8001 10.3 68.9001 10.3 69.0001L8.29995 70.0001C8.19995 69.9001 8.19995 69.8001 8.19995 69.7001L10.2 68.7001Z" fill="#EBE4E0"/>
<path d="M10.5998 69.5001L8.69976 70.4001C8.59976 70.3001 8.59976 70.2001 8.49976 70.2001L10.3998 69.2001C10.4998 69.3001 10.4998 69.4001 10.5998 69.5001Z" fill="#EBE4E0"/>
<path d="M10.6998 70.2001L9.19976 71.0001C9.09976 70.9001 8.99976 70.9001 8.99976 70.8001L10.6998 69.9001C10.6998 70.0001 10.6998 70.1001 10.6998 70.2001Z" fill="#EBE4E0"/>
<path d="M14.3 72.4L14.6 73.8L10.2 76L9.80005 74.6L14.3 72.4Z" fill="white"/>
<path d="M2.10005 74C2.10005 74 4.60005 74.8 5.50005 75C5.80005 76 4.90005 78.3 4.20005 79.8C3.50005 81.3 0.800049 80.4 0.800049 80.4C0.800049 80.4 1.60005 75.6 2.10005 74Z" fill="#358BC7"/>
<path d="M26.4 67.7C26.4 67.7 25.6001 69.3 24.2001 68.3C22.4001 67 21.3 65.6 21.3 65.6L22.5 64C22.5 64 25.5 66.6 26.4 67.7Z" fill="#358BC7"/>
<path d="M67.4 100.2C67.9 99 60 98.1 60 98.1C60 98.1 60 104 59.8 106.4C59.5 110.1 59.6 111.9 60.6 116.9C61.1 119.1 61.7 127.5 61.5 130.5C61.3 134.8 59.3 136.9 58.6 138C57.9 139.1 60.5 140.1 62.1 138.5C63.7 136.9 63.9 136.6 64.8 136.1C65.7 135.6 65.4 134.4 65.3 132C65.2 130.1 66.1 123.8 66.4 119.8C66.8 114.1 65.6 113.9 65.7 111C65.9 105.6 67.1 101 67.4 100.2Z" fill="#FFA08D"/>
<path d="M66.1 133.3C66.1 133.2 66 133.1 66 133.1C65.8 132.5 65.3 132 65.3 132C65.3 132 64.9 135.5 62.9 136.9C60.6 138.5 59.6 138.7 58.5 137.9C58.5 137.9 58 138.7 56.7 140.1C56 140.8 56.6 141.6 58.6 141.5C59.6 141.4 61.1 140.9 62 139.8C62.9 138.7 63.5 137.5 64.4 136.8C64.5 136.7 64.6 136.6 64.7 136.5C64.8 137.4 64.7 138 64.8 138.7C65 139 65.3 138.9 65.5 138.7C65.6 138 65.5 137.3 65.9 135.9C66.3 134.5 66.2 133.6 66.1 133.3Z" fill="#232323"/>
<path d="M73.4 103.4C73.9 102.2 66 101.3 66 101.3C66 101.3 66 107.2 65.8 109.6C65.5 113.3 65.6 115.1 66.6 120.1C67.1 122.3 67.7 130.7 67.5 133.7C67.3 138 65.3 140.1 64.6 141.2C63.9 142.3 66.5 143.3 68.1 141.7C69.7 140.1 69.9 139.8 70.8 139.3C71.7 138.8 71.4 137.6 71.3 135.2C71.2 133.3 72.1 127 72.4 123C72.8 117.3 71.6 117.1 71.7 114.2C72 108.7 73.2 104.1 73.4 103.4Z" fill="#FFC5B3"/>
<path d="M72.2001 136.3C72.2001 136.2 72.1001 136.1 72.1001 136.1C71.9001 135.5 71.4001 135 71.4001 135C71.4001 135 71.0001 138.5 69.0001 140C66.7001 141.6 65.7001 141.8 64.6001 141C64.6001 141 64.1001 141.8 62.8001 143.2C62.1001 143.9 62.7001 144.7 64.7001 144.6C65.7001 144.5 67.2001 144 68.1001 142.9C69.0001 141.8 69.6001 140.6 70.5001 139.9C70.6001 139.8 70.7001 139.7 70.8001 139.6C70.9001 140.5 70.8001 141.1 70.9001 141.8C71.1001 142.1 71.4001 142 71.6001 141.8C71.7001 141.1 71.6001 140.4 72.0001 139C72.4001 137.5 72.3001 136.7 72.2001 136.3Z" fill="#232323"/>
<path d="M56.9998 92.7C56.9998 92.7 56.1998 95.1 56.9998 98.1C57.7998 101.1 58.8998 100.6 58.8998 100.6L60.3998 93.5L56.9998 92.7Z" fill="#FFC5B3"/>
<path d="M64.4 63.3C64.4 63.3 62.5999 61.2 59.7999 64.1C56.9999 67 57.5 74.5 57 78.2C56.2 84.1 56.2 93.8 56.2 93.8C56.2 93.8 58.1 95.3 59.4 94.4C60.7 93.5 61.7999 92 61.7999 92L64.4 63.3Z" fill="#9B765D"/>
<path d="M69.8999 57.3C69.8999 57.3 71.6999 59.4 72.2999 64.1C72.8999 68.9 72.6998 70.2 72.6998 70.2C72.6998 70.2 68.5998 70.7 67.6998 68.6C66.8998 66.5 69.8999 57.3 69.8999 57.3Z" fill="#232323"/>
<path d="M58.0999 86.9001C58.0999 86.9001 57.5999 89.1 57.5999 93.1C57.4999 98.1 58.0999 108.1 58.0999 108.1C58.0999 108.1 59.2999 109.8 62.2999 110.6C64.2999 111.2 67.5999 111.3 69.8999 110.4C70.3999 108.2 70.8999 104.8 70.8999 104.8C70.9999 106.4 71.6999 108.6 71.7999 110C73.0999 109.7 73.8999 108.9 73.8999 108.9C73.8999 108.9 74.2999 104.9 74.6999 100.5C75.0999 96.3 74.8999 92.4001 73.0999 87.9001C70.0999 80.8001 58.2999 83.1001 58.0999 86.9001Z" fill="#9B765D"/>
<path d="M75.2999 70.9C74.8999 68.2 68.7999 64.6 68.7999 64.6C68.7999 64.6 67.7999 67.6 66.8999 68.3C65.9999 69 64.5999 68.3 65.4999 65.8C65.7999 65 65.2999 62.7 65.2999 62.7C65.2999 62.7 64.8999 62.6 64.3999 62.5C63.5999 63.4 61.9999 65.8 61.1999 66.7C60.3999 67.6 57.8999 70.9 58.6999 74C59.2999 76.6 59.6999 80.1 59.5999 81.4C59.4999 82.9 57.8999 87.6 57.8999 87.6C57.8999 87.6 59.4999 91.5 65.1999 90.6C69.4999 89.9 72.4999 87.4 72.4999 87.4C72.4999 87.4 71.4999 80.9 71.5999 78.2C71.6999 78.3 75.9999 76.1 75.2999 70.9Z" fill="white"/>
<path d="M64.3999 65.3C64.3999 65.3 63.0999 69 61.8999 72.3C60.6999 75.6 60.6999 84.8 60.2999 86.1C59.6999 88.3 58.0999 89.2 57.0999 88.4C57.0999 88.4 59.5999 77.7 58.6999 74C57.8999 70.3 58.7999 69.4 61.2999 66.1C63.7999 62.8 63.6999 63.4 63.6999 63.4L64.3999 65.3Z" fill="#AF8A71"/>
<path d="M63.7 64.1C62.7 65.4 60.9 67.9 60.9 67.9L61.6 68.9C61.6 68.9 61 69.2 60.5 69.9C60.5 71.6 61 76.3 61 76.3C61 76.3 62 71 64.7 66.7C65.6 65.3 65.1 65.3 65.1 65.3C65.1 65.3 64.2 64.1 63.7 64.1Z" fill="#9B765D"/>
<path d="M65.0999 63.1C65.0999 63.1 64.8999 66 64.3999 67.4C64.3999 67.7 64.3999 68.3 65.0999 68.4C65.7999 68.5 67.1999 68.4 67.6999 68.1C69.6999 66.5 69.9999 65.7 69.9999 65.7C69.9999 65.7 69.5999 63.8 69.4999 63.2C69.3999 62.1 69.4999 58.4 69.4999 58.4L65.0999 63.1Z" fill="#FFA08D"/>
<path d="M64.2999 67.9C64.2999 67.9 64.0999 68.8 64.1999 69.4C64.2999 70 64.6999 70.2 65.2999 69.7C65.8999 69.2 66.1999 68.5 66.1999 68.5C66.1999 68.5 65.3999 67.4 64.2999 67.9Z" fill="#EE4B4E"/>
<path d="M64.4001 69.4C64.4001 69.4 63.4001 70.7 62.7001 73.4C62.0001 75.7 60.9 81 60.8 82.2C61.2 83.5 62 84.6 62 84.6L63.9001 82.9L65 69.7L64.4001 69.4Z" fill="#EE4B4E"/>
<path d="M64.4001 64.7C64.4001 64.7 63.8001 65.1 63.3001 67.3C63.0001 68.7 63.6001 69.6 63.6001 69.6L65.2001 67.8C65.2001 67.8 64.6001 66.6 65.0001 64.7C65.2001 63.9 64.4001 64.7 64.4001 64.7Z" fill="#E4F1F9"/>
<path d="M68.7 53.6C67 52.2 62.9 51.5 61.2 55.7C59.4 60.1 63.1001 65.9 65.3001 65C66.5001 64.5 69 63.4 69.9 61.1C70.8 58.5 70 54.7 68.7 53.6Z" fill="#FFC5B3"/>
<path d="M70 64.7C70 64.7 66.1001 68.8 64.8001 75.4C64.4001 77.2 63.6 81.1 63.4 84.4C63.2 88 63.8 91 65.2 92.1C69.3 95.3 74.4 90.4 74.4 90.4C74.4 90.4 72.4 83.6 72.7 81.6C73 79.5 75.7001 70.4 74.8001 69C73.9001 67.5 70 64.7 70 64.7Z" fill="#AF8A71"/>
<path d="M69.6 64.1C69.6 64.1 69.8 65.9 67.6 68.3C64.3 72 64.4 77.7 64.4 77.7L68.8 72.2L68 70.6L69.7 70.5C69.7 70.5 71.2 68.3 71.2 65.9C71.2 64.6 69.6 64.1 69.6 64.1Z" fill="#9B765D"/>
<path d="M65.9 70.7C65.5 69.6 65.3 67.8 65.3 67.8C65.3 67.8 68.3 66.4 69.6 64.9C69.8 66.7 68.3 69.8 65.9 70.7Z" fill="#E4F1F9"/>
<path d="M73.4999 88.6C73.4999 88.6 70.6999 89.8 70.8999 93C70.9999 94.8 71.9999 96.1 72.9999 96C74.1999 95.9 74.2999 95.6 74.2999 95.4C74.0999 94.8 73.1999 94.8 73.1999 94.8C73.1999 94.8 75.5999 93.1 75.6999 91.6C75.5999 90.1 73.4999 88.6 73.4999 88.6Z" fill="#FFC5B3"/>
<path d="M73.2 67.6C71.5 67.8 70.4001 71.9 71.5001 74.8C72.8001 78.2 76.2 82.2 76.2 82.2L71.9001 88.8C71.9001 88.8 71.7001 91.8 73.4001 92.4C75.1001 93 75.9001 92.4 75.9001 92.4C75.9001 92.4 81.7001 85.8 82.1 83.8C82.4001 81.9 81.1001 78.7 78.8001 74.6C76.5001 70.6 74.6 67.5 73.2 67.6Z" fill="#9B765D"/>
<path d="M64.3999 56.8C64.3999 56.8 67.1998 60.1 70.1998 60.8C71.5998 57.6 71.8998 56.7 71.1998 54.7C70.3998 52.3 67.9998 52.4 67.9998 52.4C67.9998 52.4 65.4998 49.7 62.0998 52.2C57.0998 55.8 60.8999 60.1 60.8999 60.1C60.8999 60.1 61.0999 57.9 64.3999 56.8Z" fill="#232323"/>
<path d="M67.7 60.3C67.7 60.3 68 59.8 68.4 59.5C68.7 59.3 69.3 59.2 69.5 60.1C69.7 61.3 68.7 61.8 68.7 61.8L67.7 60.3Z" fill="#FFC5B3"/>
</g>
<defs>
<clipPath id="clip0">
<rect width="125.5" height="159.8" fill="white"/>
</clipPath>
</defs>
</svg>
