<svg width="40" height="130" viewBox="0 0 40 130" fill="none" xmlns="http://www.w3.org/2000/svg">
<g clip-path="url(#clip0)">
<path d="M5.46069 38.8632C5.46069 38.8632 7.64499 37.3579 8.73714 35.7158C9.82929 33.9369 12.1501 29.4211 12.1501 29.4211C12.1501 29.4211 8.32758 27.5053 8.32758 27.3684C8.19106 27.2316 5.46069 31.8842 5.18765 33.1158C5.05113 34.3474 5.46069 38.8632 5.46069 38.8632Z" fill="#F4907D"/>
<path d="M8.05457 98.6632C8.05457 98.6632 7.78153 104.411 7.64501 106.737C7.50849 109.063 4.77811 112.211 2.59381 113.716C0.409513 115.221 -0.136562 116.863 -4.28893e-05 118.642C0.136476 120.421 2.04774 121.105 4.77811 121.653C6.96242 122.063 8.73716 120.011 11.1945 117.547C13.6518 115.084 15.8361 114.263 15.9727 111.116C16.1092 109.747 15.4266 108.926 15.1535 105.095C14.8805 101.674 15.017 97.7053 15.017 97.7053L8.05457 98.6632Z" fill="#161616"/>
<path d="M7.64502 106.737L11.6041 107.968L11.7406 106.6L7.64502 105.505V106.737Z" fill="#303030"/>
<path d="M6.68933 109.2L10.5119 110.842L11.0579 109.61L7.23541 108.105L6.68933 109.2Z" fill="#303030"/>
<path d="M5.73379 110.705L4.91467 111.663L8.7372 113.168L9.69283 112.211L5.73379 110.705Z" fill="#303030"/>
<path d="M3.95897 112.758L2.86682 113.579L6.96238 115.221L7.7815 114.263L3.95897 112.758Z" fill="#303030"/>
<path d="M25.6655 103.863C25.6655 103.863 25.529 110.705 25.529 112.621C25.529 114.537 25.3924 117.821 24.8464 118.642C23.8907 120.147 23.2081 121.653 21.8429 123.705C21.1603 124.663 20.8873 125.758 20.7508 126.716C20.6143 127.81 21.2969 128.768 22.2525 129.042C23.6177 129.589 25.802 130.137 26.8941 130C28.8054 129.726 29.3515 129.726 30.5801 127.947C33.8566 123.432 34.4027 120.284 33.5836 113.579C32.7644 107.421 33.8566 101.4 33.8566 101.4L25.6655 103.863Z" fill="#161616"/>
<path d="M25.5289 111.389V112.621L30.034 113.305V112.074L25.5289 111.389Z" fill="#303030"/>
<path d="M25.5289 114.4V115.495L30.034 116.453V115.221L25.5289 114.4Z" fill="#303030"/>
<path d="M25.2559 117.411L24.8463 118.642L29.0784 119.6L29.488 118.232L25.2559 117.411Z" fill="#303030"/>
<path d="M23.8907 120.147L23.2081 121.379L27.3037 122.337L28.1228 121.105L23.8907 120.147Z" fill="#303030"/>
<path d="M10.2389 54.0526C10.2389 54.0526 9.41975 63.6316 8.3276 68.2842C7.23545 73.0737 4.36856 81.421 5.32419 83.0631C6.27982 84.5684 6.27982 85.2526 5.59723 86.7579C4.91463 88.4 4.50508 88.6737 5.18767 90.5894C5.87027 92.5052 4.09552 92.9158 5.18767 95.6526C5.59723 96.6105 3.82248 101.126 6.96242 102.768C10.2389 104.41 12.1501 104.958 13.9249 104.411C16.6552 103.589 17.3378 102.084 17.4744 100.853C17.7474 95.3789 18.0204 85.1158 18.9761 80.4631C19.3856 78.6842 23.3447 61.0316 23.3447 61.0316L10.2389 54.0526Z" fill="#232323"/>
<path d="M36.0409 90.3158C34.6757 88.4 36.0409 84.5684 35.7678 82.1053C35.4948 79.6421 34.6757 74.3053 34.1296 69.7895C33.5835 65.4105 32.2183 59.1158 32.9009 58.1579L18.0204 56.7895C18.0204 56.7895 18.2934 66.779 18.976 72.6632C19.3856 75.9474 21.2968 83.8842 21.9794 90.0421C22.5255 94.6948 20.8873 96.8842 22.2525 98.9369C23.2081 100.305 21.9794 102.905 21.8429 104.274C21.7064 106.189 22.2525 107.421 23.2081 107.968C25.5289 109.2 33.174 110.158 35.4948 107.832C36.4504 106.874 37.406 105.916 36.5869 103.453C36.1774 101.811 36.1774 99.2105 36.86 97.7053C38.0886 95.7895 37.406 92.2316 36.0409 90.3158Z" fill="#232323"/>
<path d="M14.7441 17.6526C14.7441 17.6526 12.4232 17.6526 10.512 19.7053C8.6007 21.7579 5.59729 27.9158 5.59729 27.9158C5.59729 27.9158 9.82937 28.8737 11.3311 30.379C12.8328 32.0211 17.6109 19.0211 17.4744 18.4737C17.4744 17.9263 14.7441 17.6526 14.7441 17.6526Z" fill="#161616"/>
<path d="M32.3549 57.0631L10.2389 54.8737V56.6526C10.2389 56.6526 14.0614 60.3473 21.2969 60.7579C28.5324 61.0316 30.9897 60.7579 32.3549 60.0737C32.3549 58.9789 32.3549 58.021 32.3549 57.0631Z" fill="#161616"/>
<path d="M15.8362 57.8842V60.4842C15.8362 60.4842 16.9283 61.0316 18.2935 61.3053C19.6587 61.579 20.4778 61.3053 20.4778 61.3053V58.8421L15.8362 57.8842Z" fill="white"/>
<path d="M16.3822 58.2947V60.2105C16.3822 60.2105 17.2013 60.6211 18.1569 60.8947C19.1126 61.0316 19.7952 60.8947 19.7952 60.8947V59.1158L16.3822 58.2947Z" fill="#161616"/>
<path d="M27.0307 19.2947C27.0307 19.2947 29.215 20.1158 30.7167 20.8C32.2184 21.4842 35.0853 25.3158 34.9488 29.0105C34.6757 32.7052 33.447 41.0526 32.7645 44.3368C32.0819 47.621 32.3549 50.3579 33.174 51.7263C33.9931 53.0947 34.5392 54.4631 33.5836 56.1052C33.0375 57.0631 34.9488 58.021 32.2184 59.3895C30.8532 60.0737 20.4778 59.9368 16.5187 58.7052C11.1945 56.9263 8.46411 54.6 9.01019 53.3684C9.41974 52 10.9215 45.5684 10.9215 42.8316C10.9215 40.2316 9.8293 33.2526 10.5119 29.8316C11.1945 26.4105 13.2423 19.5684 15.4266 18.8842C17.4744 18.3368 24.4368 18.3368 27.0307 19.2947Z" fill="#303030"/>
<path d="M18.4299 19.5684C18.4299 19.5684 16.6552 25.179 18.1569 25.8632C22.2525 27.779 26.075 21.8948 27.0306 19.4316C25.6654 16.2842 24.9828 10.9474 24.9828 10.9474L18.4299 19.5684Z" fill="#F4907D"/>
<path d="M23.3447 3.83158C21.0239 1.91579 13.7884 1.23158 11.7406 7.11579C11.331 8.48421 11.6041 10.8105 11.7406 12.0421C12.2867 17.1053 16.2457 21.7579 18.5665 20.6632C20.2048 19.979 23.7543 17.2421 24.7099 13.9579C25.9386 10.4 26.3481 6.29474 23.3447 3.83158Z" fill="#FFAB95"/>
<path d="M23.7542 24.2211C21.8429 21.3474 23.4812 19.4316 24.4368 16.6948C24.9829 14.9158 25.2559 12.7263 25.1194 10.8105L24.7098 11.0842C24.7098 12.8632 24.5733 14.5053 24.1637 16.1474C23.7542 17.5158 22.7986 19.2948 22.5255 20.8C22.2525 22.3053 22.662 23.4 23.4812 24.4948C23.7542 24.3579 23.7542 24.3579 23.7542 24.2211Z" fill="#161616"/>
<path d="M23.0717 9.44207C23.0717 9.44207 23.8908 9.30523 24.3003 10.5368C24.7099 11.6315 23.6177 13.2736 23.6177 13.2736C23.6177 13.2736 25.256 12.1789 25.1194 10.4C25.1194 9.44207 24.1638 8.34733 23.0717 9.44207Z" fill="#F4907D"/>
<path d="M23.0716 10.6737C22.7986 10.9474 22.662 11.6316 23.0716 11.7684C23.3446 11.9053 23.8907 11.4948 23.8907 11.0842C23.8907 10.6737 23.4811 10.4 23.0716 10.6737Z" fill="#161616"/>
<path d="M23.2081 11.221C23.2081 11.221 22.2525 10.6737 22.116 9.98945C21.9795 9.30524 22.116 9.03156 22.116 9.03156L22.389 9.30524C22.389 9.30524 22.389 9.98945 22.662 10.2631C22.9351 10.5368 23.4812 10.9473 23.4812 10.9473L23.2081 11.221Z" fill="#161616"/>
<path d="M13.9249 26.1368L11.7406 26.6842C11.1945 26.8211 10.6484 26.4105 10.3754 25.8632L7.09892 18.0632C6.82588 17.5158 7.09892 16.9684 7.50848 16.8316L9.69278 16.2842C10.2389 16.1474 10.7849 16.5579 11.058 17.1053L14.3344 24.9053C14.6075 25.4526 14.4709 26 13.9249 26.1368Z" fill="#161616"/>
<path d="M6.41638 17.7894C6.41638 17.7894 6.82594 17.1052 7.50853 16.9684C8.05461 16.8316 8.19113 17.7894 8.19113 17.7894L6.82594 18.2L6.41638 17.7894Z" fill="#161616"/>
<path d="M13.2423 26.8211C13.2423 26.8211 14.3345 26.4105 14.6075 25.7263C14.744 25.0421 13.7884 25.0421 13.7884 25.0421L13.2423 26.8211Z" fill="#161616"/>
<path d="M13.2422 26.821L11.0579 27.3684C10.5119 27.5053 9.96579 27.0947 9.69275 26.5474L6.4163 18.7474C6.14326 18.2 6.4163 17.6526 6.82586 17.5158L9.01016 16.9684C9.55623 16.8316 10.1023 17.2421 10.3753 17.7895L13.6518 25.5895C13.9248 26 13.6518 26.6842 13.2422 26.821Z" fill="#444444"/>
<path d="M5.32418 26C5.32418 26 6.82589 22.3052 7.50848 20.5263C8.19108 18.7473 8.60063 18.4737 10.3754 17.9263C12.1501 17.3789 12.6962 18.2 12.6962 18.6105C13.3788 18.8842 13.5153 19.4316 13.2423 20.1158C14.0614 20.1158 14.3344 21.2105 13.7883 21.621C14.3344 21.8947 14.4709 22.5789 14.3344 22.7158C14.1979 22.9894 13.3788 23.6737 12.2866 24.221C10.7849 25.0421 10.3754 25.3158 10.1023 26.1368C9.8293 26.9579 10.2389 26.9579 9.01019 28.3263C7.78152 29.6947 7.645 29.421 7.645 29.421C7.645 29.421 4.50507 28.1894 5.32418 26Z" fill="#FFAB95"/>
<path d="M9.6928 16.5579C9.6928 16.5579 9.55628 16.6948 9.41977 16.6948C9.28325 16.6948 9.14673 16.6948 9.14673 16.6948C9.14673 16.6948 9.28325 16.5579 9.41977 16.5579C9.55628 16.5579 9.6928 16.5579 9.6928 16.5579Z" fill="#444444"/>
<path d="M8.32875 12.7472L7.81445 12.9312L9.19097 16.7976L9.70527 16.6136L8.32875 12.7472Z" fill="#444444"/>
<path d="M8.32757 12.7263C8.32757 12.7263 8.19105 12.8632 8.05453 12.8632C7.91801 12.8632 7.78149 12.8632 7.78149 12.8632C7.78149 12.8632 7.91801 12.7263 8.05453 12.7263C8.19105 12.7263 8.32757 12.7263 8.32757 12.7263Z" fill="#595959"/>
<path d="M11.4676 7.52631C11.4676 7.52631 7.09896 10.4 6.14333 11.221C5.1877 12.0421 10.3754 15.8737 14.0614 14.7789C17.6109 13.6842 22.116 9.98946 22.116 9.98946L11.4676 7.52631Z" fill="#161616"/>
<path d="M11.4675 7.52631C11.4675 7.52631 17.4744 11.2211 21.2969 10.2632C25.1194 9.16842 26.075 8.21052 26.075 8.21052C26.075 8.21052 25.802 0.273682 18.8395 0.273682C11.8771 0.273682 11.4675 7.52631 11.4675 7.52631Z" fill="#303030"/>
<path d="M19.1126 0.547368C19.1126 0.821053 18.7031 1.09474 18.0205 1.09474C17.4744 1.09474 16.9283 0.821053 16.9283 0.547368C16.9283 0.273684 17.3379 0 18.0205 0C18.7031 0 19.1126 0.273684 19.1126 0.547368Z" fill="#161616"/>
<path d="M30.1706 70.2C29.6246 70.2 29.0785 69.9263 29.0785 69.6527V100.305C29.0785 100.579 29.488 100.853 30.1706 100.853C30.7167 100.853 31.2628 100.579 31.2628 100.305V69.5158C31.2628 69.9263 30.8532 70.2 30.1706 70.2Z" fill="#C4BEBB"/>
<path d="M29.215 58.9789V72.3895C29.215 72.1158 29.6245 71.8421 30.3071 71.8421C30.8532 71.8421 31.3993 72.1158 31.3993 72.3895V58.9789H29.215Z" fill="#515151"/>
<path d="M30.1706 71.8421C29.6246 71.8421 29.0785 72.1158 29.0785 72.3895C29.0785 72.6632 29.488 72.9368 30.1706 72.9368C30.7167 72.9368 31.2628 72.6632 31.2628 72.3895C31.2628 72.1158 30.8532 71.8421 30.1706 71.8421Z" fill="#515151"/>
<path d="M30.1706 58.4316C29.6246 58.4316 29.0785 58.7053 29.0785 58.9789C29.0785 59.2526 29.488 59.5263 30.1706 59.5263C30.7167 59.5263 31.2628 59.2526 31.2628 58.9789C31.2628 58.7053 30.8532 58.4316 30.1706 58.4316Z" fill="#666666"/>
<path d="M37.4062 67.1895L30.7167 71.021L29.7611 69.2421L36.4505 65.4105L37.4062 67.1895Z" fill="#515151"/>
<path d="M36.314 65.8211C36.314 66.2316 36.587 66.779 36.9966 67.0526C37.4061 67.1895 37.6791 67.0526 37.6791 66.5053C37.6791 66.0947 37.4061 65.5474 36.9966 65.2737C36.587 65.1369 36.314 65.4105 36.314 65.8211Z" fill="#515151"/>
<path d="M6.27978 24.4948C6.27978 24.4948 4.23199 27.5053 3.5494 28.8737C2.86681 30.2421 1.3651 32.1579 1.09206 33.6632C0.819026 35.3053 1.63814 37.2211 2.04769 38.4526C2.45725 39.6842 3.00333 39.9579 3.82244 40.0948C4.64155 40.2316 6.82585 37.7684 7.37193 36.5369C7.918 35.1684 9.41971 27.9158 9.41971 27.9158L6.27978 24.4948Z" fill="#FFAB95"/>
<path d="M29.761 29.5579C29.761 29.5579 30.3071 35.9895 31.2627 39.1368C32.3548 42.421 33.174 46.9368 33.174 46.9368C33.174 46.9368 32.9009 48.9895 32.7644 52.4105C32.4914 56.5158 32.6279 59.9368 32.4914 61.4421C32.3548 63.3579 31.6723 62.9473 30.7166 65.821C30.3071 67.3263 29.6245 68.0105 30.3071 67.8737C30.8531 67.8737 30.8531 67.8737 31.5357 67.0526C32.4914 65.821 32.9009 67.3263 32.9009 67.6C32.9009 68.421 32.4914 71.4316 33.5835 72.8C34.8122 74.1684 37.5426 69.2421 37.133 65.1368C36.86 63.221 36.0409 62.6737 36.4504 61.1684C37.406 57.6105 38.3617 54.6 38.7712 52.6842C39.5903 49.2631 39.4538 48.9895 39.8634 47.4842C40.1364 45.9789 39.8634 44.8842 39.7269 43.7895C39.5903 43.1052 39.3173 37.221 38.9077 34.2105C38.4982 31.2 37.8156 28.0526 37.8156 28.0526L29.761 29.5579Z" fill="#FFAB95"/>
<path d="M30.5802 21.3473C28.8055 22.8526 28.669 25.4526 28.942 29.8315C29.215 34.3473 29.4881 36.5368 29.4881 36.5368C29.4881 36.5368 33.7202 37.0842 35.7679 36.4C38.2253 35.5789 39.5905 34.4842 39.5905 34.4842C39.5905 34.4842 38.2253 27.2315 36.9966 24.4947C35.3584 21.2105 32.2184 19.9789 30.5802 21.3473Z" fill="#161616"/>
</g>
<defs>
<clipPath id="clip0">
<rect width="40" height="130" fill="white"/>
</clipPath>
</defs>
</svg>
