<svg width="101" height="146" viewBox="0 0 101 146" fill="none" xmlns="http://www.w3.org/2000/svg">
<g clip-path="url(#clip0)">
<path d="M41.2734 101.023C41.2734 101.023 40.9917 106.908 40.8508 109.29C40.7099 111.672 37.8926 114.894 35.6388 116.436C33.385 117.977 32.8215 119.658 32.9624 121.48C33.2441 123.301 35.0753 124.002 37.8926 124.562C40.1465 124.983 41.9777 122.881 44.5133 120.359C47.0488 117.837 49.3027 116.996 49.4435 113.774C49.5844 112.372 48.8801 111.532 48.5984 107.608C48.3166 104.106 48.4575 100.042 48.4575 100.042L41.2734 101.023Z" fill="#161616"/>
<path d="M40.8508 109.29L44.9359 110.551L45.0768 109.15L40.9917 108.029L40.8508 109.29Z" fill="#303030"/>
<path d="M40.0056 111.812L43.9498 113.493L44.3724 112.232L40.5691 110.691L40.0056 111.812Z" fill="#303030"/>
<path d="M39.0195 113.353L38.1743 114.334L41.9777 115.875L42.9637 114.894L39.0195 113.353Z" fill="#303030"/>
<path d="M37.0474 115.455L35.9205 116.296L40.1465 117.977L41.1325 116.996L37.0474 115.455Z" fill="#303030"/>
<path d="M59.4449 106.347C59.4449 106.347 59.304 113.353 59.304 115.315C59.4449 117.136 59.1632 120.639 58.5997 121.48C57.6137 123.021 56.9094 124.562 55.5007 126.664C54.7964 127.645 54.5146 128.766 54.3738 129.747C54.2329 130.868 54.9372 131.848 55.9233 132.129C57.3319 132.689 59.5858 133.25 60.7127 133.109C62.6848 132.829 63.2483 132.829 64.516 131.008C67.8968 126.384 68.4603 123.161 67.6151 116.296C66.7699 109.99 67.8968 103.825 67.8968 103.825L59.4449 106.347Z" fill="#161616"/>
<path d="M59.3041 114.054L59.4449 115.315L63.9526 116.015V114.754L59.3041 114.054Z" fill="#303030"/>
<path d="M59.3041 117.136L59.4449 118.257L63.9526 119.238V117.977L59.3041 117.136Z" fill="#303030"/>
<path d="M59.0223 120.219L58.5997 121.48L62.9665 122.461L63.3891 121.059L59.0223 120.219Z" fill="#303030"/>
<path d="M57.7545 123.021L57.0502 124.282L61.2761 125.263L61.9804 124.002L57.7545 123.021Z" fill="#303030"/>
<path d="M43.6681 55.3455C43.6681 55.3455 42.8229 65.1535 41.696 69.9174C40.5691 74.8215 37.6109 83.3685 38.597 85.0499C39.583 86.5911 39.583 87.2917 38.8787 88.833C38.1744 90.5144 37.7518 90.7946 38.4561 92.7562C39.1604 94.7178 37.3292 95.1382 38.4561 97.9405C38.8787 98.9213 37.0475 103.545 40.2874 105.226C43.6681 106.908 45.6402 107.468 47.4715 106.908C50.2888 106.067 50.9931 104.526 51.1339 103.265C51.4157 97.6602 51.6974 87.1516 52.6835 82.3877C53.1061 80.5662 57.1911 62.4913 57.1911 62.4913L43.6681 55.3455Z" fill="#232323"/>
<path d="M70.2915 92.476C68.8829 90.5144 70.2915 86.5912 70.0098 84.0691C69.7281 81.5471 68.8829 76.0826 68.3194 71.4588C67.756 66.9751 66.3473 60.5298 67.0516 59.549L51.6974 58.1478C51.6974 58.1478 51.9791 68.3762 52.6834 74.4012C53.106 77.7639 55.0781 85.8906 55.7825 92.1958C56.3459 96.9597 54.6555 99.2016 56.0642 101.303C57.0502 102.704 55.7825 105.367 55.6416 106.768C55.5007 108.729 56.0642 109.99 57.0502 110.551C59.4449 111.812 67.3334 112.793 69.7281 110.411C70.7141 109.43 71.7002 108.449 70.855 105.927C70.4324 104.246 70.4324 101.584 71.1367 100.042C72.2636 98.0807 71.5593 94.4377 70.2915 92.476Z" fill="#232323"/>
<path d="M41.4143 26.3417C41.4143 26.3417 35.9205 33.3474 33.2441 34.8887C31.272 36.0096 22.961 37.691 20.5663 38.3916C18.1716 39.0922 13.1005 41.1939 13.1005 41.1939L17.749 44.1363C17.749 44.1363 31.272 43.1555 32.5398 43.0154C33.2441 42.8753 35.2162 43.0154 37.7518 41.1939C38.7378 40.4933 40.2874 39.2323 40.8508 38.8119C43.5272 36.8503 48.1758 33.0672 48.1758 33.0672L41.4143 26.3417Z" fill="#FFAB95"/>
<path d="M48.3167 18.0748C48.3167 18.0748 45.922 18.0748 43.9499 20.1766C41.9778 22.2783 38.0336 27.6027 38.0336 27.6027C38.0336 27.6027 41.5552 29.7044 43.6682 31.9462C45.2177 33.6276 51.2749 19.476 51.2749 18.9155C50.9931 18.3551 48.3167 18.0748 48.3167 18.0748Z" fill="#161616"/>
<path d="M66.4882 58.428L43.6681 56.1862V58.0077C43.6681 58.0077 47.6123 61.7908 55.0781 62.2111C62.544 62.4913 65.0795 62.2111 66.4882 61.5105C66.4882 60.3896 66.3473 59.4088 66.4882 58.428Z" fill="#161616"/>
<path d="M49.3027 59.2687V61.9309C49.3027 61.9309 50.4297 62.4913 51.8383 62.7716C53.2469 63.0518 54.0921 62.7716 54.0921 62.7716V60.2495L49.3027 59.2687Z" fill="white"/>
<path d="M49.8662 59.6891V61.6507C49.8662 61.6507 50.7114 62.071 51.6975 62.3513C52.6835 62.4914 53.3878 62.3513 53.3878 62.3513V60.5298L49.8662 59.6891Z" fill="#161616"/>
<path d="M60.9945 19.7563C60.9945 19.7563 63.2483 20.597 64.7978 21.2976C66.3473 21.9982 69.3055 25.9214 69.1646 29.7045C69.0237 33.4876 67.6151 42.0346 66.9108 45.3974C66.2065 48.7602 66.4882 51.5625 67.3334 52.9636C68.1786 54.3648 68.742 55.7659 67.756 57.4473C67.1925 58.4281 69.1646 59.4089 66.3473 60.8101C64.9387 61.5106 54.2329 61.3705 50.1479 60.1095C44.6541 58.288 41.8369 55.906 42.4003 54.645C42.8229 53.2438 44.3724 46.6584 44.3724 43.8561C44.3724 41.1939 43.2455 34.0481 43.9498 30.5452C44.6541 27.0423 46.7671 20.0365 49.021 19.336C51.1339 18.7755 58.318 18.7755 60.9945 19.7563Z" fill="#303030"/>
<path d="M52.1199 20.0365C52.1199 20.0365 50.2887 25.7812 51.8382 26.4818C56.0642 28.4434 60.0084 22.4184 60.9944 19.8964C59.5858 16.6737 58.8815 11.2092 58.8815 11.2092L52.1199 20.0365Z" fill="#F4907D"/>
<path d="M57.0502 3.92319C54.6555 1.96158 47.1897 1.261 45.0767 7.28595C44.6541 8.68711 44.9358 11.0691 45.0767 12.3301C45.6402 17.5144 49.7252 22.2783 52.1199 21.1574C53.8103 20.4568 57.4728 17.6545 58.4589 14.2917C59.8675 10.6487 60.2901 6.44526 57.0502 3.92319Z" fill="#FFAB95"/>
<path d="M57.6137 24.8004C55.6416 21.858 57.332 19.8963 58.3181 17.094C58.8815 15.2725 59.1632 13.0307 59.0224 11.0691L58.5998 11.3493C58.5998 13.1708 58.4589 14.8522 58.0363 16.5336C57.6137 17.9347 56.6277 19.7562 56.346 21.2975C56.0642 22.8388 56.4868 23.9597 57.332 25.0806C57.4729 24.9405 57.4729 24.9405 57.6137 24.8004Z" fill="#161616"/>
<path d="M56.7686 9.66797C56.7686 9.66797 57.6137 9.52785 58.0363 10.7889C58.4589 11.9098 57.332 13.5912 57.332 13.5912C57.332 13.5912 59.0224 12.4703 58.8815 10.6488C58.8815 9.66796 58.0363 8.54704 56.7686 9.66797Z" fill="#F4907D"/>
<path d="M56.9094 10.929C56.6277 11.2093 56.4868 11.9098 56.9094 12.0499C57.1911 12.3302 57.7546 11.9098 57.7546 11.4895C57.7546 10.929 57.1911 10.6488 56.9094 10.929Z" fill="#161616"/>
<path d="M57.0502 11.4894C57.0502 11.4894 56.0642 10.9289 55.9233 10.2284C55.7825 9.52779 55.9233 9.24756 55.9233 9.24756L56.2051 9.52779C56.2051 9.52779 56.2051 10.2284 56.4868 10.5086C56.7685 10.7888 57.1911 11.2092 57.1911 11.2092L57.0502 11.4894Z" fill="#161616"/>
<path d="M44.9359 7.7063C44.9359 7.7063 40.4282 10.6487 39.4422 11.4894C38.4561 12.3301 43.809 16.2533 47.6123 15.1324C51.2748 14.0115 55.9233 10.2284 55.9233 10.2284L44.9359 7.7063Z" fill="#161616"/>
<path d="M44.9359 7.70625C44.9359 7.70625 51.134 11.4894 55.0782 10.5086C58.8815 9.38764 60.0084 8.40683 60.0084 8.40683C60.0084 8.40683 59.7267 0.280151 52.5426 0.280151C45.3585 0.280151 44.9359 7.70625 44.9359 7.70625Z" fill="#303030"/>
<path d="M52.8243 0.560461C52.8243 0.840691 52.4017 1.12092 51.6974 1.12092C51.1339 1.12092 50.5704 0.840691 50.5704 0.560461C50.5704 0.28023 51.1339 0 51.6974 0C52.2608 0 52.8243 0.28023 52.8243 0.560461Z" fill="#161616"/>
<path d="M64.2343 71.879C63.6709 71.879 63.1074 71.5988 63.1074 71.3186V102.704C63.1074 102.985 63.53 103.265 64.2343 103.265C64.9387 103.265 65.3613 102.985 65.3613 102.704V71.1785C65.3613 71.5988 64.7978 71.879 64.2343 71.879Z" fill="#C4BEBB"/>
<path d="M63.1074 60.3896V74.1209C63.1074 73.8407 63.53 73.5605 64.2343 73.5605C64.9387 73.5605 65.3613 73.8407 65.3613 74.1209V60.3896H63.1074Z" fill="#515151"/>
<path d="M64.2343 73.5604C63.6709 73.5604 63.1074 73.8407 63.1074 74.1209C63.1074 74.4011 63.53 74.6813 64.2343 74.6813C64.9387 74.6813 65.3613 74.4011 65.3613 74.1209C65.3613 73.8407 64.7978 73.5604 64.2343 73.5604Z" fill="#515151"/>
<path d="M64.2343 60.9501C64.8567 60.9501 65.3613 60.6992 65.3613 60.3897C65.3613 60.0801 64.8567 59.8292 64.2343 59.8292C63.612 59.8292 63.1074 60.0801 63.1074 60.3897C63.1074 60.6992 63.612 60.9501 64.2343 60.9501Z" fill="#666666"/>
<path d="M71.5593 68.7966L64.657 72.7198L63.8118 70.8983L70.7141 66.9751L71.5593 68.7966Z" fill="#515151"/>
<path d="M70.4324 67.5355C70.4324 67.9559 70.7141 68.5163 71.1367 68.7965C71.5593 68.9367 71.841 68.7965 71.841 68.2361C71.841 67.6756 71.5593 67.2553 71.1367 66.975C70.7141 66.6948 70.4324 66.975 70.4324 67.5355Z" fill="#515151"/>
<path d="M69.1646 37.6909C69.1646 37.6909 73.8132 37.9711 75.6444 34.6084C77.4757 31.2456 77.3348 30.2648 76.2079 29.1439C75.0809 28.023 71.7002 28.1631 69.869 30.1247C68.0377 32.2264 67.6151 36.0095 69.1646 37.6909Z" fill="#161616"/>
<path d="M67.756 33.4876C67.756 33.4876 69.3055 36.1498 72.6863 38.3916C75.081 39.9329 76.9122 42.1747 80.1521 44.1363C83.392 46.0979 86.491 46.6584 88.3222 48.3398C90.1535 50.0212 92.5482 53.524 97.901 55.2054C101.141 56.3263 101.704 52.8235 100.577 51.002C98.8871 48.1997 97.0559 48.0595 96.2107 47.4991C95.0838 46.7985 95.2246 46.238 96.2107 46.5183C97.1967 46.7985 98.3236 46.5183 98.6054 46.238C99.4506 45.6776 97.6193 45.1171 96.4924 44.5567C94.0977 43.4357 90.2944 43.1555 89.3083 42.595C88.1814 41.8945 81.8425 35.8695 79.4478 34.6085C77.0531 33.3475 74.5175 28.1632 70.9959 26.2016C67.1925 24.5202 67.756 33.4876 67.756 33.4876Z" fill="#FFAB95"/>
<path d="M66.2065 21.9981C64.0935 21.858 62.2623 24.8004 61.8397 27.6027C61.4171 30.2649 64.3752 33.9079 65.643 35.0288C67.1925 36.43 69.1646 37.691 69.1646 37.691C69.1646 37.691 69.5872 32.6469 71.5593 30.8254C73.5314 29.0039 76.4896 29.4242 76.4896 29.4242C76.4896 29.4242 70.2915 22.4184 66.2065 21.9981Z" fill="#161616"/>
<path d="M3.52159 46.0979C2.95813 47.2188 0.704296 53.9443 -2.7854e-05 60.6699C-0.281757 63.7524 5.4937 80.5662 5.4937 80.5662C5.4937 80.5662 8.87445 65.1536 8.73359 59.1286C8.59272 53.1037 8.31099 47.9194 8.31099 47.9194L3.52159 46.0979Z" fill="#FFC3B1"/>
<path d="M7.88843 83.6487C7.88843 83.6487 8.59275 83.2284 9.29708 82.808C10.1423 82.2476 11.6918 83.2284 10.8466 83.929C10.0014 84.4894 9.57881 84.7697 9.57881 84.7697L7.88843 83.6487Z" fill="#DDDDDD"/>
<path d="M17.3263 124.843C16.1994 124.142 10.5648 127.505 10.5648 127.505L3.23987 129.887V135.071C3.23987 135.071 6.05716 138.854 10.0014 136.332C12.2552 134.791 16.3403 132.409 17.6081 129.747C18.8759 127.225 18.4533 125.543 17.3263 124.843Z" fill="#232323"/>
<path d="M34.7936 133.53C33.6667 132.829 28.0321 136.052 28.0321 136.052L20.1437 138.714L20.7071 144.599C20.7071 144.599 23.5244 147.541 27.3278 145.019C29.5816 143.478 33.6667 141.096 34.9345 138.434C36.3431 135.772 35.9205 134.23 34.7936 133.53Z" fill="#232323"/>
<path d="M7.18404 68.5164C7.18404 68.5164 4.08502 74.6814 3.52156 82.1075C3.23983 85.4703 5.07107 104.246 5.07107 104.246C5.07107 104.246 4.22589 106.768 3.52156 111.532C2.67637 117.557 2.11292 132.549 2.11292 131.989C2.11292 131.989 4.08502 134.651 6.62059 134.651C9.86047 134.651 12.2552 130.868 12.2552 130.868C12.2552 130.868 15.7768 110.131 15.9177 104.946C16.0585 101.584 15.6359 89.8139 15.6359 89.8139C15.6359 89.8139 19.0167 105.507 18.735 109.57C18.5941 113.493 19.2984 137.173 19.5801 138.714C20.2845 141.096 22.2566 141.797 24.3695 142.217C27.046 142.777 30.5676 137.873 30.5676 137.873C30.5676 137.873 30.4267 110.971 30.5676 106.768C30.9902 99.6219 27.3277 71.3187 27.3277 71.3187L7.18404 68.5164Z" fill="black"/>
<path d="M8.02923 49.1804C8.45182 49.0403 9.29701 44.4165 9.29701 44.4165L11.2691 36.1497C11.2691 36.1497 9.7196 33.7678 6.62058 36.5701C5.49366 37.691 1.97205 43.1555 1.97205 47.9194C3.66242 49.3206 5.91626 49.6008 8.02923 49.1804Z" fill="#2A78B3"/>
<path d="M19.5802 18.9155C17.4672 17.3742 13.3822 17.9347 11.5509 21.5777C10.5649 23.6794 11.9735 29.1439 12.1144 33.0671C12.2552 36.1497 11.2692 37.9712 11.2692 37.9712C11.2692 37.9712 11.2692 37.9712 13.9456 39.0921C16.622 40.213 19.4393 39.0921 19.4393 39.0921L19.2985 34.3282C19.2985 34.3282 22.2566 33.9078 22.6792 33.4875C23.947 32.3666 24.5105 29.0038 23.947 24.6602C23.3836 18.355 20.4254 19.476 19.5802 18.9155Z" fill="#FFC3B1"/>
<path d="M27.046 55.3455C28.5956 51.8426 24.9331 45.5375 23.947 43.2956C22.961 41.0538 19.5802 39.6526 19.5802 39.6526L9.57881 36.7102C9.57881 36.7102 3.52163 41.334 4.36682 50.4415C4.64855 53.6641 4.64855 65.8542 4.22595 74.8215C5.07114 78.3244 15.9177 80.5663 20.4254 79.4453C21.834 79.025 26.4826 78.4645 27.8912 75.6622C28.3138 73.7006 27.1869 72.1593 26.7643 68.6565C26.2008 64.0327 26.06 57.4472 27.046 55.3455Z" fill="#358BC7"/>
<path d="M19.1575 38.2515C19.1575 38.2515 13.9455 36.8503 11.2691 35.5893C9.71957 34.7486 8.73352 38.2515 8.73352 38.2515C8.73352 38.2515 10.5648 40.6334 13.3821 41.4741C16.1994 42.3148 18.5941 42.1747 21.4113 40.9136C21.2705 39.0922 19.1575 38.2515 19.1575 38.2515Z" fill="#2A78B3"/>
<path d="M28.4546 50.4415C28.4546 50.4415 30.9902 57.8676 32.1171 60.3897C33.244 62.9118 34.7935 71.4588 35.357 74.5413C35.9205 77.764 38.456 80.0058 38.3152 83.3686C38.1743 86.7314 38.456 88.5529 36.6248 89.2534C35.7796 89.5337 34.6527 88.9732 33.9484 87.4319C33.5258 86.4511 33.5258 85.05 33.5258 84.0692C33.3849 83.0884 33.1032 82.8081 32.9623 83.0884C32.5397 84.3494 32.1171 85.1901 31.8354 85.3302C30.7085 86.0308 30.9902 84.4895 31.5537 82.668C32.1171 80.8465 32.1171 78.0442 31.2719 76.0826C26.4825 64.453 23.947 59.8292 23.5244 54.9252C23.3835 53.1037 28.4546 50.4415 28.4546 50.4415Z" fill="#FFC3B1"/>
<path d="M32.5398 53.3839C30.4268 49.0403 26.6234 42.595 22.961 41.3339C21.2706 40.7735 19.4393 44.9769 20.0028 49.0403C20.2845 51.5624 21.1297 56.3263 22.961 59.2687C26.2009 59.2687 30.9903 56.3263 32.5398 53.3839Z" fill="#2A78B3"/>
<path d="M12.9596 16.2534C11.9735 15.6929 10.7058 16.3935 10.5649 17.5144C9.71971 17.0941 8.73366 18.215 9.01539 19.0557C7.74761 18.9156 7.32501 20.4568 8.1702 21.4376C6.62069 21.9981 6.90242 23.119 7.74761 24.0998C6.62069 24.9405 6.62069 26.2016 8.02933 26.6219C6.90242 27.4626 7.74761 28.5835 8.45193 28.5835C7.74761 29.5643 8.45193 30.6852 9.29712 30.5451C8.45193 31.8062 9.29712 32.9271 10.1423 33.0672C9.71971 34.3282 10.424 35.1689 11.2692 35.0288C11.6918 36.9904 13.8048 36.1497 13.9457 35.4492C14.65 35.8695 15.7769 35.8695 15.9178 34.7486C17.0447 35.309 18.4533 33.3474 17.749 32.3666C19.1576 31.666 19.4394 31.1056 18.7351 29.9847C20.4254 29.8445 20.7072 29.0039 20.1437 27.7428C21.1298 28.1632 21.6932 27.8829 22.1158 26.4818C23.2427 26.6219 24.2288 25.2207 23.3836 23.9597C24.6514 23.5394 24.5105 22.2783 23.8062 21.858C24.7922 21.5778 25.074 19.476 23.5245 19.3359C24.2288 17.6545 23.3836 16.954 22.1158 17.2342C22.1158 15.833 21.2706 15.2726 19.862 16.1133C19.1576 14.8522 16.6221 14.0115 16.1995 15.6929C15.3543 14.4319 13.3822 14.7121 12.9596 16.2534Z" fill="#000206"/>
</g>
<defs>
<clipPath id="clip0">
<rect width="101" height="146" fill="white"/>
</clipPath>
</defs>
</svg>
