<svg width="99" height="156" viewBox="0 0 99 156" fill="none" xmlns="http://www.w3.org/2000/svg">
<g clip-path="url(#clip0)">
<path d="M48.4529 108.643C48.4529 108.643 50.5474 113.936 49.9888 115.05C49.2907 116.304 47.4754 118.393 46.2187 119.925C44.962 121.457 45.7998 123.129 50.687 122.014C54.4571 121.179 57.6687 117.696 58.2272 115.886C58.7857 114.075 61.0199 110.454 60.4613 108.643C59.7632 106.693 56.6912 104.464 56.6912 104.464L48.4529 108.643Z" fill="#161616"/>
<path d="M11.0311 55.0178C11.0311 55.0178 10.0537 59.0571 10.1933 61.1464C10.333 63.2357 11.0311 65.325 13.4049 66.4392C15.7787 67.5535 17.175 58.7785 17.4543 58.6392C17.7335 58.2214 11.0311 55.0178 11.0311 55.0178Z" fill="#FFC3B1"/>
<path d="M7.8195 117.418C7.8195 117.418 6.42316 118.95 4.4683 120.9C2.65306 122.711 2.09453 123.129 0.418932 124.8C-0.558501 125.775 0.279299 126.611 2.09453 126.611C3.77013 126.611 7.4006 125.775 9.4951 125.079C11.0311 124.521 13.6841 123.129 15.0804 122.154C16.4768 121.318 16.756 120.064 16.756 120.064V117.139L7.8195 117.418Z" fill="#161616"/>
<path d="M16.7561 55.0178C16.7561 55.0178 11.0311 79.8107 10.4726 83.0142C9.77443 86.0785 9.2159 94.575 8.51773 100.286C7.81957 105.996 5.4458 117.139 5.4458 117.139C5.4458 117.139 8.51773 120.064 11.5897 120.064C15.639 120.204 18.2921 118.532 18.2921 118.532C18.2921 118.532 21.364 98.475 21.5036 95.55C21.6433 92.625 22.2018 85.5214 22.2018 85.5214C22.2018 85.5214 29.742 74.7964 31.1383 69.3643C32.5347 63.9321 32.5347 60.0321 32.5347 60.0321L16.7561 55.0178Z" fill="#161616"/>
<path d="M16.4768 58.9178C24.4359 49.7249 22.7603 15.8785 22.7603 15.8785L22.6207 12.1178C22.6207 12.1178 17.4542 13.5107 14.2427 21.1714C11.0311 28.6928 10.6122 36.6321 10.3329 39.4178C10.0537 42.3428 10.0537 50.6999 9.77441 55.8535C11.1707 58.7785 13.8238 59.4749 16.4768 58.9178Z" fill="#161616"/>
<path d="M42.4487 85.2428C40.2145 82.875 40.7731 64.9071 37.003 59.6142C35.0481 56.8285 17.175 53.3464 20.3866 61.2857C22.4811 66.7178 26.3908 80.2285 28.4853 86.2178C29.3231 88.5857 33.7914 95.1321 37.7011 100.564C42.309 106.832 46.3584 111.986 46.3584 111.986C46.3584 111.986 48.8718 113.239 52.5022 111.986C56.1327 110.732 58.0876 104.604 58.0876 104.604C58.0876 104.604 46.2188 89.1428 42.4487 85.2428Z" fill="#232323"/>
<path d="M12.8462 62.1214C14.3822 63.9321 17.873 65.6036 19.6882 66.7179C19.9675 63.9321 20.6657 60.8679 20.6657 60.8679C20.6657 60.8679 20.9449 64.4893 20.9449 67.4143C23.0394 68.3893 25.4132 69.0857 28.2059 68.9464C32.6741 68.8071 37.1424 67.8321 40.7728 65.4643C40.2143 62.8179 37.9802 50.8393 38.5387 46.2429C39.5161 38.5821 41.0521 25.6286 40.7728 23.6786C40.3539 20.3357 32.8137 16.575 32.8137 16.575C32.8137 16.575 27.0888 11.7 21.5035 13.9286C21.5035 13.9286 15.6389 19.0821 14.5218 25.9071C13.5444 31.8964 15.3596 41.3679 15.3596 48.8893C15.4992 51.8143 13.4047 58.3607 12.8462 62.1214Z" fill="#303030"/>
<path d="M24.4359 14.0679C24.4359 14.0679 21.2243 16.7143 18.8506 19.7786C17.4542 21.5893 17.0353 22.9822 17.0353 22.9822L18.8506 24.6536L16.3372 25.9072C16.3372 25.9072 16.3372 33.9857 17.3146 37.7464C18.292 41.3679 20.8054 49.3072 20.8054 49.3072C20.8054 49.3072 23.1792 41.0893 24.2963 39.1393C25.4133 37.05 29.1834 31.2 29.1834 31.2L28.0664 28.5536L31.4176 28.4143C31.4176 28.4143 36.584 23.2607 35.6066 19.7786C34.4895 15.6 29.6023 14.2072 29.6023 14.2072L24.4359 14.0679Z" fill="#161616"/>
<path d="M21.2243 21.45C21.2243 21.45 19.8279 25.7679 18.9901 29.6679C18.1523 33.5679 21.0846 46.5215 21.0846 46.5215C21.0846 46.5215 22.3413 33.8465 24.8547 30.225C27.9267 25.9072 31.8364 21.8679 31.8364 21.8679C31.8364 21.8679 23.7377 20.475 21.2243 21.45Z" fill="white"/>
<path d="M22.6207 22.2858L22.2018 25.6286C22.2018 25.6286 20.2469 27.5786 19.828 29.8072C19.4091 32.1751 19.828 40.5322 19.828 40.5322L20.9451 46.5215L21.5036 42.4822C21.5036 42.4822 22.3414 37.3286 23.1792 34.1251C23.3189 32.7322 23.4585 31.6179 23.4585 31.2001C24.017 29.6679 24.1567 26.4644 24.1567 26.4644L26.2512 23.9572L24.2963 21.5894L22.6207 22.2858Z" fill="#DB3F33"/>
<path d="M24.017 15.4607L23.5981 20.7536C23.5981 20.7536 24.2963 21.7286 26.1115 23.2607C28.0664 22.7036 32.395 18.525 32.395 18.525L30.8591 10.3071L24.017 15.4607Z" fill="#FFAB95"/>
<path d="M23.8774 17.4108L24.2963 21.7286L20.8055 23.1215C20.8055 23.1215 20.3866 18.5251 23.8774 17.4108Z" fill="#DDDDDD"/>
<path d="M32.1156 16.8535C32.1156 16.8535 30.9985 18.8035 28.4851 20.1964C27.2284 20.8928 24.2961 21.5892 24.2961 21.5892L25.5528 25.4892C25.5528 25.4892 29.7418 23.8178 31.6967 22.1464C31.8363 22.2857 34.4894 19.0821 32.1156 16.8535Z" fill="#DDDDDD"/>
<path d="M30.8591 8.91421C30.9987 9.47135 31.1383 10.1678 30.7194 10.7249C30.1609 11.5606 31.278 10.8642 31.5572 10.0285C31.8365 8.9142 31.278 8.07849 31.278 8.07849L30.8591 8.91421Z" fill="#FFAB95"/>
<path d="M29.7419 33.5678L34.4895 36.4928L35.048 34.6821L30.4401 31.7571L29.7419 33.5678Z" fill="white"/>
<path d="M25.6925 0.139274C21.9224 0.696417 20.2468 4.7357 20.2468 8.35713C20.2468 12.1178 22.3413 15.6 24.8547 17.4107C27.3681 19.0821 30.4401 19.6393 32.3949 15.4607C34.3498 11.2821 35.048 6.12856 32.3949 2.64642C30.3004 -0.278583 27.5078 -0.139297 25.6925 0.139274Z" fill="#FFC3B1"/>
<path d="M20.8053 8.49643C20.8053 8.49643 19.6882 7.93929 19.409 9.19286C19.2693 10.4464 19.6882 12.675 21.0846 12.8143C22.4809 12.9536 20.8053 8.49643 20.8053 8.49643Z" fill="#FFC3B1"/>
<path d="M20.3866 9.33216C20.3866 9.33216 19.6884 9.05359 19.828 10.3072C19.9677 11.7 20.8055 12.1179 20.8055 12.1179L20.3866 9.33216Z" fill="#FFAB95"/>
<path d="M22.2017 18.9428C21.7828 16.1571 18.7108 14.4857 20.3864 11.4214C20.5261 11.5607 20.6657 11.6999 20.945 11.5607C21.5035 11.2821 21.2242 10.0285 20.3864 10.3071C19.9675 10.4464 19.9675 10.8642 20.1072 11.2821C19.409 12.3964 19.2694 13.6499 19.6883 14.9035C20.2468 16.1571 21.3639 17.2714 21.6431 18.6642C21.9224 20.3357 20.6657 22.1464 20.3864 23.8178C21.2242 22.4249 22.4809 20.8928 22.2017 18.9428Z" fill="#303030"/>
<path d="M24.7151 10.8643L34.629 9.47144C34.629 9.47144 34.629 12.1179 33.0931 12.3964C31.8364 12.5357 31.1382 11.1429 30.0212 11.4214C28.9041 11.7 28.4852 12.675 27.2285 12.9536C25.2736 13.2322 24.7151 10.8643 24.7151 10.8643Z" fill="#161616"/>
<path d="M19.8279 8.49647C19.8279 8.49647 20.526 7.80004 21.7827 8.77504C23.1791 9.75004 25.2736 11.1429 25.2736 11.1429L24.9943 11.7C24.9943 11.7 22.062 9.75004 21.5035 9.33219C20.8053 8.91433 19.8279 8.49647 19.8279 8.49647Z" fill="#161616"/>
<path d="M39.6558 62.9572C39.6558 62.9572 37.7009 67.4143 37.7009 71.7321C37.7009 76.05 40.0747 78.1393 42.8674 73.2643C44.6826 69.9214 44.6826 64.7679 44.6826 64.7679L39.6558 62.9572Z" fill="#FFC3B1"/>
<path d="M49.9887 46.3822C50.1283 40.1143 48.8716 34.5429 47.3357 29.9465C44.8223 22.7036 40.2144 20.1965 38.1199 22.7036C36.165 24.9322 35.7461 34.5429 40.2144 46.3822C39.7955 50.4215 35.7461 66.4393 35.7461 66.4393C35.7461 66.4393 37.9802 69.225 40.6333 69.5036C43.2863 69.7822 45.6601 68.8072 45.6601 68.8072C45.6601 68.8072 49.9887 51.2572 49.9887 46.3822Z" fill="#161616"/>
<path d="M66.3259 40.6714C66.3259 40.6714 62.6955 40.2535 60.0424 44.85C55.8534 51.8142 55.7138 59.8928 55.7138 59.8928C55.7138 59.8928 54.3175 57.9428 50.8267 54.6C49.4303 56.8285 46.2188 57.8035 46.2188 57.8035C46.2188 57.8035 47.3358 61.425 49.2907 65.4642C50.687 68.25 52.3626 69.0857 54.0382 69.7821C55.8535 70.6178 57.1101 70.8964 58.3668 70.2C65.0692 66.5785 69.2582 43.4571 69.2582 43.4571L66.3259 40.6714Z" fill="#161616"/>
<path d="M85.5953 124.939C85.5953 124.939 85.8746 127.029 85.3161 128.7C84.6179 131.068 82.9423 134.55 84.4783 134.968C87.1313 135.664 90.6221 134.411 92.1581 129.675C93.4148 125.775 95.6489 120.9 94.3922 119.089C93.4148 118.671 91.3203 118.114 91.3203 118.114L85.5953 124.939Z" fill="#161616"/>
<path d="M59.0649 84.1286C59.0649 84.1286 59.9027 101.261 61.9972 107.389C64.0917 113.518 68.8393 114.911 72.8886 117.696C77.7758 121.039 83.6404 126.471 83.6404 126.471C83.6404 126.471 88.1087 125.775 89.6446 123.546C92.158 119.646 91.5995 117.139 91.5995 117.139C91.5995 117.139 85.1764 111.986 81.8252 109.618C76.7984 105.996 74.285 102.375 74.285 102.375L75.1228 82.1786C75.1228 82.1786 62.1369 81.6215 59.0649 84.1286Z" fill="#161616"/>
<path d="M58.0876 146.807C58.0876 146.807 56.6912 148.339 54.7364 150.289C52.9211 152.1 52.3626 152.518 50.687 154.189C49.7096 155.164 50.5474 156 52.3626 156C54.0382 156 57.6687 155.164 59.7632 154.468C61.2991 153.911 63.9522 152.518 65.3485 151.543C66.7448 150.707 67.0241 149.454 67.0241 149.454V146.529L58.0876 146.807Z" fill="#161616"/>
<path d="M67.0242 84.2678C67.0242 84.2678 61.2992 109.061 60.7407 112.264C60.1821 115.468 59.6236 123.964 58.7858 129.675C58.0876 135.386 55.7139 146.529 55.7139 146.529C55.7139 146.529 58.7858 149.454 61.8577 149.454C65.9071 149.593 68.5601 147.921 68.5601 147.921C68.5601 147.921 71.3528 125.218 71.4924 122.293C71.6321 119.368 72.4699 114.911 72.4699 114.911C72.4699 114.911 80.0101 104.186 81.4064 98.7535C82.8027 93.3214 82.8027 89.4214 82.8027 89.4214L67.0242 84.2678Z" fill="#232323"/>
<path d="M65.2087 42.0643C65.2087 42.0643 59.3441 46.8 58.7856 53.3465C58.5063 56.6893 59.4837 67.6929 59.4837 74.9357C59.4837 78.975 57.9478 90.3965 57.9478 90.3965C57.9478 90.3965 59.9026 91.7893 63.2538 93.3215C63.2538 90.3965 64.3709 85.9393 64.3709 85.9393C64.3709 85.9393 64.6501 91.0929 64.6501 93.8786C66.3257 94.4358 68.4202 94.7143 70.5147 94.7143C75.8208 94.7143 83.9195 90.9536 83.9195 90.9536C83.9195 90.9536 84.897 83.85 81.5458 72.0108C79.4513 64.9072 84.0592 52.7893 83.7799 50.8393C83.361 47.6358 75.9604 44.0143 75.9604 44.0143C75.9604 44.0143 70.6544 39.975 65.2087 42.0643Z" fill="#333333"/>
<path d="M67.7222 41.5072C67.7222 41.5072 64.5107 44.0143 62.2765 47.0786C60.8802 48.8893 60.6009 50.1429 60.6009 50.1429L62.2765 51.8143L59.9028 52.9286C59.9028 52.9286 58.5064 61.9822 60.3217 65.0465C62.1369 68.1108 64.371 75.7715 64.371 75.7715C64.371 75.7715 66.8844 67.8322 68.0015 65.8822C69.1186 63.9322 73.3076 58.5001 73.3076 58.5001L71.2131 55.2965L74.7039 54.1822C74.7039 54.1822 79.5911 48.0536 79.0325 46.2429C78.0551 42.7608 74.7039 42.0643 74.7039 42.0643L67.7222 41.5072Z" fill="#161616"/>
<path d="M64.6503 47.775C64.6503 47.775 63.2539 51.9536 62.5558 55.7143C61.8576 59.475 64.5106 72.0107 64.5106 72.0107C64.5106 72.0107 65.7673 59.7536 68.1411 56.2714C71.0734 52.0928 74.8435 48.1928 74.8435 48.1928C74.8435 48.1928 67.1637 46.8 64.6503 47.775Z" fill="white"/>
<path d="M66.0467 48.6107L65.6278 51.8143C65.6278 51.8143 63.6729 53.625 63.254 55.8536C62.8351 58.0822 63.254 66.1607 63.254 66.1607L64.3711 71.8714L64.79 67.9714C64.79 67.9714 65.6278 62.9572 66.4656 59.8929C66.6053 58.5 66.7449 57.3857 66.7449 57.1072C67.3034 55.575 67.3034 52.5107 67.3034 52.5107L69.2583 50.1429L67.3034 47.9143L66.0467 48.6107Z" fill="#2A78B3"/>
<path d="M67.3032 41.9249L67.0239 46.9392C67.0239 46.9392 67.7221 47.9142 69.3977 49.4464C71.2129 48.8892 75.5415 44.8499 75.5415 44.8499L74.1452 36.9106L67.3032 41.9249Z" fill="#FFAD97"/>
<path d="M74.8436 28.4142C72.8887 25.9071 67.443 23.9571 63.8125 29.2499C60.0424 34.8214 63.6729 43.8749 66.8845 43.3178C68.6997 43.0392 72.8887 41.3678 74.7039 38.4428C76.7984 34.9607 76.3795 30.2249 74.8436 28.4142Z" fill="#FFC3B1"/>
<path d="M67.1635 43.875L67.5824 48.0536L64.2312 49.4464C64.2312 49.4464 63.952 44.9893 67.1635 43.875Z" fill="#DDDDDD"/>
<path d="M75.1227 43.3179C75.1227 43.3179 74.1453 45.2679 71.6319 46.6607C70.3752 47.3572 67.5825 48.0536 67.5825 48.0536L68.8392 51.8143C68.8392 51.8143 72.8886 50.1429 74.8435 48.6107C74.8435 48.6107 77.4965 45.5464 75.1227 43.3179Z" fill="#DDDDDD"/>
<path d="M72.4698 25.9072C69.2582 22.0072 62.6954 25.6286 61.5784 28.6929C60.182 32.8714 62.2765 35.3786 62.2765 35.3786C62.2765 35.3786 63.6729 33.2893 67.0241 32.4536C69.6771 31.7571 70.9338 32.5929 70.9338 32.5929C70.6545 35.5179 72.3301 36.4929 72.6094 36.3536C72.8887 35.1 73.4472 34.8214 74.1454 35.3786C74.8435 35.9357 74.7039 38.3036 74.7039 38.3036C74.7039 38.3036 77.3569 36.075 77.3569 32.175C77.3569 29.8072 76.7984 26.1857 72.4698 25.9072Z" fill="#161616"/>
<path d="M81.1272 108.782L82.3839 112.404L95.5094 105.022V113.936L99.1399 116.025V100.425C99.1399 99.8679 99.0003 99.3108 98.721 98.7537L81.1272 108.782Z" fill="#D6B199"/>
<path d="M97.1849 96.9429C96.766 96.6644 96.3471 96.6644 95.9282 96.9429L80.01 106.136L80.9874 108.922L98.5812 98.7537C98.302 97.9179 97.7434 97.3608 97.1849 96.9429Z" fill="#DDB9A6"/>
<path d="M82.9422 125.218V109.618C82.9422 108.364 82.1044 106.832 81.127 106.275C80.1496 105.718 79.3118 106.275 79.3118 107.668V123.268L82.9422 125.218Z" fill="#AF8A71"/>
<path d="M99.0002 101.818L82.9424 111.011V125.218L99.0002 116.025V101.818Z" fill="#C69E83"/>
<path d="M93.1355 98.6144C93.1355 98.6144 93.8337 98.1965 94.3922 97.7787C95.23 97.2215 96.6263 98.1965 95.9282 98.7537C95.0904 99.3108 94.6715 99.5894 94.6715 99.5894L93.1355 98.6144Z" fill="white"/>
<path d="M84.7573 103.489C84.7573 103.489 85.4555 99.0322 85.7348 98.1965C85.8744 97.5001 87.9689 96.525 89.5049 95.6893C91.0408 94.8536 92.856 94.4358 93.8335 95.8286C94.8109 97.2215 94.8109 99.7286 94.8109 99.7286C94.8109 99.7286 94.2524 99.45 93.9731 99.1715C93.4146 98.8929 93.275 98.7536 93.275 98.7536C93.275 98.7536 92.9957 97.6393 92.7164 96.9429C92.5768 96.6643 92.2975 96.5251 92.0183 96.6643C90.9012 96.9429 87.8293 98.6143 87.55 99.4501C87.2707 100.704 86.4329 104.464 86.4329 104.464L84.7573 103.489Z" fill="#AF8A71"/>
<path d="M84.7575 103.489C84.7575 103.489 84.0593 103.907 83.3612 104.325C83.0819 104.464 84.0593 105.579 84.8971 105.3C85.7349 104.882 86.2935 104.604 86.2935 104.604L84.7575 103.489Z" fill="white"/>
<path d="M91.041 114.493C91.041 114.493 91.041 116.722 92.4373 115.747C93.5544 114.911 93.2752 113.239 93.2752 113.239L91.041 114.493Z" fill="white"/>
<path d="M82.9424 111.011C82.9424 111.011 84.3387 118.114 91.46 114.632C98.5813 111.15 99.0002 101.818 99.0002 101.818L98.4417 102.236L83.6405 110.732C83.2216 110.871 82.9424 111.011 82.9424 111.011Z" fill="#D6B199"/>
<path d="M87.2707 93.3215C87.2707 93.3215 86.9915 94.575 86.8518 95.4107C86.7122 96.2465 86.014 97.0822 86.5726 97.3607C86.8518 97.0822 88.1085 96.3857 88.1085 96.3857C88.1085 96.3857 89.3652 97.6393 88.8067 98.0572C88.1085 98.475 87.9689 98.6143 87.9689 98.6143C87.9689 98.6143 88.5274 99.45 89.5049 99.3107C90.4823 99.1715 91.3201 98.6143 91.8787 98.0572C92.4372 97.5 93.1353 95.6893 92.2975 93.4607C91.4597 91.3715 87.2707 93.3215 87.2707 93.3215Z" fill="#FFC3B1"/>
<path d="M81.8252 49.0286C77.6362 50.5607 80.4289 59.8928 81.8252 66.5786C83.2216 73.4036 84.7575 74.9357 85.0368 76.1893C85.1764 77.5821 86.5728 93.4607 86.5728 93.4607C86.5728 93.4607 89.0862 95.4107 91.4599 94.9928C94.2526 94.4357 94.2526 92.4857 94.2526 92.4857C94.2526 92.4857 93.9733 75.3536 92.4374 69.5036C90.7618 63.6536 87.6898 46.9393 81.8252 49.0286Z" fill="#161616"/>
<path d="M52.223 55.5749L50.2681 47.0785C50.1285 46.5214 49.57 45.8249 49.0114 45.6857L45.1017 44.4321C44.8224 44.2928 44.6828 44.4321 44.5432 44.5714L44.1243 44.9892L44.4035 45.5464L46.2188 53.9035C46.3584 54.4607 46.9169 55.1571 47.4755 55.2964L51.2456 56.4107L51.5248 56.8285L51.9437 56.4107C52.223 56.2714 52.223 55.9928 52.223 55.5749Z" fill="#232323"/>
<path d="M51.1059 56.8284L47.1961 55.7142C46.6376 55.5749 46.0791 54.8784 45.9394 54.3213L43.9846 45.8249C43.8449 45.2677 44.1242 44.8499 44.6827 44.9892L48.5925 46.2427C49.151 46.382 49.7095 47.0784 49.8492 47.6356L51.804 56.132C51.9437 56.6892 51.5248 57.107 51.1059 56.8284Z" fill="#333333"/>
<path d="M51.6644 50.8393C51.9437 50.1429 51.804 49.5857 51.2455 49.4465C50.9662 48.4715 50.9662 48.3322 49.9888 48.6107C48.5925 49.1679 46.9169 50.1429 46.3583 50.0036C45.5205 49.725 44.5431 47.6357 44.5431 47.6357C44.5431 47.6357 44.1242 49.3072 44.2638 51.5357C44.4035 52.7893 45.9394 56.2715 47.1961 57.3857C47.8943 57.1072 48.7321 56.6893 49.2906 56.2715C49.151 55.9929 49.151 55.9929 49.0114 55.7143C50.1284 54.8786 50.5473 53.9036 51.3851 53.3465C51.804 53.0679 51.804 53.0679 51.804 52.2322C52.2229 51.5357 51.9437 50.9786 51.6644 50.8393Z" fill="#FFC3B1"/>
</g>
<defs>
<clipPath id="clip0">
<rect width="99" height="156" fill="white"/>
</clipPath>
</defs>
</svg>
