<svg width="46" height="141" viewBox="0 0 46 141" fill="none" xmlns="http://www.w3.org/2000/svg">
<g clip-path="url(#clip0)">
<path d="M19.6177 17.9626C19.6177 17.9626 17.1824 17.4224 14.7471 19.8534C12.3118 22.2845 4.32943 30.1178 4.05884 30.658C3.92355 31.1983 3.11178 35.7902 5.27649 36.0603C7.44119 36.3305 11.3647 34.4397 13.2588 33.6293C15.153 32.819 17.1824 31.7385 17.1824 31.7385C17.1824 31.7385 22.5941 20.6638 21.7824 19.3132C20.9706 17.8276 19.6177 17.9626 19.6177 17.9626Z" fill="#2A78B3"/>
<path d="M11.2294 116.825C11.2294 116.825 9.74115 118.445 7.71174 120.336C5.81762 122.092 5.27645 122.632 3.65292 124.253C2.70586 125.198 3.51762 126.144 5.41174 126.009C7.03527 126.009 10.8235 125.198 12.9882 124.388C14.4764 123.848 17.3176 122.362 18.6706 121.417C20.0235 120.471 20.2941 119.256 20.2941 119.256V116.284L11.2294 116.825Z" fill="#161616"/>
<path d="M31.2529 126.279C31.2529 126.279 30.847 129.385 30.7117 133.167C30.4411 137.083 30.9823 140.46 32.2 140.865C33.4176 141.27 36.8 141.27 38.6941 135.868C40.5882 130.466 39.5058 125.333 39.5058 125.333L31.2529 126.279Z" fill="#161616"/>
<path d="M38.6941 67.7988C39.3706 56.8592 33.2823 51.0517 33.2823 51.0517C33.8235 47.4052 16.6412 52.5374 16.6412 52.5374C16.6412 52.5374 12.9882 72.5259 11.3647 82.9253C9.60586 94.8103 10.4176 116.149 10.4176 116.149C10.4176 116.149 10.6882 118.716 15.0176 118.716C18.4 118.716 21.2412 115.879 21.2412 115.879L21.647 91.0287L26.247 74.0115C26.247 74.0115 26.1117 90.8937 28.1412 97.7816C31.1176 108.046 30.1706 127.629 30.1706 127.629C30.1706 127.629 35.9882 129.655 39.9117 127.764C43.8353 125.738 43.0235 123.578 43.0235 123.578C43.0235 123.578 44.3764 106.695 39.2353 95.3506C38.8294 86.7069 38.4235 72.931 38.6941 67.7988Z" fill="#232323"/>
<path d="M15.2882 59.02L15.0176 61.451C15.0176 61.451 18.9411 65.7729 26.6529 65.7729C34.3646 65.7729 38.5588 63.3419 38.5588 63.3419L38.1529 61.1809L15.2882 59.02Z" fill="#161616"/>
<path d="M35.5824 78.3334L35.1765 74.0115C35.1765 74.0115 36.5295 73.6064 36.3942 72.1207C36.2589 70.7702 34.9059 70.2299 33.9589 70.9052C33.553 71.1753 33.1471 71.7156 33.2824 72.796C33.4177 73.8765 34.3647 74.0115 34.3647 74.0115C34.3647 74.0115 34.6353 77.6581 34.6353 78.3334C34.6353 79.0087 34.9059 79.0087 35.4471 79.0087C35.9883 78.8736 36.2589 78.8736 36.2589 78.8736V78.1983L35.5824 78.3334ZM34.7706 73.2012C34.0942 73.0661 33.8236 71.4455 35.0412 71.5805C35.4471 71.5805 35.7177 72.1207 35.7177 72.5259C35.5824 72.9311 35.1765 73.2012 34.7706 73.2012Z" fill="#C4BEBB"/>
<path d="M32.4706 74.5518L33.1471 70.365C33.1471 70.365 34.6353 70.365 34.7706 68.7443C34.9059 67.3937 33.6883 66.5834 32.7412 66.9886C32.3353 67.1236 31.7941 67.5288 31.6588 68.7443C31.6588 69.8248 32.3353 70.23 32.3353 70.23C32.3353 70.23 31.7941 73.7414 31.6588 74.5518C31.5235 75.2271 31.6588 75.3621 32.3353 75.3621C32.8765 75.3621 33.1471 75.3621 33.1471 75.3621L33.2824 74.6868L32.4706 74.5518ZM32.8765 69.4196C32.2 69.1495 32.3353 67.5288 33.4177 67.934C33.8235 68.069 33.9588 68.6093 33.8235 69.0144C33.6883 69.2845 33.2824 69.5547 32.8765 69.4196Z" fill="#D6CFCC"/>
<path d="M35.853 74.1466L35.5824 69.8248C35.5824 69.8248 36.9353 69.4196 36.8001 67.934C36.6648 66.5834 35.3118 66.0432 34.3648 66.7185C33.9589 66.9886 33.553 67.5288 33.6883 68.6093C33.8236 69.6897 34.7706 69.8248 34.7706 69.8248C34.7706 69.8248 35.0412 73.4713 35.0412 74.1466C35.0412 74.8219 35.3118 74.8219 35.853 74.8219C36.3942 74.6868 36.6648 74.6868 36.6648 74.6868V74.0116L35.853 74.1466ZM35.1765 69.0144C34.5 68.8794 34.2295 67.2587 35.4471 67.3937C35.853 67.3937 36.1236 67.934 36.1236 68.3391C35.853 68.7443 35.5824 69.0144 35.1765 69.0144Z" fill="#EBE4E0"/>
<path d="M33.147 68.204C33.0117 68.204 33.0117 68.069 33.0117 68.069V66.0431C33.0117 64.8276 33.4176 64.6926 33.9588 64.5575H34.0941C34.2294 64.5575 34.3647 64.5575 34.5 64.6926C35.0411 65.2328 35.0411 67.3937 35.0411 67.6638C35.0411 67.7989 34.9058 67.7989 34.9058 67.7989C34.7705 67.7989 34.7705 67.6638 34.7705 67.6638C34.7705 66.7184 34.6352 65.2328 34.3647 64.9627H34.2294H34.0941C33.6882 65.0977 33.4176 65.0977 33.4176 66.1782V68.204C33.4176 68.204 33.2823 68.204 33.147 68.204Z" fill="#595959"/>
<path d="M33.553 63.2069C33.553 63.2069 33.553 64.4224 33.553 64.9627C33.553 65.5029 33.8236 65.773 34.2294 65.6379C34.6353 65.3678 34.5 64.9627 34.5 64.1523C34.5 63.477 34.5 63.2069 34.5 63.2069H33.553Z" fill="#EBE4E0"/>
<path d="M13.5294 57.6695C13.8 58.4799 14.6118 58.8851 15.1529 59.4253C21.1059 64.8276 31.2529 65.6379 38.4235 61.8563C39.5059 61.181 39.1 59.0201 38.9647 57.9397C38.6941 55.3736 38.4235 52.9425 37.8823 50.9167C36.1235 43.4885 39.3706 30.3879 39.1 28.4971C38.6941 25.1207 31.9294 22.8247 31.9294 22.8247C31.9294 22.8247 25.1647 19.7184 19.6176 20.3937C19.6176 20.3937 13.6647 25.1207 12.9882 31.8736C12.5823 35.25 14.0706 44.704 14.0706 52.1322C14.2059 53.0776 13.1235 56.319 13.5294 57.6695Z" fill="#358BC7"/>
<path d="M30.4412 49.431C30.4412 49.431 27.8706 47.4052 26.9236 46.8649C25.9765 46.4598 25.3 47.1351 25.3 47.1351C25.3 47.1351 23.6765 46.5948 22.8647 46.8649C22.053 47.1351 21.9177 47.5402 21.9177 48.0805C21.9177 48.6207 21.2412 48.8908 21.2412 49.431C21.2412 49.9713 21.6471 50.3764 21.5118 50.9167C21.2412 51.4569 21.1059 51.5919 21.7824 52.4023C22.053 52.6724 21.7824 53.2126 21.7824 53.4827C22.053 54.4281 23.6765 54.6983 24.4883 54.6983C25.4353 54.6983 30.3059 54.4281 30.3059 54.4281V49.431H30.4412Z" fill="#FFC3B1"/>
<path d="M36.2587 51.5919C37.3411 54.158 38.9646 56.9942 42.347 56.9942C44.5117 56.9942 45.9999 54.023 45.9999 51.862C45.9999 46.5948 45.1882 40.7873 43.9705 36.0603C42.4823 29.5776 41.2646 25.2557 37.3411 25.6609C35.8529 26.6063 34.7705 31.4684 34.7705 36.6006L36.2587 51.5919Z" fill="#2A78B3"/>
<path d="M29.4941 48.2154C28.8176 48.6206 27.8705 50.2413 28.0058 52.1321C28.0058 53.6177 28.0058 54.6982 28.6823 55.1034C30.0352 56.1838 33.2823 55.7787 35.447 56.4539C37.6117 57.1292 42.6176 58.0746 44.2411 56.1838C45.8647 54.293 46.4058 51.0517 43.8352 49.8361C41.8058 48.7557 36.5294 48.6206 33.0117 48.6206C31.1176 48.6206 30.1705 47.6752 29.4941 48.2154Z" fill="#2A78B3"/>
<path d="M4.19412 18.908C4.19412 18.908 2.70588 20.2586 2.70588 21.6092C2.70588 22.8247 2.02941 26.2011 1.62353 27.8218C1.21765 29.4425 1.35294 32.2787 2.57059 34.5747C3.78823 36.8707 5.95294 36.1954 7.44118 35.9253C7.98235 35.7902 8.52353 32.0086 8.52353 30.523C8.52353 29.0373 10.4176 22.9598 10.0118 20.2586C9.74118 18.908 8.38824 16.6121 8.38824 16.6121L4.19412 18.908Z" fill="#2A78B3"/>
<path d="M19.8883 25.2557C19.8883 25.2557 19.6177 27.9569 19.4824 30.2529C19.2118 32.5488 20.2942 37.4109 20.2942 37.4109C20.2942 37.4109 24.4883 33.2241 25.3 32.1437C26.2471 31.1983 27.4647 28.7672 27.4647 28.7672L19.8883 25.2557Z" fill="white"/>
<path d="M30.7117 22.1494L29.6293 15.9368L22.8646 20.7988L22.0528 25.3908C22.0528 25.3908 21.5117 26.6063 21.647 27.6868C25.0293 26.0661 28.6823 25.3908 30.7117 22.1494Z" fill="#FFAB95"/>
<path d="M20.5647 34.8448C21.1059 34.3046 21.7824 33.8994 22.3236 33.3592L22.7294 28.4971L21.7824 28.3621C21.7824 28.3621 20.5647 30.3879 20.0236 32.0086C20.0236 32.1437 20.1589 32.1437 20.1589 32.2787C20.1589 33.3592 20.2941 34.1695 20.5647 34.8448Z" fill="#232323"/>
<path d="M21.647 26.066C21.647 26.066 20.8353 27.9568 21.3765 29.4425C21.5118 29.5775 22.7294 29.8477 22.7294 29.8477C22.7294 29.8477 23.6765 28.4971 24.0823 26.8764C23.5412 26.7413 22.8647 26.6063 22.4588 26.8764C22.0529 26.2011 21.647 26.066 21.647 26.066Z" fill="#232323"/>
<path d="M30.1705 22.0143C29.3588 24.0402 27.5999 25.931 26.5176 27.5517C25.1646 29.4425 20.6999 34.7097 20.6999 34.7097C20.6999 34.7097 20.2941 30.1177 20.4294 27.5517C20.6999 24.9856 22.3235 21.4741 22.3235 21.4741L21.3764 20.9338C21.3764 20.9338 18.9411 25.7959 18.5352 29.1723C18.1294 32.5488 19.7529 38.8965 19.7529 38.8965C19.7529 38.8965 22.5941 35.52 25.4352 32.4137C28.2764 29.3074 29.0882 28.2269 30.5764 25.7959C30.847 25.3907 31.9294 23.4999 31.9294 22.9597C31.3882 22.5545 30.7117 22.2844 30.1705 22.0143Z" fill="#2A78B3"/>
<path d="M22.7294 21.8793C22.3235 24.1752 22.5941 26.6063 22.5941 26.6063C22.5941 26.6063 20.0235 26.3362 19.2117 26.7413C18.6706 25.7959 19.8882 21.7442 21.3764 20.5287C21.5117 20.5287 22.0529 21.204 22.7294 21.8793Z" fill="#EBE4E0"/>
<path d="M30.3058 19.5834C30.3058 19.5834 31.3882 21.3391 31.3882 22.1495C31.3882 24.5805 27.194 28.9023 25.4352 29.5776C23.5411 27.5518 22.4587 26.7414 22.4587 26.7414C22.4587 26.7414 22.7293 26.2012 25.5705 24.1753C28.9529 21.8794 30.3058 19.5834 30.3058 19.5834Z" fill="#EBE4E0"/>
<path d="M30.1706 8.10342C28.4117 5.80745 23.1353 3.78158 19.7529 8.91377C16.2353 14.181 19.6176 22.8247 22.7294 22.2845C24.4882 22.0143 28.4117 20.3937 30.1706 17.5574C31.9294 14.4511 31.5235 9.99423 30.1706 8.10342Z" fill="#FFC3B1"/>
<path d="M18.4 10.6695C19.0764 11.8851 20.2941 13.2356 23.1352 13.3707C25.5705 13.5057 27.4647 12.8305 27.4647 12.8305L27.1941 16.0718C27.1941 16.0718 27.7352 16.0718 28.0058 15.9368C28.2764 14.7213 28.8176 14.4512 29.4941 14.9914C30.1705 15.5316 30.0352 17.8276 30.0352 17.8276C30.0352 17.8276 32.6058 15.6667 32.6058 12.0201C32.6058 9.72414 30.5764 4.86207 26.5176 4.32184C22.3235 3.78161 19.347 5.94253 18.4 8.23851C17.7235 9.04885 17.9941 10.1293 18.4 10.6695Z" fill="#2B2B2B"/>
<path d="M17.5882 8.64368C17.5882 8.64368 12.7176 11.3448 14.6117 13.2356C17.4529 15.9368 26.1117 16.0718 29.4941 12.2902L17.5882 8.64368Z" fill="#232323"/>
<path d="M17.1823 8.91377V6.6178C17.1823 6.6178 18.9411 9.99423 24.7587 10.2643C29.6293 10.5345 32.6058 9.72412 32.6058 9.72412V11.885C32.6058 11.885 29.494 13.6408 22.9999 12.1552C17.7234 11.0747 17.1823 8.91377 17.1823 8.91377Z" fill="#3A3A3A"/>
<path d="M16.6411 1.08044C16.6411 1.08044 15.2882 1.89079 15.2882 3.64654C15.2882 4.727 16.6411 2.97125 16.6411 2.97125V1.08044Z" fill="#232323"/>
<path d="M17.9941 7.29309C17.9941 7.29309 17.1823 9.45401 19.347 10.3994C20.8352 11.0747 21.5117 9.04884 21.5117 9.04884L17.9941 7.29309Z" fill="white"/>
<path d="M31.7941 10.9396C27.5999 11.885 21.3764 10.5345 17.7235 7.69825C14.2058 4.86204 14.6117 1.75572 18.8058 0.810315C22.9999 -0.135088 29.2235 1.21549 32.8764 4.05169C36.3941 6.75284 35.9882 9.85917 31.7941 10.9396Z" fill="#232323"/>
<path d="M35.0676 8.47149C35.8483 6.05817 32.1581 2.70817 26.8253 0.989051C21.4924 -0.730066 16.5364 -0.167301 15.7557 2.24602C14.975 4.65934 18.6653 8.00934 23.9981 9.72846C29.3309 11.4476 34.2869 10.8848 35.0676 8.47149Z" fill="#2D2D2D"/>
<path d="M33.0118 26.2012C33.0118 26.2012 33.8236 24.5805 34.3648 24.0403C34.906 23.5001 35.0413 24.3104 35.0413 24.3104C35.0413 24.3104 34.6354 24.4455 34.0942 25.3909C33.6883 26.0662 33.553 26.4714 33.553 26.4714L33.0118 26.2012Z" fill="#2D2D2D"/>
<path d="M32.6059 25.796C32.6059 25.796 30.3059 29.3075 32.3353 30.388C34.3647 31.4684 35.9883 27.5518 35.9883 27.5518L32.6059 25.796Z" fill="#232323"/>
<path d="M32.3354 30.388C32.3354 30.388 31.5236 29.9828 31.253 29.1725C30.9824 28.3621 35.4471 26.7415 35.4471 26.7415L35.9883 27.4167L32.3354 30.388Z" fill="#232323"/>
<path d="M32.0648 25.1207C32.0648 25.1207 29.7648 28.6322 31.7942 29.7127C33.8236 30.7931 35.4471 26.8765 35.4471 26.8765L32.0648 25.1207Z" fill="#2D2D2D"/>
<path d="M31.7942 26.3362L34.3648 27.6868C34.5001 27.5517 34.5001 27.4167 34.6354 27.2816L31.9295 25.931C31.9295 26.0661 31.9295 26.2011 31.7942 26.3362Z" fill="#444444"/>
<path d="M31.5236 27.2816L33.8236 28.362C33.9589 28.227 34.0941 28.0919 34.2294 27.9569L31.6589 26.7413C31.6589 26.8764 31.6589 27.0115 31.5236 27.2816Z" fill="#444444"/>
<path d="M32.2001 28.9023C32.7413 29.1724 33.1471 29.0373 33.6883 28.7672L31.6589 27.6868C31.5236 28.227 31.6589 28.6322 32.2001 28.9023Z" fill="#444444"/>
<path d="M35.0412 26.6063L32.4706 25.2557C32.4706 25.2557 32.3353 25.3908 32.3353 25.5259L35.0412 26.8764C34.9059 26.7414 35.0412 26.6063 35.0412 26.6063Z" fill="#444444"/>
<path d="M32.2 25.5259C32.2 25.6609 32.0647 25.796 32.0647 25.9311L34.7706 27.2816C34.9059 27.1466 34.9059 27.0115 34.9059 26.8765L32.2 25.5259Z" fill="#EBE4E0"/>
<path d="M31.6588 26.7414L34.2294 27.9569C34.3647 27.8218 34.3647 27.6868 34.5 27.6868L31.9294 26.3362C31.7941 26.4712 31.7941 26.6063 31.6588 26.7414Z" fill="#EBE4E0"/>
<path d="M31.5236 27.6868L33.553 28.7672C33.6883 28.6322 33.8236 28.6322 33.8236 28.4971L31.5236 27.2816C31.5236 27.4167 31.5236 27.5517 31.5236 27.6868Z" fill="#EBE4E0"/>
<path d="M10.8236 17.8276C10.8236 17.8276 8.65888 19.8535 7.44123 20.6638C6.22359 21.4742 5.00594 20.7989 5.00594 20.7989L4.73535 19.4483C4.73535 19.4483 5.953 18.2328 6.35888 18.0978C6.76476 18.0978 10.8236 17.8276 10.8236 17.8276Z" fill="#FFC3B1"/>
<path d="M26.653 30.6581L26.1118 32.4138L32.0648 35.5202L32.7412 33.6293L26.653 30.6581Z" fill="white"/>
<path d="M12.4471 14.7213C12.1765 14.7213 11.9059 14.7213 11.7706 14.5862C11.5 14.4511 11.5 14.3161 11.5 14.181C11.5 14.046 11.6353 13.9109 11.7706 13.7759C12.0412 13.6408 12.7176 13.6408 12.9882 13.7759C13.2588 13.9109 13.2588 14.046 13.2588 14.181C13.2588 14.3161 13.1235 14.4511 12.9882 14.5862C12.8529 14.7213 12.7176 14.7213 12.4471 14.7213ZM12.1765 13.7759C12.0412 13.7759 11.7706 13.7759 11.6353 13.9109C11.5 13.9109 11.5 14.046 11.5 14.181C11.5 14.3161 11.6353 14.4511 11.7706 14.4511C12.0412 14.5862 12.5824 14.7213 12.8529 14.4511C12.9882 14.4511 12.9882 14.3161 12.9882 14.181C12.9882 14.046 12.8529 13.9109 12.7176 13.9109C12.7176 13.7759 12.4471 13.7759 12.1765 13.7759Z" fill="#C6C6C6"/>
<path d="M12.7177 15.8017C12.7177 16.477 12.3118 16.7471 11.9059 16.477C11.3647 16.2069 10.9589 15.5316 10.9589 14.8563C10.9589 14.181 11.3647 13.9109 11.7706 14.181C12.3118 14.4511 12.7177 15.2615 12.7177 15.8017Z" fill="#191919"/>
<path d="M12.1765 17.1523L5.54707 20.934L4.05884 17.9627L10.6883 14.046L12.1765 17.1523Z" fill="#262626"/>
<path d="M6.08829 19.9885C6.08829 20.7988 5.54711 21.204 5.00594 20.7988C4.32947 20.3936 3.92358 19.4482 3.92358 18.6379C3.92358 17.8275 4.46476 17.4224 5.00594 17.8275C5.54711 18.2327 6.08829 19.1781 6.08829 19.9885Z" fill="#191919"/>
<path d="M12.5823 16.207C12.5823 17.0173 12.0411 17.4225 11.5 17.0173C10.8235 16.6121 10.4176 15.6667 10.4176 14.8564C10.4176 14.046 10.9588 13.6409 11.5 14.046C12.0411 14.4512 12.5823 15.3966 12.5823 16.207Z" fill="#262626"/>
<path d="M0.676514 18.908L1.75887 18.3678L3.65298 22.6896L2.43534 23.3649L0.676514 18.908Z" fill="#191919"/>
<path d="M2.29993 18.0977C2.29993 18.0977 3.11169 17.6926 4.46463 17.8276C4.87051 17.8276 6.08816 20.2586 5.95287 20.6638C5.54699 21.7443 4.19404 22.4196 4.19404 22.4196L2.29993 18.0977Z" fill="#191919"/>
<path d="M4.73526 21.0689C4.73526 19.9885 4.05879 18.6379 3.24702 18.0977C2.84114 17.8276 2.43526 17.8276 2.16467 17.9626L1.75879 18.2327C1.75879 18.2327 2.29997 18.0977 2.70585 18.3678C3.65291 18.908 4.32938 20.2586 4.32938 21.339C4.32938 21.8793 4.19408 22.2845 3.9235 22.5546L4.19408 22.4195C4.46467 22.1494 4.73526 21.7442 4.73526 21.0689Z" fill="#262626"/>
<path d="M7.44116 19.3132C7.44116 18.5029 6.89998 17.5575 6.3588 17.1523C6.08821 17.0173 5.81763 17.0173 5.68233 17.1523L5.41174 17.2874C5.41174 17.2874 5.81763 17.1523 6.08821 17.4224C6.76468 17.8276 7.17057 18.773 7.17057 19.5834C7.17057 19.9885 7.03527 20.2586 6.76468 20.3937L7.03527 20.2586C7.17057 19.9885 7.44116 19.7184 7.44116 19.3132Z" fill="#4F4F4F"/>
<path d="M11.5 16.8822C11.5 16.0719 10.9589 15.1265 10.4177 14.7213C10.1471 14.5862 9.8765 14.5862 9.74121 14.7213L9.33533 14.8563C9.33533 14.8563 9.74121 14.7213 10.0118 14.9914C10.6883 15.3966 11.0941 16.342 11.0941 17.1523C11.0941 17.5575 10.9589 17.8276 10.6883 17.9627L10.9589 17.8276C11.3647 17.6926 11.5 17.2874 11.5 16.8822Z" fill="#4F4F4F"/>
<path d="M4.32942 21.3391C4.32942 20.2586 3.65295 18.908 2.70589 18.5029C1.89412 17.9626 1.21765 18.5029 1.21765 19.7184C1.21765 20.1236 1.35295 20.6638 1.48824 21.069L1.62353 21.4741C1.89412 22.0144 2.3 22.4195 2.70589 22.6896C3.11177 22.9598 3.38236 22.9598 3.65295 22.8247L3.78824 22.6896C4.05883 22.4195 4.32942 22.0144 4.32942 21.3391Z" fill="#191919"/>
<path d="M3.11176 22.0144C3.11176 23.0948 2.43529 23.635 1.62353 23.2299C0.676471 22.6896 0 21.4741 0 20.2586C0 19.1781 0.676471 18.6379 1.48824 19.0431C2.43529 19.5833 3.11176 20.9339 3.11176 22.0144Z" fill="#303030"/>
<path d="M0.811806 20.1235C0.811806 19.7183 0.947101 19.4482 1.08239 19.1781C0.541218 19.1781 0.27063 19.5833 0.27063 20.3936C0.27063 21.339 0.811806 22.5545 1.62357 22.9597C2.02945 23.2298 2.43534 23.0948 2.70592 22.8247C2.57063 22.8247 2.43534 22.8247 2.16475 22.6896C1.35298 22.2844 0.811806 21.0689 0.811806 20.1235Z" fill="#191919"/>
<path d="M3.92353 21.6092C3.92353 20.5287 3.24706 19.1781 2.4353 18.6379C2.02942 18.3678 1.62353 18.3678 1.35295 18.6379L1.21765 18.7729C1.21765 18.7729 1.75883 18.6379 2.16471 18.908C2.97648 19.4482 3.65295 20.6638 3.65295 21.8793C3.65295 22.4195 3.51765 22.8247 3.24706 23.0948H3.38236C3.65295 22.6896 3.92353 22.2844 3.92353 21.6092Z" fill="#262626"/>
<path d="M1.62353 20.6637C1.62353 20.2586 1.75883 19.9884 2.16471 19.8534C2.02941 19.5833 1.75883 19.4482 1.62353 19.3132C1.48824 19.1781 1.35294 19.1781 1.08236 19.1781C0.947062 19.4482 0.811768 19.7183 0.811768 20.1235C0.811768 21.0689 1.35294 22.2844 2.16471 22.6896C2.3 22.8247 2.4353 22.8247 2.70589 22.8247C2.84118 22.5545 2.97647 22.2844 2.97647 21.8793C2.97647 21.7442 2.97647 21.7442 2.97647 21.6091C2.84118 21.6091 2.84118 21.6091 2.70589 21.6091C2.02941 21.7442 1.62353 21.204 1.62353 20.6637Z" fill="#C6C6C6"/>
<path d="M1.62354 20.6637C1.62354 21.204 2.02942 21.6091 2.57059 21.6091C2.70589 21.6091 2.70589 21.6091 2.84118 21.6091C2.70589 20.9339 2.4353 20.2586 2.16471 19.8534C1.89412 19.9885 1.62354 20.3936 1.62354 20.6637Z" fill="white"/>
<path d="M10.553 17.6925L8.25297 19.0431C8.11768 19.0431 8.11768 19.0431 8.11768 18.908V18.3678C8.11768 18.2327 8.11768 18.2327 8.25297 18.0976L10.553 16.7471C10.6883 16.7471 10.6883 16.7471 10.6883 16.8821V17.4224C10.6883 17.5574 10.553 17.6925 10.553 17.6925Z" fill="#4F4F4F"/>
<path d="M8.79407 18.6379L8.38818 18.9081V18.2328L8.79407 17.9626V18.6379Z" fill="#262626"/>
<path d="M8.38818 18.2328C8.52348 18.3678 8.52348 18.638 8.38818 18.9081C8.38818 18.5029 8.38818 18.3678 8.38818 18.2328Z" fill="#191919"/>
<path d="M8.79407 17.9626C8.92936 18.0977 8.92936 18.3678 8.79407 18.6379C8.79407 18.2328 8.79407 18.0977 8.79407 17.9626Z" fill="#262626"/>
<path d="M6.35884 16.612C6.35884 16.612 7.71178 17.4224 8.11766 17.5574C8.11766 18.0977 8.25296 18.6379 8.11766 19.0431C7.98237 19.4482 7.71178 19.7184 7.71178 19.7184C7.71178 19.7184 7.98237 20.2586 8.65884 19.9885C9.33531 19.8534 9.20002 19.7184 9.33531 19.4482C9.6059 19.5833 10.2824 19.4482 10.4177 19.0431C10.9588 19.1781 11.2294 18.773 11.3647 18.3678C11.6353 18.2327 12.1765 17.8276 12.1765 17.1523C12.1765 16.477 12.1765 14.7212 11.5 14.181C10.8235 13.6408 9.20002 13.2356 8.52355 13.3707C7.84707 13.5057 5.27649 14.3161 5.0059 14.8563C4.60002 15.3965 4.46472 17.6925 4.46472 17.6925L6.35884 16.612Z" fill="#FFC3B1"/>
<path d="M9.20007 16.4771C9.20007 16.4771 9.47066 17.2874 9.47066 17.9627C9.47066 18.638 9.33537 19.4483 9.33537 19.4483C9.33537 19.4483 9.47066 19.5834 9.60596 19.4483C9.60596 19.1782 9.74125 18.2328 9.74125 17.6926C9.87654 16.7472 9.20007 16.4771 9.20007 16.4771Z" fill="#FFAB95"/>
<path d="M10.4176 18.908C10.4176 18.908 10.5529 17.9626 10.5529 17.5575C10.5529 17.1523 10.5529 16.6121 10.2823 16.3419C10.147 16.2069 10.0117 15.9368 10.0117 15.9368C10.0117 15.9368 10.4176 16.0718 10.5529 16.7471C10.6882 17.2873 10.5529 18.0977 10.5529 18.3678C10.8235 18.6379 10.6882 18.908 10.6882 18.908C10.6882 18.908 10.5529 19.0431 10.4176 18.908Z" fill="#FFAB95"/>
<path d="M11.0941 15.2615C11.0941 15.2615 11.3647 15.6666 11.3647 16.2069C11.5 16.7471 11.3647 18.2327 11.3647 18.2327C11.3647 18.2327 11.5 18.2327 11.6353 18.0977C11.7706 17.4224 11.6353 16.477 11.5 15.9368C11.5 15.3965 11.0941 15.2615 11.0941 15.2615Z" fill="#FFAB95"/>
<path d="M43.1588 32.819C43.1588 32.819 39.7764 33.8994 38.5588 34.1695C38.1529 35.5201 39.3706 38.6264 40.3176 40.6523C41.2647 42.6782 44.9176 41.4626 44.9176 41.4626C44.9176 41.4626 43.8353 34.8448 43.1588 32.819Z" fill="#358BC7"/>
<path d="M10.2823 24.3104C10.2823 24.3104 11.3647 26.4713 13.2588 25.1207C15.6941 23.365 17.1823 21.4742 17.1823 21.4742L15.5588 19.3132C15.5588 19.1782 11.5 22.6897 10.2823 24.3104Z" fill="#358BC7"/>
</g>
<defs>
<clipPath id="clip0">
<rect width="46" height="141" fill="white"/>
</clipPath>
</defs>
</svg>
